<svg width="233" height="135" viewBox="0 0 233 135" fill="none" xmlns="http://www.w3.org/2000/svg">
<g filter="url(#filter0_d_180_3502)">
<rect x="28.5" y="1.5" width="202" height="131" stroke="url(#paint0_linear_180_3502)" shape-rendering="crispEdges"/>
<path d="M73.248 30.848L70.016 42H68.384L65.792 33.024L63.104 42L61.488 42.016L58.368 30.848H59.92L62.352 40.304L65.04 30.848H66.672L69.232 40.272L71.68 30.848H73.248ZM74.2974 37.584C74.2974 36.688 74.4787 35.904 74.8414 35.232C75.204 34.5493 75.7 34.0213 76.3294 33.648C76.9694 33.2747 77.6787 33.088 78.4574 33.088C79.2254 33.088 79.892 33.2533 80.4574 33.584C81.0227 33.9147 81.444 34.3307 81.7214 34.832V33.232H83.1934V42H81.7214V40.368C81.4334 40.88 81.0014 41.3067 80.4254 41.648C79.86 41.9787 79.1987 42.144 78.4414 42.144C77.6627 42.144 76.9587 41.952 76.3294 41.568C75.7 41.184 75.204 40.6453 74.8414 39.952C74.4787 39.2587 74.2974 38.4693 74.2974 37.584ZM81.7214 37.6C81.7214 36.9387 81.588 36.3627 81.3214 35.872C81.0547 35.3813 80.692 35.008 80.2334 34.752C79.7854 34.4853 79.2894 34.352 78.7454 34.352C78.2014 34.352 77.7054 34.48 77.2574 34.736C76.8094 34.992 76.452 35.3653 76.1854 35.856C75.9187 36.3467 75.7854 36.9227 75.7854 37.584C75.7854 38.256 75.9187 38.8427 76.1854 39.344C76.452 39.8347 76.8094 40.2133 77.2574 40.48C77.7054 40.736 78.2014 40.864 78.7454 40.864C79.2894 40.864 79.7854 40.736 80.2334 40.48C80.692 40.2133 81.0547 39.8347 81.3214 39.344C81.588 38.8427 81.7214 38.2613 81.7214 37.6ZM87.1099 30.16V42H85.6539V30.16H87.1099ZM94.4874 42L91.0474 38.128V42H89.5914V30.16H91.0474V37.12L94.4234 33.232H96.4554L92.3274 37.6L96.4714 42H94.4874ZM101.675 40.832C103.03 39.744 104.091 38.8533 104.859 38.16C105.627 37.456 106.273 36.7253 106.795 35.968C107.329 35.2 107.595 34.448 107.595 33.712C107.595 33.0187 107.425 32.4747 107.083 32.08C106.753 31.6747 106.214 31.472 105.467 31.472C104.742 31.472 104.177 31.7013 103.771 32.16C103.377 32.608 103.163 33.2107 103.131 33.968H101.723C101.766 32.7733 102.129 31.8507 102.811 31.2C103.494 30.5493 104.374 30.224 105.451 30.224C106.55 30.224 107.419 30.528 108.059 31.136C108.71 31.744 109.035 32.5813 109.035 33.648C109.035 34.5333 108.769 35.3973 108.235 36.24C107.713 37.072 107.115 37.808 106.443 38.448C105.771 39.0773 104.913 39.8133 103.867 40.656H109.371V41.872H101.675V40.832ZM117.016 32.032V35.76H121.08V36.96H117.016V40.8H121.56V42H115.56V30.832H121.56V32.032H117.016ZM123.219 37.584C123.219 36.688 123.401 35.904 123.763 35.232C124.126 34.5493 124.622 34.0213 125.251 33.648C125.891 33.2747 126.601 33.088 127.379 33.088C128.147 33.088 128.814 33.2533 129.379 33.584C129.945 33.9147 130.366 34.3307 130.643 34.832V33.232H132.115V42H130.643V40.368C130.355 40.88 129.923 41.3067 129.347 41.648C128.782 41.9787 128.121 42.144 127.363 42.144C126.585 42.144 125.881 41.952 125.251 41.568C124.622 41.184 124.126 40.6453 123.763 39.952C123.401 39.2587 123.219 38.4693 123.219 37.584ZM130.643 37.6C130.643 36.9387 130.51 36.3627 130.243 35.872C129.977 35.3813 129.614 35.008 129.155 34.752C128.707 34.4853 128.211 34.352 127.667 34.352C127.123 34.352 126.627 34.48 126.179 34.736C125.731 34.992 125.374 35.3653 125.107 35.856C124.841 36.3467 124.707 36.9227 124.707 37.584C124.707 38.256 124.841 38.8427 125.107 39.344C125.374 39.8347 125.731 40.2133 126.179 40.48C126.627 40.736 127.123 40.864 127.667 40.864C128.211 40.864 128.707 40.736 129.155 40.48C129.614 40.2133 129.977 39.8347 130.243 39.344C130.51 38.8427 130.643 38.2613 130.643 37.6ZM136.032 34.656C136.288 34.1547 136.65 33.7653 137.12 33.488C137.6 33.2107 138.181 33.072 138.864 33.072V34.576H138.48C136.848 34.576 136.032 35.4613 136.032 37.232V42H134.576V33.232H136.032V34.656ZM144.817 33.072C145.883 33.072 146.747 33.3973 147.409 34.048C148.07 34.688 148.401 35.616 148.401 36.832V42H146.961V37.04C146.961 36.1653 146.742 35.4987 146.305 35.04C145.867 34.5707 145.27 34.336 144.513 34.336C143.745 34.336 143.131 34.576 142.673 35.056C142.225 35.536 142.001 36.2347 142.001 37.152V42H140.545V33.232H142.001V34.48C142.289 34.032 142.678 33.6853 143.169 33.44C143.67 33.1947 144.219 33.072 144.817 33.072ZM65.104 62L62.448 57.44H60.688V62H59.232V50.848H62.832C63.6747 50.848 64.384 50.992 64.96 51.28C65.5467 51.568 65.984 51.9573 66.272 52.448C66.56 52.9387 66.704 53.4987 66.704 54.128C66.704 54.896 66.48 55.5733 66.032 56.16C65.5947 56.7467 64.9333 57.136 64.048 57.328L66.848 62H65.104ZM60.688 56.272H62.832C63.6213 56.272 64.2133 56.08 64.608 55.696C65.0027 55.3013 65.2 54.7787 65.2 54.128C65.2 53.4667 65.0027 52.9547 64.608 52.592C64.224 52.2293 63.632 52.048 62.832 52.048H60.688V56.272ZM76.9664 57.28C76.9664 57.5573 76.9504 57.8507 76.9184 58.16H69.9104C69.9637 59.024 70.257 59.7013 70.7904 60.192C71.3344 60.672 71.9904 60.912 72.7584 60.912C73.3877 60.912 73.9104 60.768 74.3264 60.48C74.753 60.1813 75.0517 59.7867 75.2224 59.296H76.7904C76.5557 60.1387 76.0864 60.8267 75.3824 61.36C74.6784 61.8827 73.8037 62.144 72.7584 62.144C71.9264 62.144 71.1797 61.9573 70.5184 61.584C69.8677 61.2107 69.3557 60.6827 68.9824 60C68.609 59.3067 68.4224 58.5067 68.4224 57.6C68.4224 56.6933 68.6037 55.8987 68.9664 55.216C69.329 54.5333 69.8357 54.0107 70.4864 53.648C71.1477 53.2747 71.905 53.088 72.7584 53.088C73.5904 53.088 74.3264 53.2693 74.9664 53.632C75.6064 53.9947 76.097 54.496 76.4384 55.136C76.7904 55.7653 76.9664 56.48 76.9664 57.28ZM75.4624 56.976C75.4624 56.4213 75.3397 55.9467 75.0944 55.552C74.849 55.1467 74.513 54.8427 74.0864 54.64C73.6704 54.4267 73.2064 54.32 72.6944 54.32C71.9584 54.32 71.329 54.5547 70.8064 55.024C70.2944 55.4933 70.001 56.144 69.9264 56.976H75.4624ZM82.4563 54.432H80.6163V62H79.1603V54.432H78.0243V53.232H79.1603V52.608C79.1603 51.6267 79.4109 50.912 79.9123 50.464C80.4243 50.0053 81.2403 49.776 82.3602 49.776V50.992C81.7203 50.992 81.2669 51.12 81.0003 51.376C80.7443 51.6213 80.6163 52.032 80.6163 52.608V53.232H82.4563V54.432ZM92.1539 57.28C92.1539 57.5573 92.1379 57.8507 92.1059 58.16H85.0979C85.1512 59.024 85.4445 59.7013 85.9779 60.192C86.5219 60.672 87.1779 60.912 87.9459 60.912C88.5752 60.912 89.0979 60.768 89.5139 60.48C89.9405 60.1813 90.2392 59.7867 90.4099 59.296H91.9779C91.7432 60.1387 91.2739 60.8267 90.5699 61.36C89.8659 61.8827 88.9912 62.144 87.9459 62.144C87.1139 62.144 86.3672 61.9573 85.7059 61.584C85.0552 61.2107 84.5432 60.6827 84.1699 60C83.7965 59.3067 83.6099 58.5067 83.6099 57.6C83.6099 56.6933 83.7912 55.8987 84.1539 55.216C84.5165 54.5333 85.0232 54.0107 85.6739 53.648C86.3352 53.2747 87.0925 53.088 87.9459 53.088C88.7779 53.088 89.5139 53.2693 90.1539 53.632C90.7939 53.9947 91.2845 54.496 91.6259 55.136C91.9779 55.7653 92.1539 56.48 92.1539 57.28ZM90.6499 56.976C90.6499 56.4213 90.5272 55.9467 90.2819 55.552C90.0365 55.1467 89.7005 54.8427 89.2739 54.64C88.8579 54.4267 88.3939 54.32 87.8819 54.32C87.1459 54.32 86.5165 54.5547 85.9939 55.024C85.4819 55.4933 85.1885 56.144 85.1139 56.976H90.6499ZM95.5318 54.656C95.7878 54.1547 96.1504 53.7653 96.6198 53.488C97.0998 53.2107 97.6811 53.072 98.3638 53.072V54.576H97.9798C96.3478 54.576 95.5318 55.4613 95.5318 57.232V62H94.0758V53.232H95.5318V54.656ZM101.501 54.656C101.757 54.1547 102.119 53.7653 102.589 53.488C103.069 53.2107 103.65 53.072 104.333 53.072V54.576H103.949C102.317 54.576 101.501 55.4613 101.501 57.232V62H100.045V53.232H101.501V54.656ZM105.469 57.584C105.469 56.688 105.651 55.904 106.013 55.232C106.376 54.5493 106.872 54.0213 107.501 53.648C108.141 53.2747 108.851 53.088 109.629 53.088C110.397 53.088 111.064 53.2533 111.629 53.584C112.195 53.9147 112.616 54.3307 112.893 54.832V53.232H114.365V62H112.893V60.368C112.605 60.88 112.173 61.3067 111.597 61.648C111.032 61.9787 110.371 62.144 109.613 62.144C108.835 62.144 108.131 61.952 107.501 61.568C106.872 61.184 106.376 60.6453 106.013 59.952C105.651 59.2587 105.469 58.4693 105.469 57.584ZM112.893 57.6C112.893 56.9387 112.76 56.3627 112.493 55.872C112.227 55.3813 111.864 55.008 111.405 54.752C110.957 54.4853 110.461 54.352 109.917 54.352C109.373 54.352 108.877 54.48 108.429 54.736C107.981 54.992 107.624 55.3653 107.357 55.856C107.091 56.3467 106.957 56.9227 106.957 57.584C106.957 58.256 107.091 58.8427 107.357 59.344C107.624 59.8347 107.981 60.2133 108.429 60.48C108.877 60.736 109.373 60.864 109.917 60.864C110.461 60.864 110.957 60.736 111.405 60.48C111.864 60.2133 112.227 59.8347 112.493 59.344C112.76 58.8427 112.893 58.2613 112.893 57.6ZM118.282 50.16V62H116.826V50.16H118.282ZM128.565 62.112C127.829 62.112 127.168 61.984 126.581 61.728C126.005 61.4613 125.552 61.0987 125.221 60.64C124.89 60.1707 124.72 59.632 124.709 59.024H126.261C126.314 59.5467 126.528 59.9893 126.901 60.352C127.285 60.704 127.84 60.88 128.565 60.88C129.258 60.88 129.802 60.7093 130.197 60.368C130.602 60.016 130.805 59.568 130.805 59.024C130.805 58.5973 130.688 58.2507 130.453 57.984C130.218 57.7173 129.925 57.5147 129.573 57.376C129.221 57.2373 128.746 57.088 128.149 56.928C127.413 56.736 126.821 56.544 126.373 56.352C125.936 56.16 125.557 55.8613 125.237 55.456C124.928 55.04 124.773 54.4853 124.773 53.792C124.773 53.184 124.928 52.6453 125.237 52.176C125.546 51.7067 125.978 51.344 126.533 51.088C127.098 50.832 127.744 50.704 128.469 50.704C129.514 50.704 130.368 50.9653 131.029 51.488C131.701 52.0107 132.08 52.704 132.165 53.568H130.565C130.512 53.1413 130.288 52.768 129.893 52.448C129.498 52.1173 128.976 51.952 128.325 51.952C127.717 51.952 127.221 52.112 126.837 52.432C126.453 52.7413 126.261 53.1787 126.261 53.744C126.261 54.1493 126.373 54.48 126.597 54.736C126.832 54.992 127.114 55.1893 127.445 55.328C127.786 55.456 128.261 55.6053 128.869 55.776C129.605 55.9787 130.197 56.1813 130.645 56.384C131.093 56.576 131.477 56.88 131.797 57.296C132.117 57.7013 132.277 58.256 132.277 58.96C132.277 59.504 132.133 60.016 131.845 60.496C131.557 60.976 131.13 61.3653 130.565 61.664C130 61.9627 129.333 62.112 128.565 62.112ZM141.972 53.232L136.692 66.128H135.188L136.916 61.904L133.38 53.232H134.996L137.748 60.336L140.468 53.232H141.972ZM146.539 62.144C145.867 62.144 145.264 62.032 144.731 61.808C144.198 61.5733 143.776 61.2533 143.467 60.848C143.158 60.432 142.987 59.9573 142.955 59.424H144.459C144.502 59.8613 144.704 60.2187 145.067 60.496C145.44 60.7733 145.926 60.912 146.523 60.912C147.078 60.912 147.515 60.7893 147.835 60.544C148.155 60.2987 148.315 59.9893 148.315 59.616C148.315 59.232 148.144 58.9493 147.803 58.768C147.462 58.576 146.934 58.3893 146.219 58.208C145.568 58.0373 145.035 57.8667 144.619 57.696C144.214 57.5147 143.862 57.2533 143.563 56.912C143.275 56.56 143.131 56.1013 143.131 55.536C143.131 55.088 143.264 54.6773 143.531 54.304C143.798 53.9307 144.176 53.6373 144.667 53.424C145.158 53.2 145.718 53.088 146.347 53.088C147.318 53.088 148.102 53.3333 148.699 53.824C149.296 54.3147 149.616 54.9867 149.659 55.84H148.203C148.171 55.3813 147.984 55.0133 147.643 54.736C147.312 54.4587 146.864 54.32 146.299 54.32C145.776 54.32 145.36 54.432 145.051 54.656C144.742 54.88 144.587 55.1733 144.587 55.536C144.587 55.824 144.678 56.064 144.859 56.256C145.051 56.4373 145.286 56.5867 145.563 56.704C145.851 56.8107 146.246 56.9333 146.747 57.072C147.376 57.2427 147.888 57.4133 148.283 57.584C148.678 57.744 149.014 57.9893 149.291 58.32C149.579 58.6507 149.728 59.0827 149.739 59.616C149.739 60.096 149.606 60.528 149.339 60.912C149.072 61.296 148.694 61.6 148.203 61.824C147.723 62.0373 147.168 62.144 146.539 62.144ZM153.571 54.432V59.6C153.571 60.0267 153.661 60.3307 153.843 60.512C154.024 60.6827 154.339 60.768 154.786 60.768H155.859V62H154.547C153.736 62 153.128 61.8133 152.723 61.44C152.317 61.0667 152.115 60.4533 152.115 59.6V54.432H150.979V53.232H152.115V51.024H153.571V53.232H155.859V54.432H153.571ZM165.623 57.28C165.623 57.5573 165.607 57.8507 165.575 58.16H158.567C158.62 59.024 158.913 59.7013 159.447 60.192C159.991 60.672 160.647 60.912 161.415 60.912C162.044 60.912 162.567 60.768 162.983 60.48C163.409 60.1813 163.708 59.7867 163.879 59.296H165.447C165.212 60.1387 164.743 60.8267 164.039 61.36C163.335 61.8827 162.46 62.144 161.415 62.144C160.583 62.144 159.836 61.9573 159.175 61.584C158.524 61.2107 158.012 60.6827 157.639 60C157.265 59.3067 157.079 58.5067 157.079 57.6C157.079 56.6933 157.26 55.8987 157.623 55.216C157.985 54.5333 158.492 54.0107 159.143 53.648C159.804 53.2747 160.561 53.088 161.415 53.088C162.247 53.088 162.983 53.2693 163.623 53.632C164.263 53.9947 164.753 54.496 165.095 55.136C165.447 55.7653 165.623 56.48 165.623 57.28ZM164.119 56.976C164.119 56.4213 163.996 55.9467 163.751 55.552C163.505 55.1467 163.169 54.8427 162.743 54.64C162.327 54.4267 161.863 54.32 161.351 54.32C160.615 54.32 159.985 54.5547 159.463 55.024C158.951 55.4933 158.657 56.144 158.583 56.976H164.119ZM178.089 53.072C178.771 53.072 179.379 53.216 179.913 53.504C180.446 53.7813 180.867 54.2027 181.177 54.768C181.486 55.3333 181.641 56.0213 181.641 56.832V62H180.201V57.04C180.201 56.1653 179.982 55.4987 179.545 55.04C179.118 54.5707 178.537 54.336 177.801 54.336C177.043 54.336 176.441 54.5813 175.993 55.072C175.545 55.552 175.321 56.2507 175.321 57.168V62H173.881V57.04C173.881 56.1653 173.662 55.4987 173.225 55.04C172.798 54.5707 172.217 54.336 171.481 54.336C170.723 54.336 170.121 54.5813 169.673 55.072C169.225 55.552 169.001 56.2507 169.001 57.168V62H167.545V53.232H169.001V54.496C169.289 54.0373 169.673 53.6853 170.153 53.44C170.643 53.1947 171.182 53.072 171.769 53.072C172.505 53.072 173.155 53.2373 173.721 53.568C174.286 53.8987 174.707 54.384 174.985 55.024C175.23 54.4053 175.635 53.9253 176.201 53.584C176.766 53.2427 177.395 53.072 178.089 53.072ZM60.688 72.032V75.76H64.752V76.96H60.688V80.8H65.232V82H59.232V70.832H65.232V72.032H60.688ZM66.8911 77.584C66.8911 76.688 67.0725 75.904 67.4351 75.232C67.7978 74.5493 68.2938 74.0213 68.9231 73.648C69.5631 73.2747 70.2725 73.088 71.0511 73.088C71.8191 73.088 72.4858 73.2533 73.0511 73.584C73.6165 73.9147 74.0378 74.3307 74.3151 74.832V73.232H75.7871V82H74.3151V80.368C74.0271 80.88 73.5951 81.3067 73.0191 81.648C72.4538 81.9787 71.7925 82.144 71.0351 82.144C70.2565 82.144 69.5525 81.952 68.9231 81.568C68.2938 81.184 67.7978 80.6453 67.4351 79.952C67.0725 79.2587 66.8911 78.4693 66.8911 77.584ZM74.3151 77.6C74.3151 76.9387 74.1818 76.3627 73.9151 75.872C73.6485 75.3813 73.2858 75.008 72.8271 74.752C72.3791 74.4853 71.8831 74.352 71.3391 74.352C70.7951 74.352 70.2991 74.48 69.8511 74.736C69.4031 74.992 69.0458 75.3653 68.7791 75.856C68.5125 76.3467 68.3791 76.9227 68.3791 77.584C68.3791 78.256 68.5125 78.8427 68.7791 79.344C69.0458 79.8347 69.4031 80.2133 69.8511 80.48C70.2991 80.736 70.7951 80.864 71.3391 80.864C71.8831 80.864 72.3791 80.736 72.8271 80.48C73.2858 80.2133 73.6485 79.8347 73.9151 79.344C74.1818 78.8427 74.3151 78.2613 74.3151 77.6ZM79.7036 74.656C79.9596 74.1547 80.3223 73.7653 80.7916 73.488C81.2716 73.2107 81.853 73.072 82.5356 73.072V74.576H82.1516C80.5196 74.576 79.7036 75.4613 79.7036 77.232V82H78.2476V73.232H79.7036V74.656ZM88.4884 73.072C89.555 73.072 90.419 73.3973 91.0804 74.048C91.7417 74.688 92.0724 75.616 92.0724 76.832V82H90.6324V77.04C90.6324 76.1653 90.4137 75.4987 89.9764 75.04C89.539 74.5707 88.9417 74.336 88.1844 74.336C87.4164 74.336 86.803 74.576 86.3444 75.056C85.8964 75.536 85.6724 76.2347 85.6724 77.152V82H84.2164V73.232H85.6724V74.48C85.9604 74.032 86.3497 73.6853 86.8404 73.44C87.3417 73.1947 87.891 73.072 88.4884 73.072ZM105.58 70.848V72.032H102.54V82H101.084V72.032H98.0284V70.848H105.58ZM106.829 77.584C106.829 76.688 107.01 75.904 107.373 75.232C107.735 74.5493 108.231 74.0213 108.861 73.648C109.501 73.2747 110.21 73.088 110.989 73.088C111.757 73.088 112.423 73.2533 112.989 73.584C113.554 73.9147 113.975 74.3307 114.253 74.832V73.232H115.725V82H114.253V80.368C113.965 80.88 113.533 81.3067 112.957 81.648C112.391 81.9787 111.73 82.144 110.973 82.144C110.194 82.144 109.49 81.952 108.861 81.568C108.231 81.184 107.735 80.6453 107.373 79.952C107.01 79.2587 106.829 78.4693 106.829 77.584ZM114.253 77.6C114.253 76.9387 114.119 76.3627 113.853 75.872C113.586 75.3813 113.223 75.008 112.765 74.752C112.317 74.4853 111.821 74.352 111.277 74.352C110.733 74.352 110.237 74.48 109.789 74.736C109.341 74.992 108.983 75.3653 108.717 75.856C108.45 76.3467 108.317 76.9227 108.317 77.584C108.317 78.256 108.45 78.8427 108.717 79.344C108.983 79.8347 109.341 80.2133 109.789 80.48C110.237 80.736 110.733 80.864 111.277 80.864C111.821 80.864 112.317 80.736 112.765 80.48C113.223 80.2133 113.586 79.8347 113.853 79.344C114.119 78.8427 114.253 78.2613 114.253 77.6ZM121.289 82.144C120.617 82.144 120.014 82.032 119.481 81.808C118.948 81.5733 118.526 81.2533 118.217 80.848C117.908 80.432 117.737 79.9573 117.705 79.424H119.209C119.252 79.8613 119.454 80.2187 119.817 80.496C120.19 80.7733 120.676 80.912 121.273 80.912C121.828 80.912 122.265 80.7893 122.585 80.544C122.905 80.2987 123.065 79.9893 123.065 79.616C123.065 79.232 122.894 78.9493 122.553 78.768C122.212 78.576 121.684 78.3893 120.969 78.208C120.318 78.0373 119.785 77.8667 119.369 77.696C118.964 77.5147 118.612 77.2533 118.313 76.912C118.025 76.56 117.881 76.1013 117.881 75.536C117.881 75.088 118.014 74.6773 118.281 74.304C118.548 73.9307 118.926 73.6373 119.417 73.424C119.908 73.2 120.468 73.088 121.097 73.088C122.068 73.088 122.852 73.3333 123.449 73.824C124.046 74.3147 124.366 74.9867 124.409 75.84H122.953C122.921 75.3813 122.734 75.0133 122.393 74.736C122.062 74.4587 121.614 74.32 121.049 74.32C120.526 74.32 120.11 74.432 119.801 74.656C119.492 74.88 119.337 75.1733 119.337 75.536C119.337 75.824 119.428 76.064 119.609 76.256C119.801 76.4373 120.036 76.5867 120.313 76.704C120.601 76.8107 120.996 76.9333 121.497 77.072C122.126 77.2427 122.638 77.4133 123.033 77.584C123.428 77.744 123.764 77.9893 124.041 78.32C124.329 78.6507 124.478 79.0827 124.489 79.616C124.489 80.096 124.356 80.528 124.089 80.912C123.822 81.296 123.444 81.6 122.953 81.824C122.473 82.0373 121.918 82.144 121.289 82.144ZM131.441 82L128.001 78.128V82H126.545V70.16H128.001V77.12L131.377 73.232H133.409L129.281 77.6L133.425 82H131.441ZM73.248 90.848L70.016 102H68.384L65.792 93.024L63.104 102L61.488 102.016L58.368 90.848H59.92L62.352 100.304L65.04 90.848H66.672L69.232 100.272L71.68 90.848H73.248ZM74.2974 97.584C74.2974 96.688 74.4787 95.904 74.8414 95.232C75.204 94.5493 75.7 94.0213 76.3294 93.648C76.9694 93.2747 77.6787 93.088 78.4574 93.088C79.2254 93.088 79.892 93.2533 80.4574 93.584C81.0227 93.9147 81.444 94.3307 81.7214 94.832V93.232H83.1934V102H81.7214V100.368C81.4334 100.88 81.0014 101.307 80.4254 101.648C79.86 101.979 79.1987 102.144 78.4414 102.144C77.6627 102.144 76.9587 101.952 76.3294 101.568C75.7 101.184 75.204 100.645 74.8414 99.952C74.4787 99.2587 74.2974 98.4693 74.2974 97.584ZM81.7214 97.6C81.7214 96.9387 81.588 96.3627 81.3214 95.872C81.0547 95.3813 80.692 95.008 80.2334 94.752C79.7854 94.4853 79.2894 94.352 78.7454 94.352C78.2014 94.352 77.7054 94.48 77.2574 94.736C76.8094 94.992 76.452 95.3653 76.1854 95.856C75.9187 96.3467 75.7854 96.9227 75.7854 97.584C75.7854 98.256 75.9187 98.8427 76.1854 99.344C76.452 99.8347 76.8094 100.213 77.2574 100.48C77.7054 100.736 78.2014 100.864 78.7454 100.864C79.2894 100.864 79.7854 100.736 80.2334 100.48C80.692 100.213 81.0547 99.8347 81.3214 99.344C81.588 98.8427 81.7214 98.2613 81.7214 97.6ZM87.1099 90.16V102H85.6539V90.16H87.1099ZM91.0474 90.16V102H89.5914V90.16H91.0474ZM101.529 97.28C101.529 97.5573 101.513 97.8507 101.481 98.16H94.4729C94.5262 99.024 94.8195 99.7013 95.3529 100.192C95.8969 100.672 96.5529 100.912 97.3209 100.912C97.9502 100.912 98.4729 100.768 98.8889 100.48C99.3155 100.181 99.6142 99.7867 99.7849 99.296H101.353C101.118 100.139 100.649 100.827 99.9449 101.36C99.2409 101.883 98.3662 102.144 97.3209 102.144C96.4889 102.144 95.7422 101.957 95.0809 101.584C94.4302 101.211 93.9182 100.683 93.5449 100C93.1715 99.3067 92.9849 98.5067 92.9849 97.6C92.9849 96.6933 93.1662 95.8987 93.5289 95.216C93.8915 94.5333 94.3982 94.0107 95.0489 93.648C95.7102 93.2747 96.4675 93.088 97.3209 93.088C98.1529 93.088 98.8889 93.2693 99.5289 93.632C100.169 93.9947 100.66 94.496 101.001 95.136C101.353 95.7653 101.529 96.48 101.529 97.28ZM100.025 96.976C100.025 96.4213 99.9022 95.9467 99.6569 95.552C99.4115 95.1467 99.0755 94.8427 98.6489 94.64C98.2329 94.4267 97.7689 94.32 97.2569 94.32C96.5209 94.32 95.8915 94.5547 95.3689 95.024C94.8569 95.4933 94.5635 96.144 94.4889 96.976H100.025ZM105.227 94.432V99.6C105.227 100.027 105.317 100.331 105.499 100.512C105.68 100.683 105.995 100.768 106.443 100.768H107.515V102H106.203C105.392 102 104.784 101.813 104.379 101.44C103.973 101.067 103.771 100.453 103.771 99.6V94.432H102.635V93.232H103.771V91.024H105.227V93.232H107.515V94.432H105.227ZM114.297 91.808C114.019 91.808 113.785 91.712 113.593 91.52C113.401 91.328 113.305 91.0933 113.305 90.816C113.305 90.5387 113.401 90.304 113.593 90.112C113.785 89.92 114.019 89.824 114.297 89.824C114.563 89.824 114.787 89.92 114.969 90.112C115.161 90.304 115.257 90.5387 115.257 90.816C115.257 91.0933 115.161 91.328 114.969 91.52C114.787 91.712 114.563 91.808 114.297 91.808ZM115.001 93.232V102H113.545V93.232H115.001ZM121.754 93.072C122.821 93.072 123.685 93.3973 124.346 94.048C125.007 94.688 125.338 95.616 125.338 96.832V102H123.898V97.04C123.898 96.1653 123.679 95.4987 123.242 95.04C122.805 94.5707 122.207 94.336 121.45 94.336C120.682 94.336 120.069 94.576 119.61 95.056C119.162 95.536 118.938 96.2347 118.938 97.152V102H117.482V93.232H118.938V94.48C119.226 94.032 119.615 93.6853 120.106 93.44C120.607 93.1947 121.157 93.072 121.754 93.072ZM129.492 94.432V99.6C129.492 100.027 129.583 100.331 129.764 100.512C129.946 100.683 130.26 100.768 130.708 100.768H131.78V102H130.468C129.658 102 129.05 101.813 128.644 101.44C128.239 101.067 128.036 100.453 128.036 99.6V94.432H126.9V93.232H128.036V91.024H129.492V93.232H131.78V94.432H129.492ZM141.545 97.28C141.545 97.5573 141.529 97.8507 141.497 98.16H134.489C134.542 99.024 134.835 99.7013 135.369 100.192C135.913 100.672 136.569 100.912 137.337 100.912C137.966 100.912 138.489 100.768 138.905 100.48C139.331 100.181 139.63 99.7867 139.801 99.296H141.369C141.134 100.139 140.665 100.827 139.961 101.36C139.257 101.883 138.382 102.144 137.337 102.144C136.505 102.144 135.758 101.957 135.097 101.584C134.446 101.211 133.934 100.683 133.561 100C133.187 99.3067 133.001 98.5067 133.001 97.6C133.001 96.6933 133.182 95.8987 133.545 95.216C133.907 94.5333 134.414 94.0107 135.065 93.648C135.726 93.2747 136.483 93.088 137.337 93.088C138.169 93.088 138.905 93.2693 139.545 93.632C140.185 93.9947 140.675 94.496 141.017 95.136C141.369 95.7653 141.545 96.48 141.545 97.28ZM140.041 96.976C140.041 96.4213 139.918 95.9467 139.673 95.552C139.427 95.1467 139.091 94.8427 138.665 94.64C138.249 94.4267 137.785 94.32 137.273 94.32C136.537 94.32 135.907 94.5547 135.385 95.024C134.873 95.4933 134.579 96.144 134.505 96.976H140.041ZM147.082 93.088C147.84 93.088 148.501 93.2533 149.066 93.584C149.642 93.9147 150.069 94.3307 150.346 94.832V93.232H151.818V102.192C151.818 102.992 151.648 103.701 151.306 104.32C150.965 104.949 150.474 105.44 149.834 105.792C149.205 106.144 148.469 106.32 147.626 106.32C146.474 106.32 145.514 106.048 144.746 105.504C143.978 104.96 143.525 104.219 143.386 103.28H144.826C144.986 103.813 145.317 104.24 145.818 104.56C146.32 104.891 146.922 105.056 147.626 105.056C148.426 105.056 149.077 104.805 149.578 104.304C150.09 103.803 150.346 103.099 150.346 102.192V100.352C150.058 100.864 149.632 101.291 149.066 101.632C148.501 101.973 147.84 102.144 147.082 102.144C146.304 102.144 145.594 101.952 144.954 101.568C144.325 101.184 143.829 100.645 143.466 99.952C143.104 99.2587 142.922 98.4693 142.922 97.584C142.922 96.688 143.104 95.904 143.466 95.232C143.829 94.5493 144.325 94.0213 144.954 93.648C145.594 93.2747 146.304 93.088 147.082 93.088ZM150.346 97.6C150.346 96.9387 150.213 96.3627 149.946 95.872C149.68 95.3813 149.317 95.008 148.858 94.752C148.41 94.4853 147.914 94.352 147.37 94.352C146.826 94.352 146.33 94.48 145.882 94.736C145.434 94.992 145.077 95.3653 144.81 95.856C144.544 96.3467 144.41 96.9227 144.41 97.584C144.41 98.256 144.544 98.8427 144.81 99.344C145.077 99.8347 145.434 100.213 145.882 100.48C146.33 100.736 146.826 100.864 147.37 100.864C147.914 100.864 148.41 100.736 148.858 100.48C149.317 100.213 149.68 99.8347 149.946 99.344C150.213 98.8427 150.346 98.2613 150.346 97.6ZM155.735 94.656C155.991 94.1547 156.354 93.7653 156.823 93.488C157.303 93.2107 157.884 93.072 158.567 93.072V94.576H158.183C156.551 94.576 155.735 95.4613 155.735 97.232V102H154.279V93.232H155.735V94.656ZM159.704 97.584C159.704 96.688 159.885 95.904 160.248 95.232C160.61 94.5493 161.106 94.0213 161.736 93.648C162.376 93.2747 163.085 93.088 163.864 93.088C164.632 93.088 165.298 93.2533 165.864 93.584C166.429 93.9147 166.85 94.3307 167.128 94.832V93.232H168.6V102H167.128V100.368C166.84 100.88 166.408 101.307 165.832 101.648C165.266 101.979 164.605 102.144 163.848 102.144C163.069 102.144 162.365 101.952 161.736 101.568C161.106 101.184 160.61 100.645 160.248 99.952C159.885 99.2587 159.704 98.4693 159.704 97.584ZM167.128 97.6C167.128 96.9387 166.994 96.3627 166.728 95.872C166.461 95.3813 166.098 95.008 165.64 94.752C165.192 94.4853 164.696 94.352 164.152 94.352C163.608 94.352 163.112 94.48 162.664 94.736C162.216 94.992 161.858 95.3653 161.592 95.856C161.325 96.3467 161.192 96.9227 161.192 97.584C161.192 98.256 161.325 98.8427 161.592 99.344C161.858 99.8347 162.216 100.213 162.664 100.48C163.112 100.736 163.608 100.864 164.152 100.864C164.696 100.864 165.192 100.736 165.64 100.48C166.098 100.213 166.461 99.8347 166.728 99.344C166.994 98.8427 167.128 98.2613 167.128 97.6ZM172.836 94.432V99.6C172.836 100.027 172.927 100.331 173.108 100.512C173.289 100.683 173.604 100.768 174.052 100.768H175.124V102H173.812C173.001 102 172.393 101.813 171.988 101.44C171.583 101.067 171.38 100.453 171.38 99.6V94.432H170.244V93.232H171.38V91.024H172.836V93.232H175.124V94.432H172.836ZM177.64 91.808C177.363 91.808 177.128 91.712 176.936 91.52C176.744 91.328 176.648 91.0933 176.648 90.816C176.648 90.5387 176.744 90.304 176.936 90.112C177.128 89.92 177.363 89.824 177.64 89.824C177.907 89.824 178.131 89.92 178.312 90.112C178.504 90.304 178.6 90.5387 178.6 90.816C178.6 91.0933 178.504 91.328 178.312 91.52C178.131 91.712 177.907 91.808 177.64 91.808ZM178.344 93.232V102H176.888V93.232H178.344ZM184.65 102.144C183.828 102.144 183.082 101.957 182.41 101.584C181.748 101.211 181.226 100.683 180.842 100C180.468 99.3067 180.282 98.5067 180.282 97.6C180.282 96.704 180.474 95.9147 180.858 95.232C181.252 94.5387 181.786 94.0107 182.458 93.648C183.13 93.2747 183.882 93.088 184.714 93.088C185.546 93.088 186.298 93.2747 186.97 93.648C187.642 94.0107 188.17 94.5333 188.554 95.216C188.948 95.8987 189.146 96.6933 189.146 97.6C189.146 98.5067 188.943 99.3067 188.538 100C188.143 100.683 187.604 101.211 186.922 101.584C186.239 101.957 185.482 102.144 184.65 102.144ZM184.65 100.864C185.172 100.864 185.663 100.741 186.122 100.496C186.58 100.251 186.948 99.8827 187.226 99.392C187.514 98.9013 187.658 98.304 187.658 97.6C187.658 96.896 187.519 96.2987 187.242 95.808C186.964 95.3173 186.602 94.9547 186.154 94.72C185.706 94.4747 185.22 94.352 184.698 94.352C184.164 94.352 183.674 94.4747 183.226 94.72C182.788 94.9547 182.436 95.3173 182.17 95.808C181.903 96.2987 181.77 96.896 181.77 97.6C181.77 98.3147 181.898 98.9173 182.154 99.408C182.42 99.8987 182.772 100.267 183.21 100.512C183.647 100.747 184.127 100.864 184.65 100.864ZM195.332 93.072C196.399 93.072 197.263 93.3973 197.924 94.048C198.585 94.688 198.916 95.616 198.916 96.832V102H197.476V97.04C197.476 96.1653 197.257 95.4987 196.82 95.04C196.383 94.5707 195.785 94.336 195.028 94.336C194.26 94.336 193.647 94.576 193.188 95.056C192.74 95.536 192.516 96.2347 192.516 97.152V102H191.06V93.232H192.516V94.48C192.804 94.032 193.193 93.6853 193.684 93.44C194.185 93.1947 194.735 93.072 195.332 93.072Z" fill="white"/>
</g>
<g filter="url(#filter1_d_180_3502)">
<mask id="path-4-outside-1_180_3502" maskUnits="userSpaceOnUse" x="-1" y="3" width="21" height="129" fill="black">
<rect fill="white" x="-1" y="3" width="21" height="129"/>
<path d="M15.432 117.648L15.432 123.312L18 124.608V130.2L1.008 120.984L1.008 114.84L18 111.648L18 117.264L15.432 117.648ZM11.424 118.224L6.696 118.92L11.424 121.296L11.424 118.224ZM1.008 102.229L10.584 103.909C10.84 103.957 11.104 103.981 11.376 103.981C11.92 103.981 12.352 103.837 12.672 103.549C12.976 103.261 13.128 102.805 13.128 102.181C13.128 101.413 12.904 100.805 12.456 100.357C11.992 99.9095 11.368 99.6135 10.584 99.4695L1.008 97.7895L1.008 92.4855L10.584 94.1655C12.248 94.4535 13.648 95.0295 14.784 95.8935C15.92 96.7415 16.768 97.7895 17.328 99.0375C17.888 100.269 18.168 101.629 18.168 103.117C18.168 105.021 17.672 106.541 16.68 107.677C15.672 108.813 14.24 109.381 12.384 109.381C11.792 109.381 11.192 109.325 10.584 109.213L1.008 107.533L1.008 102.229ZM9.48 92.1555C7.8 91.8675 6.304 91.2595 4.992 90.3315C3.68 89.4035 2.664 88.2275 1.944 86.8035C1.208 85.3795 0.839999 83.7955 0.839999 82.0515C0.839999 80.5635 1.088 79.2995 1.584 78.2595C2.064 77.2035 2.752 76.4195 3.648 75.9075C4.544 75.3795 5.6 75.1395 6.816 75.1875L6.816 80.8035C6.48 80.9475 6.224 81.1955 6.048 81.5475C5.856 81.8995 5.76 82.3475 5.76 82.8915C5.76 83.9155 6.096 84.7715 6.768 85.4595C7.44 86.1315 8.344 86.5635 9.48 86.7555C9.96 86.8355 10.352 86.8755 10.656 86.8755C12.512 86.8755 13.44 85.7955 13.44 83.6355C13.44 82.4035 12.944 81.3235 11.952 80.3955V84.6435L8.184 83.9955V75.3315L13.512 76.2675C14.776 77.2275 15.864 78.4355 16.776 79.8915C17.672 81.3475 18.12 83.0675 18.12 85.0515C18.12 86.5875 17.84 87.8995 17.28 88.9875C16.72 90.0755 15.936 90.9075 14.928 91.4835C13.904 92.0435 12.712 92.3235 11.352 92.3235C10.712 92.3235 10.088 92.2675 9.48 92.1555ZM18.192 72.5246C18.192 73.3566 17.992 74.0126 17.592 74.4926C17.192 74.9566 16.672 75.1886 16.032 75.1886C15.472 75.1886 14.952 75.0366 14.472 74.7326C13.992 74.4126 13.616 73.9806 13.344 73.4366C13.056 72.8766 12.912 72.2606 12.912 71.5886C12.912 70.7726 13.12 70.1326 13.536 69.6686C13.936 69.2046 14.456 68.9726 15.096 68.9726C15.656 68.9726 16.176 69.1246 16.656 69.4286C17.12 69.7326 17.496 70.1566 17.784 70.7006C18.056 71.2446 18.192 71.8526 18.192 72.5246ZM13.752 63.1824C12.168 60.7984 10.76 58.8864 9.528 57.4464C8.296 56.0064 7.192 55.1984 6.216 55.0224C5.992 54.9904 5.848 54.9744 5.784 54.9744C5.272 54.9744 5.016 55.1984 5.016 55.6464C5.016 55.9664 5.16 56.2224 5.448 56.4144C5.72 56.5904 6.24 56.7504 7.008 56.8944L7.008 62.0544C4.816 61.5904 3.192 60.6624 2.136 59.2704C1.08 57.8624 0.551999 56.2544 0.551999 54.4464C0.551999 52.6864 0.935999 51.4064 1.704 50.6064C2.456 49.8064 3.432 49.4064 4.632 49.4064C4.856 49.4064 5.208 49.4384 5.688 49.5024C7.208 49.7744 8.64 50.5344 9.984 51.7824C11.328 53.0144 12.488 54.4864 13.464 56.1984V50.7024L17.76 51.4704V63.8784L13.752 63.1824ZM9.288 48.7007C6.664 48.2367 4.576 47.2767 3.024 45.8207C1.472 44.3647 0.696 42.4207 0.696 39.9887C0.696 37.9727 1.24 36.4847 2.328 35.5247C3.4 34.5487 4.888 34.0607 6.792 34.0607C7.608 34.0607 8.44 34.1407 9.288 34.3007C11.912 34.7647 14.008 35.7247 15.576 37.1807C17.128 38.6367 17.904 40.5807 17.904 43.0127C17.904 45.0287 17.368 46.5247 16.296 47.5007C15.208 48.4607 13.704 48.9407 11.784 48.9407C11.112 48.9407 10.28 48.8607 9.288 48.7007ZM9.288 39.5567C8.648 39.4287 8.072 39.3647 7.56 39.3647C6.344 39.3647 5.736 39.8687 5.736 40.8767C5.736 41.6767 6.048 42.2607 6.672 42.6287C7.28 42.9807 8.152 43.2607 9.288 43.4687C9.96 43.5967 10.536 43.6607 11.016 43.6607C11.608 43.6607 12.064 43.5487 12.384 43.3247C12.704 43.0847 12.864 42.6847 12.864 42.1247C12.864 41.3407 12.552 40.7727 11.928 40.4207C11.304 40.0527 10.424 39.7647 9.288 39.5567ZM13.752 33.6981C12.168 31.3141 10.76 29.4021 9.528 27.9621C8.296 26.5221 7.192 25.7141 6.216 25.5381C5.992 25.5061 5.848 25.4901 5.784 25.4901C5.272 25.4901 5.016 25.7141 5.016 26.1621C5.016 26.4821 5.16 26.7381 5.448 26.9301C5.72 27.1061 6.24 27.2661 7.008 27.4101L7.008 32.5701C4.816 32.1061 3.192 31.1781 2.136 29.7861C1.08 28.3781 0.551999 26.7701 0.551999 24.9621C0.551999 23.2021 0.935999 21.9221 1.704 21.1221C2.456 20.3221 3.432 19.9221 4.632 19.9221C4.856 19.9221 5.208 19.9541 5.688 20.0181C7.208 20.2901 8.64 21.0501 9.984 22.2981C11.328 23.5301 12.488 25.0021 13.464 26.7141L13.464 21.2181L17.76 21.9861V34.3941L13.752 33.6981ZM15.36 19.7923L10.92 19.0243L0.719999 10.0723L0.719999 4.33631L10.752 6.08831V4.36031L15.36 5.17631V6.90431L18 7.38431V12.7603L15.36 12.2803V19.7923ZM6.792 10.3363L10.752 13.6243V11.0323L6.792 10.3363Z"/>
</mask>
<path d="M15.432 117.648L15.2841 116.659L14.432 116.786V117.648H15.432ZM15.432 123.312H14.432V123.927L14.9815 124.205L15.432 123.312ZM18 124.608H19V123.993L18.4505 123.715L18 124.608ZM18 130.2L17.5232 131.079L19 131.88V130.2H18ZM1.008 120.984H0.0079999L0.0079999 121.579L0.531237 121.863L1.008 120.984ZM1.008 114.84L0.823376 113.857L0.0079999 114.01L0.0079999 114.84H1.008ZM18 111.648H19V110.443L17.8154 110.665L18 111.648ZM18 117.264L18.1479 118.253L19 118.126V117.264H18ZM11.424 118.224H12.424V117.066L11.2784 117.235L11.424 118.224ZM6.696 118.92L6.55036 117.931L3.41788 118.392L6.24697 119.814L6.696 118.92ZM11.424 121.296L10.975 122.19L12.424 122.918V121.296H11.424ZM14.432 117.648L14.432 123.312H16.432V117.648H14.432ZM14.9815 124.205L17.5495 125.501L18.4505 123.715L15.8825 122.419L14.9815 124.205ZM17 124.608V130.2H19V124.608H17ZM18.4768 129.321L1.48476 120.105L0.531237 121.863L17.5232 131.079L18.4768 129.321ZM2.008 120.984L2.008 114.84H0.0079999L0.0079999 120.984H2.008ZM1.19262 115.823L18.1846 112.631L17.8154 110.665L0.823376 113.857L1.19262 115.823ZM17 111.648L17 117.264H19L19 111.648H17ZM17.8521 116.275L15.2841 116.659L15.5799 118.637L18.1479 118.253L17.8521 116.275ZM11.2784 117.235L6.55036 117.931L6.84164 119.909L11.5696 119.213L11.2784 117.235ZM6.24697 119.814L10.975 122.19L11.873 120.402L7.14503 118.026L6.24697 119.814ZM12.424 121.296L12.424 118.224H10.424L10.424 121.296H12.424ZM1.008 102.229L1.1808 101.245L0.0079999 101.039L0.0079999 102.229H1.008ZM10.584 103.91L10.7683 102.927L10.7568 102.925L10.584 103.91ZM12.672 103.549L13.341 104.293L13.3505 104.284L13.3597 104.275L12.672 103.549ZM12.456 100.358L13.1631 99.6504L13.1569 99.6442L13.1506 99.6381L12.456 100.358ZM10.584 99.4695L10.7647 98.4859L10.7568 98.4845L10.584 99.4695ZM1.008 97.7895H0.0079999L0.0079999 98.6293L0.8352 98.7745L1.008 97.7895ZM1.008 92.4855L1.1808 91.5005L0.0079999 91.2948L0.0079999 92.4855H1.008ZM10.584 94.1655L10.4112 95.1505L10.4135 95.1508L10.584 94.1655ZM14.784 95.8935L14.1786 96.6895L14.1858 96.6949L14.784 95.8935ZM17.328 99.0375L16.4156 99.4469L16.4176 99.4513L17.328 99.0375ZM16.68 107.677L17.428 108.341L17.4332 108.335L16.68 107.677ZM10.584 109.213L10.7652 108.23L10.7568 108.229L10.584 109.213ZM1.008 107.534H0.0079999L0.0079999 108.373L0.8352 108.518L1.008 107.534ZM0.8352 103.214L10.4112 104.894L10.7568 102.925L1.1808 101.245L0.8352 103.214ZM10.3997 104.892C10.7191 104.952 11.0449 104.981 11.376 104.981V102.981C11.1631 102.981 10.9609 102.963 10.7683 102.927L10.3997 104.892ZM11.376 104.981C12.0996 104.981 12.7927 104.786 13.341 104.293L12.003 102.806C11.9113 102.889 11.7404 102.981 11.376 102.981V104.981ZM13.3597 104.275C13.9432 103.723 14.128 102.946 14.128 102.181H12.128C12.128 102.665 12.0088 102.8 11.9843 102.824L13.3597 104.275ZM14.128 102.181C14.128 101.208 13.8372 100.324 13.1631 99.6504L11.7489 101.065C11.9708 101.287 12.128 101.619 12.128 102.181H14.128ZM13.1506 99.6381C12.5148 99.0242 11.6963 98.6571 10.7647 98.486L10.4033 100.453C11.0397 100.57 11.4692 100.795 11.7614 101.077L13.1506 99.6381ZM10.7568 98.4845L1.1808 96.8045L0.8352 98.7745L10.4112 100.454L10.7568 98.4845ZM2.008 97.7895L2.008 92.4855H0.0079999L0.0079999 97.7895H2.008ZM0.8352 93.4705L10.4112 95.1505L10.7568 93.1805L1.1808 91.5005L0.8352 93.4705ZM10.4135 95.1508C11.9483 95.4165 13.1917 95.9388 14.1786 96.6894L15.3894 95.0976C14.1043 94.1202 12.5477 93.4905 10.7545 93.1801L10.4135 95.1508ZM14.1858 96.6949C15.1906 97.4449 15.9279 98.3599 16.4156 99.4469L18.2404 98.6281C17.6081 97.2191 16.6494 96.0381 15.3822 95.0921L14.1858 96.6949ZM16.4176 99.4513C16.9129 100.541 17.168 101.758 17.168 103.118H19.168C19.168 101.501 18.8631 99.9981 18.2384 98.6237L16.4176 99.4513ZM17.168 103.118C17.168 104.845 16.7213 106.11 15.9268 107.02L17.4332 108.335C18.6227 106.973 19.168 105.198 19.168 103.118H17.168ZM15.932 107.014C15.1552 107.889 14.023 108.382 12.384 108.382V110.382C14.457 110.382 16.1888 109.738 17.428 108.341L15.932 107.014ZM12.384 108.382C11.8554 108.382 11.316 108.332 10.7652 108.23L10.4028 110.197C11.068 110.319 11.7286 110.382 12.384 110.382V108.382ZM10.7568 108.229L1.1808 106.549L0.8352 108.518L10.4112 110.198L10.7568 108.229ZM2.008 107.534L2.008 102.229H0.0079999L0.0079999 107.534H2.008ZM9.48 92.1555L9.66118 91.172L9.64896 91.1699L9.48 92.1555ZM4.992 90.3315L4.41453 91.1479H4.41453L4.992 90.3315ZM1.944 86.8035L2.83645 86.3523L2.83236 86.3443L1.944 86.8035ZM1.584 78.2595L2.4866 78.69L2.49056 78.6817L2.49437 78.6733L1.584 78.2595ZM3.648 75.9075L4.14418 76.7758L4.15569 76.769L3.648 75.9075ZM6.816 75.1875H7.816V74.2262L6.85544 74.1883L6.816 75.1875ZM6.816 80.8035L7.20992 81.7226L7.816 81.4629V80.8035H6.816ZM6.048 81.5475L6.92589 82.0264L6.93444 82.0107L6.94243 81.9947L6.048 81.5475ZM6.768 85.4595L6.05257 86.1583L6.06089 86.1666L6.768 85.4595ZM9.48 86.7555L9.31335 87.7415L9.3156 87.7419L9.48 86.7555ZM11.952 80.3955L12.6352 79.6652L10.952 78.0907V80.3955H11.952ZM11.952 84.6435L11.7825 85.629L12.952 85.8302V84.6435H11.952ZM8.184 83.9955H7.184V84.8382L8.01451 84.981L8.184 83.9955ZM8.184 75.3315L8.35703 74.3466L7.184 74.1405V75.3315H8.184ZM13.512 76.2675L14.1168 75.4711L13.9238 75.3245L13.685 75.2826L13.512 76.2675ZM16.776 79.8915L17.6277 79.3674L17.6235 79.3607L16.776 79.8915ZM17.28 88.9875L18.1691 89.4451L17.28 88.9875ZM14.928 91.4835L15.4078 92.3609L15.416 92.3564L15.4241 92.3517L14.928 91.4835ZM9.64896 91.1699C8.10693 90.9055 6.75229 90.3517 5.56946 89.5151L4.41453 91.1479C5.85571 92.1673 7.49307 92.8295 9.31104 93.1411L9.64896 91.1699ZM5.56946 89.5151C4.38968 88.6806 3.48225 87.6296 2.83641 86.3523L1.05159 87.2547C1.84575 88.8254 2.97032 90.1264 4.41453 91.1479L5.56946 89.5151ZM2.83236 86.3443C2.17604 85.0745 1.84 83.6501 1.84 82.0515H-0.160001C-0.160001 83.9409 0.239963 85.6845 1.05564 87.2626L2.83236 86.3443ZM1.84 82.0515C1.84 80.6706 2.07057 79.5623 2.4866 78.69L0.681396 77.829C0.105425 79.0367 -0.160001 80.4564 -0.160001 82.0515H1.84ZM2.49437 78.6733C2.8987 77.7838 3.4528 77.1708 4.14414 76.7757L3.15186 75.0393C2.0512 75.6682 1.2293 76.6232 0.673633 77.8457L2.49437 78.6733ZM4.15569 76.769C4.85979 76.3541 5.71911 76.145 6.77656 76.1867L6.85544 74.1883C5.48089 74.134 4.2282 74.4049 3.14031 75.046L4.15569 76.769ZM5.816 75.1875L5.816 80.8035H7.816L7.816 75.1875H5.816ZM6.42208 79.8844C5.85138 80.1289 5.42661 80.5542 5.15357 81.1003L6.94243 81.9947C7.02139 81.8368 7.10862 81.7661 7.20992 81.7226L6.42208 79.8844ZM5.1701 81.0686C4.87449 81.6106 4.76 82.2373 4.76 82.8915H6.76C6.76 82.4577 6.83751 82.1884 6.92589 82.0264L5.1701 81.0686ZM4.76 82.8915C4.76 84.158 5.18551 85.2705 6.05262 86.1582L7.48338 84.7608C7.00649 84.2725 6.76 83.673 6.76 82.8915H4.76ZM6.06089 86.1666C6.90857 87.0143 8.01689 87.5224 9.31335 87.7415L9.64665 85.7695C8.67111 85.6046 7.97143 85.2487 7.47511 84.7524L6.06089 86.1666ZM9.3156 87.7419C9.8218 87.8263 10.2743 87.8755 10.656 87.8755V85.8755C10.4297 85.8755 10.0982 85.8447 9.6444 85.7691L9.3156 87.7419ZM10.656 87.8755C11.7811 87.8755 12.7946 87.5411 13.5025 86.7172C14.1854 85.9224 14.44 84.8356 14.44 83.6355H12.44C12.44 84.5954 12.2306 85.1286 11.9855 85.4138C11.7654 85.6699 11.3869 85.8755 10.656 85.8755V87.8755ZM14.44 83.6355C14.44 82.0967 13.8063 80.7608 12.6352 79.6652L11.2688 81.1258C12.0817 81.8862 12.44 82.7103 12.44 83.6355H14.44ZM10.952 80.3955V84.6435H12.952V80.3955H10.952ZM12.1215 83.658L8.35349 83.01L8.01451 84.981L11.7825 85.629L12.1215 83.658ZM9.184 83.9955V75.3315H7.184L7.184 83.9955H9.184ZM8.01097 76.3164L13.339 77.2524L13.685 75.2826L8.35703 74.3466L8.01097 76.3164ZM12.9072 77.0639C14.0673 77.9449 15.0754 79.0603 15.9285 80.4223L17.6235 79.3607C16.6526 77.8107 15.4847 76.5101 14.1168 75.4711L12.9072 77.0639ZM15.9243 80.4156C16.7087 81.6901 17.12 83.2223 17.12 85.0515H19.12C19.12 82.9127 18.6353 81.0049 17.6277 79.3674L15.9243 80.4156ZM17.12 85.0515C17.12 86.468 16.8618 87.6149 16.3909 88.5299L18.1691 89.4451C18.8182 88.1841 19.12 86.707 19.12 85.0515H17.12ZM16.3909 88.5299C15.9144 89.4556 15.2626 90.1405 14.4319 90.6153L15.4241 92.3517C16.6094 91.6745 17.5256 90.6954 18.1691 89.4451L16.3909 88.5299ZM14.4482 90.6061C13.594 91.0733 12.5722 91.3235 11.352 91.3235V93.3235C12.8518 93.3235 14.214 93.0137 15.4078 92.3609L14.4482 90.6061ZM11.352 91.3235C10.7706 91.3235 10.2073 91.2727 9.66116 91.172L9.29884 93.139C9.96866 93.2623 10.6534 93.3235 11.352 93.3235V91.3235ZM17.592 74.4926L18.3494 75.1456L18.3549 75.1392L18.3602 75.1328L17.592 74.4926ZM14.472 74.7326L13.9173 75.5647L13.927 75.5712L13.9369 75.5774L14.472 74.7326ZM13.344 73.4366L14.2385 72.9894L14.2333 72.9793L13.344 73.4366ZM13.536 69.6686L14.2806 70.3362L14.2871 70.3289L14.2934 70.3216L13.536 69.6686ZM16.656 69.4286L17.204 68.5922L17.1976 68.5879L17.1911 68.5838L16.656 69.4286ZM17.784 70.7006L18.6784 70.2534L18.6732 70.243L18.6678 70.2327L17.784 70.7006ZM17.192 72.5246C17.192 73.2008 17.0307 73.6042 16.8238 73.8524L18.3602 75.1328C18.9533 74.4211 19.192 73.5125 19.192 72.5246H17.192ZM16.8346 73.8397C16.634 74.0723 16.3959 74.1886 16.032 74.1886V76.1886C16.9481 76.1886 17.75 75.8409 18.3494 75.1456L16.8346 73.8397ZM16.032 74.1886C15.6644 74.1886 15.3295 74.092 15.0071 73.8878L13.9369 75.5774C14.5745 75.9812 15.2796 76.1886 16.032 76.1886V74.1886ZM15.0267 73.9006C14.6994 73.6824 14.437 73.3865 14.2384 72.9894L12.4496 73.8838C12.795 74.5747 13.2846 75.1428 13.9173 75.5647L15.0267 73.9006ZM14.2333 72.9793C14.0229 72.5702 13.912 72.1125 13.912 71.5886H11.912C11.912 72.4087 12.0891 73.1831 12.4547 73.894L14.2333 72.9793ZM13.912 71.5886C13.912 70.941 14.0746 70.5659 14.2806 70.3362L12.7914 69.0011C12.1654 69.6993 11.912 70.6042 11.912 71.5886H13.912ZM14.2934 70.3216C14.494 70.0889 14.7321 69.9726 15.096 69.9726V67.9726C14.1799 67.9726 13.378 68.3203 12.7786 69.0157L14.2934 70.3216ZM15.096 69.9726C15.4636 69.9726 15.7985 70.0692 16.1209 70.2734L17.1911 68.5838C16.5535 68.18 15.8484 67.9726 15.096 67.9726V69.9726ZM16.108 70.2651C16.4157 70.4667 16.6824 70.757 16.9002 71.1685L18.6678 70.2327C18.3096 69.5562 17.8243 68.9985 17.204 68.5922L16.108 70.2651ZM16.8896 71.1478C17.0851 71.5389 17.192 71.9914 17.192 72.5246H19.192C19.192 71.7139 19.0269 70.9503 18.6784 70.2534L16.8896 71.1478ZM13.752 63.1824L12.9191 63.7358L13.1571 64.0941L13.5809 64.1677L13.752 63.1824ZM9.528 57.4464L8.76815 58.0965L9.528 57.4464ZM6.216 55.0224L6.39346 54.0383L6.3755 54.0351L6.35742 54.0325L6.216 55.0224ZM5.448 56.4144L4.89325 57.2466L4.90475 57.254L5.448 56.4144ZM7.008 56.8944H8.008V56.0645L7.19229 55.9116L7.008 56.8944ZM7.008 62.0544L6.80091 63.0328L8.008 63.2883V62.0544H7.008ZM2.136 59.2704L1.33599 59.8704L1.33931 59.8748L2.136 59.2704ZM1.704 50.6064L2.42543 51.299L2.43263 51.2913L1.704 50.6064ZM5.688 49.5024L5.86415 48.5181L5.84223 48.5142L5.82016 48.5112L5.688 49.5024ZM9.984 51.7824L9.30353 52.5152L9.30828 52.5196L9.984 51.7824ZM13.464 56.1984L12.5953 56.6937L14.464 59.9717L14.464 56.1984H13.464ZM13.464 50.7024L13.64 49.718L12.464 49.5078V50.7024H13.464ZM17.76 51.4704H18.76V50.6334L17.936 50.486L17.76 51.4704ZM17.76 63.8784L17.5889 64.8637L18.76 65.0671V63.8784H17.76ZM14.5849 62.629C12.9886 60.2265 11.5558 58.2783 10.2879 56.7963L8.76815 58.0965C9.96424 59.4946 11.3474 61.3704 12.9191 63.7358L14.5849 62.629ZM10.2879 56.7963C9.02391 55.319 7.72659 54.2787 6.39346 54.0383L6.03853 56.0066C6.65741 56.1182 7.56809 56.6939 8.76815 58.0965L10.2879 56.7963ZM6.35742 54.0325C6.15379 54.0034 5.93356 53.9744 5.784 53.9744V55.9744C5.7636 55.9744 5.75612 55.9734 5.7703 55.9745C5.78167 55.9754 5.80084 55.9771 5.82957 55.9803C5.88718 55.9867 5.96787 55.9971 6.07458 56.0124L6.35742 54.0325ZM5.784 53.9744C5.40422 53.9744 4.93262 54.0546 4.5495 54.3899C4.14087 54.7474 4.016 55.231 4.016 55.6464H6.016C6.016 55.6273 6.01899 55.6546 5.99849 55.7084C5.97571 55.7682 5.93257 55.8372 5.8665 55.895C5.73938 56.0062 5.65178 55.9744 5.784 55.9744V53.9744ZM4.016 55.6464C4.016 56.3319 4.35403 56.887 4.8933 57.2465L6.0027 55.5824C5.98396 55.5699 5.9777 55.5631 5.97884 55.5643C5.98039 55.5659 5.98747 55.5738 5.99558 55.5882C6.00381 55.6028 6.00973 55.6182 6.01314 55.6319C6.01645 55.6451 6.016 55.651 6.016 55.6464H4.016ZM4.90475 57.254C5.35949 57.5482 6.0588 57.7339 6.82371 57.8773L7.19229 55.9116C6.4212 55.767 6.08051 55.6326 5.99125 55.5749L4.90475 57.254ZM6.008 56.8944L6.008 62.0544H8.008L8.008 56.8944H6.008ZM7.21509 61.0761C5.19012 60.6475 3.80632 59.8177 2.93269 58.6661L1.33931 59.8748C2.57768 61.5072 4.44188 62.5334 6.80091 63.0328L7.21509 61.0761ZM2.936 58.6704C2.01358 57.4405 1.552 56.0444 1.552 54.4464H-0.448001C-0.448001 56.4645 0.146421 58.2843 1.336 59.8704L2.936 58.6704ZM1.552 54.4464C1.552 52.7991 1.91641 51.8292 2.42539 51.299L0.982612 49.9139C-0.0444086 50.9837 -0.448001 52.5737 -0.448001 54.4464H1.552ZM2.43263 51.2913C2.97695 50.7123 3.67944 50.4064 4.632 50.4064V48.4064C3.18456 48.4064 1.93505 48.9006 0.975372 49.9215L2.43263 51.2913ZM4.632 50.4064C4.7852 50.4064 5.08142 50.4304 5.55584 50.4937L5.82016 48.5112C5.33458 48.4465 4.92679 48.4064 4.632 48.4064V50.4064ZM5.51185 50.4868C6.81012 50.7191 8.07329 51.3728 9.30355 52.5152L10.6645 51.0496C9.2067 49.696 7.60588 48.8298 5.86415 48.5181L5.51185 50.4868ZM9.30828 52.5196C10.5698 53.676 11.6665 55.0646 12.5953 56.6937L14.3327 55.7032C13.3095 53.9083 12.0862 52.3529 10.6597 51.0453L9.30828 52.5196ZM14.464 56.1984V50.7024H12.464V56.1984H14.464ZM13.288 51.6868L17.584 52.4548L17.936 50.486L13.64 49.718L13.288 51.6868ZM16.76 51.4704V63.8784H18.76V51.4704H16.76ZM17.9311 62.8932L13.9231 62.1972L13.5809 64.1677L17.5889 64.8637L17.9311 62.8932ZM9.288 48.7007L9.11387 49.6854L9.12131 49.6867L9.12877 49.6879L9.288 48.7007ZM3.024 45.8207L3.70819 45.0914L3.024 45.8207ZM2.328 35.5247L2.98962 36.2745L2.99546 36.2694L3.00122 36.2641L2.328 35.5247ZM9.288 34.3007L9.10258 35.2834L9.11387 35.2854L9.288 34.3007ZM15.576 37.1807L16.2602 36.4514L16.2565 36.4479L15.576 37.1807ZM16.296 47.5007L16.9576 48.2505L16.9635 48.2454L16.9692 48.2401L16.296 47.5007ZM9.288 39.5567L9.09188 40.5373L9.09988 40.5389L9.1079 40.5403L9.288 39.5567ZM6.672 42.6287L6.164 43.4901L6.17096 43.4941L6.672 42.6287ZM9.288 43.4687L9.47512 42.4863L9.4681 42.485L9.288 43.4687ZM12.384 43.3247L12.9575 44.1439L12.9709 44.1345L12.984 44.1247L12.384 43.3247ZM11.928 40.4207L11.42 41.2821L11.4283 41.2869L11.4367 41.2917L11.928 40.4207ZM9.46213 47.716C6.98117 47.2773 5.08668 46.3846 3.70819 45.0914L2.33981 46.55C4.06532 48.1688 6.34683 49.1961 9.11387 49.6854L9.46213 47.716ZM3.70819 45.0914C2.38724 43.8521 1.696 42.1877 1.696 39.9887H-0.304C-0.304 42.6537 0.556757 44.8772 2.33981 46.55L3.70819 45.0914ZM1.696 39.9887C1.696 38.1436 2.19067 36.9795 2.98962 36.2745L1.66638 34.7748C0.289334 35.9899 -0.304 37.8018 -0.304 39.9887H1.696ZM3.00122 36.2641C3.83748 35.5028 5.05711 35.0607 6.792 35.0607V33.0607C4.71889 33.0607 2.96251 33.5946 1.65478 34.7852L3.00122 36.2641ZM6.792 35.0607C7.54234 35.0607 8.31223 35.1342 9.10259 35.2833L9.47341 33.318C8.56777 33.1471 7.67366 33.0607 6.792 33.0607V35.0607ZM9.11387 35.2854C11.5948 35.7241 13.4996 36.6172 14.8955 37.9135L16.2565 36.4479C14.5164 34.8322 12.2292 33.8053 9.46213 33.316L9.11387 35.2854ZM14.8918 37.91C16.2128 39.1492 16.904 40.8137 16.904 43.0127H18.904C18.904 40.3477 18.0432 38.1241 16.2602 36.4514L14.8918 37.91ZM16.904 43.0127C16.904 44.8607 16.4153 46.0397 15.6228 46.7612L16.9692 48.2401C18.3207 47.0097 18.904 45.1966 18.904 43.0127H16.904ZM15.6344 46.7508C14.7813 47.5035 13.5404 47.9407 11.784 47.9407V49.9407C13.8676 49.9407 15.6347 49.4178 16.9576 48.2505L15.6344 46.7508ZM11.784 47.9407C11.1845 47.9407 10.4097 47.8687 9.44723 47.7134L9.12877 49.6879C10.1503 49.8527 11.0395 49.9407 11.784 49.9407V47.9407ZM9.48412 38.5761C8.7962 38.4385 8.15291 38.3647 7.56 38.3647V40.3647C7.99109 40.3647 8.49979 40.4188 9.09188 40.5373L9.48412 38.5761ZM7.56 38.3647C6.83874 38.3647 6.11176 38.5103 5.55381 38.9728C4.95993 39.4651 4.736 40.164 4.736 40.8767H6.736C6.736 40.5814 6.81606 40.5243 6.83019 40.5126C6.88024 40.4711 7.06525 40.3647 7.56 40.3647V38.3647ZM4.736 40.8767C4.736 41.9861 5.19861 42.9207 6.16401 43.4901L7.17998 41.7673C6.89739 41.6007 6.736 41.3673 6.736 40.8767H4.736ZM6.17096 43.4941C6.9218 43.9288 7.92198 44.2352 9.10789 44.4523L9.4681 42.485C8.38202 42.2862 7.6382 42.0326 7.17304 41.7633L6.17096 43.4941ZM9.10089 44.451C9.81089 44.5863 10.453 44.6607 11.016 44.6607V42.6607C10.619 42.6607 10.1091 42.6071 9.47511 42.4864L9.10089 44.451ZM11.016 44.6607C11.7138 44.6607 12.4031 44.532 12.9575 44.1439L11.8105 42.5055C11.7249 42.5654 11.5022 42.6607 11.016 42.6607V44.6607ZM12.984 44.1247C13.6466 43.6277 13.864 42.8653 13.864 42.1247H11.864C11.864 42.3138 11.8364 42.421 11.8155 42.4733C11.7982 42.5166 11.786 42.5232 11.784 42.5247L12.984 44.1247ZM13.864 42.1247C13.864 41.0214 13.3922 40.0985 12.4193 39.5497L11.4367 41.2917C11.7118 41.4469 11.864 41.66 11.864 42.1247H13.864ZM12.436 39.5593C11.6687 39.1068 10.6594 38.7912 9.4681 38.573L9.1079 40.5403C10.1886 40.7382 10.9393 40.9985 11.42 41.2821L12.436 39.5593ZM13.752 33.6981L12.9191 34.2515L13.1571 34.6097L13.5809 34.6833L13.752 33.6981ZM9.528 27.9621L8.76815 28.6122L9.528 27.9621ZM6.216 25.5381L6.39346 24.5539L6.3755 24.5507L6.35742 24.5481L6.216 25.5381ZM5.448 26.9301L4.89325 27.7622L4.90475 27.7696L5.448 26.9301ZM7.008 27.4101H8.008V26.5801L7.19229 26.4272L7.008 27.4101ZM7.008 32.5701L6.80091 33.5484L8.008 33.8039V32.5701H7.008ZM2.136 29.7861L1.33599 30.3861L1.33931 30.3904L2.136 29.7861ZM1.704 21.1221L2.42543 21.8146L2.43263 21.807L1.704 21.1221ZM5.688 20.0181L5.86415 19.0337L5.84223 19.0298L5.82016 19.0268L5.688 20.0181ZM9.984 22.2981L9.30353 23.0309L9.30828 23.0352L9.984 22.2981ZM13.464 26.7141L12.5953 27.2093L14.464 30.4873V26.7141H13.464ZM13.464 21.2181L13.64 20.2337L12.464 20.0234V21.2181H13.464ZM17.76 21.9861H18.76V21.149L17.936 21.0017L17.76 21.9861ZM17.76 34.3941L17.5889 35.3793L18.76 35.5827V34.3941H17.76ZM14.5849 33.1447C12.9886 30.7421 11.5558 28.7939 10.2879 27.312L8.76815 28.6122C9.96424 30.0102 11.3474 31.886 12.9191 34.2515L14.5849 33.1447ZM10.2879 27.312C9.02391 25.8346 7.72659 24.7943 6.39346 24.5539L6.03853 26.5222C6.65741 26.6338 7.56809 27.2095 8.76815 28.6122L10.2879 27.312ZM6.35742 24.5481C6.15379 24.519 5.93356 24.4901 5.784 24.4901V26.4901C5.7636 26.4901 5.75612 26.489 5.7703 26.4901C5.78167 26.491 5.80084 26.4928 5.82957 26.4959C5.88718 26.5023 5.96787 26.5128 6.07458 26.528L6.35742 24.5481ZM5.784 24.4901C5.40422 24.4901 4.93262 24.5703 4.5495 24.9055C4.14087 25.263 4.016 25.7466 4.016 26.1621H6.016C6.016 26.1429 6.01899 26.1702 5.99849 26.2241C5.97571 26.2838 5.93257 26.3528 5.8665 26.4106C5.73938 26.5219 5.65178 26.4901 5.784 26.4901V24.4901ZM4.016 26.1621C4.016 26.8475 4.35403 27.4026 4.8933 27.7621L6.0027 26.098C5.98396 26.0855 5.9777 26.0787 5.97884 26.0799C5.98039 26.0815 5.98747 26.0894 5.99558 26.1038C6.00381 26.1184 6.00973 26.1339 6.01314 26.1475C6.01645 26.1608 6.016 26.1666 6.016 26.1621H4.016ZM4.90475 27.7696C5.35949 28.0639 6.0588 28.2495 6.82371 28.3929L7.19229 26.4272C6.4212 26.2826 6.08051 26.1482 5.99125 26.0905L4.90475 27.7696ZM6.008 27.4101L6.008 32.5701H8.008V27.4101H6.008ZM7.21509 31.5917C5.19012 31.1631 3.80632 30.3333 2.93269 29.1817L1.33931 30.3904C2.57768 32.0228 4.44188 33.049 6.80091 33.5484L7.21509 31.5917ZM2.936 29.1861C2.01358 27.9562 1.552 26.56 1.552 24.9621H-0.448001C-0.448001 26.9801 0.146421 28.8 1.336 30.3861L2.936 29.1861ZM1.552 24.9621C1.552 23.3148 1.91641 22.3448 2.42539 21.8146L0.982612 20.4295C-0.0444086 21.4993 -0.448001 23.0894 -0.448001 24.9621H1.552ZM2.43263 21.807C2.97695 21.2279 3.67944 20.9221 4.632 20.9221V18.9221C3.18456 18.9221 1.93505 19.4162 0.975372 20.4371L2.43263 21.807ZM4.632 20.9221C4.7852 20.9221 5.08142 20.946 5.55584 21.0093L5.82016 19.0268C5.33458 18.9621 4.92679 18.9221 4.632 18.9221V20.9221ZM5.51185 21.0024C6.81012 21.2347 8.07329 21.8885 9.30355 23.0309L10.6645 21.5653C9.2067 20.2116 7.60588 19.3454 5.86415 19.0337L5.51185 21.0024ZM9.30828 23.0352C10.5698 24.1917 11.6665 25.5802 12.5953 27.2093L14.3327 26.2188C13.3095 24.4239 12.0862 22.8685 10.6597 21.5609L9.30828 23.0352ZM14.464 26.7141L14.464 21.2181H12.464L12.464 26.7141H14.464ZM13.288 22.2025L17.584 22.9705L17.936 21.0017L13.64 20.2337L13.288 22.2025ZM16.76 21.9861V34.3941H18.76V21.9861H16.76ZM17.9311 33.4088L13.9231 32.7128L13.5809 34.6833L17.5889 35.3793L17.9311 33.4088ZM15.36 19.7923L15.1896 20.7777L16.36 20.9801V19.7923H15.36ZM10.92 19.0243L10.2604 19.7759L10.472 19.9617L10.7496 20.0097L10.92 19.0243ZM0.719999 10.0723H-0.280001L-0.280001 10.5252L0.0603686 10.8239L0.719999 10.0723ZM0.719999 4.33631L0.892037 3.35122L-0.280001 3.14654L-0.280001 4.33631H0.719999ZM10.752 6.08831L10.58 7.0734L11.752 7.27808V6.08831H10.752ZM10.752 4.36031L10.9264 3.37563L9.752 3.16767V4.36031H10.752ZM15.36 5.17632H16.36V4.33784L15.5344 4.19164L15.36 5.17632ZM15.36 6.90431H14.36V7.73889L15.1811 7.88818L15.36 6.90431ZM18 7.38431H19V6.54974L18.1789 6.40044L18 7.38431ZM18 12.7603L17.8211 13.7442L19 13.9585V12.7603H18ZM15.36 12.2803L15.5389 11.2964L14.36 11.0821V12.2803H15.36ZM6.792 10.3363L6.9651 9.35141L3.25504 8.69934L6.15319 11.1057L6.792 10.3363ZM10.752 13.6243L10.1132 14.3937L11.752 15.7544V13.6243H10.752ZM10.752 11.0323H11.752V10.1927L10.9251 10.0474L10.752 11.0323ZM15.5304 18.8069L11.0904 18.0389L10.7496 20.0097L15.1896 20.7777L15.5304 18.8069ZM11.5796 18.2727L1.37963 9.32072L0.0603686 10.8239L10.2604 19.7759L11.5796 18.2727ZM1.72 10.0723L1.72 4.33631H-0.280001L-0.280001 10.0723H1.72ZM0.547962 5.3214L10.58 7.0734L10.924 5.10322L0.892037 3.35122L0.547962 5.3214ZM11.752 6.08831V4.36031H9.752V6.08831H11.752ZM10.5776 5.34499L15.1856 6.16099L15.5344 4.19164L10.9264 3.37563L10.5776 5.34499ZM14.36 5.17632V6.90431H16.36V5.17632H14.36ZM15.1811 7.88818L17.8211 8.36818L18.1789 6.40044L15.5389 5.92044L15.1811 7.88818ZM17 7.38431V12.7603H19V7.38431H17ZM18.1789 11.7764L15.5389 11.2964L15.1811 13.2642L17.8211 13.7442L18.1789 11.7764ZM14.36 12.2803V19.7923H16.36L16.36 12.2803H14.36ZM6.15319 11.1057L10.1132 14.3937L11.3908 12.8549L7.43081 9.56695L6.15319 11.1057ZM11.752 13.6243V11.0323H9.752V13.6243H11.752ZM10.9251 10.0474L6.9651 9.35141L6.6189 11.3212L10.5789 12.0172L10.9251 10.0474Z" fill="#CEFF67" mask="url(#path-4-outside-1_180_3502)"/>
</g>
<defs>
<filter id="filter0_d_180_3502" x="28" y="1" width="205" height="134" filterUnits="userSpaceOnUse" color-interpolation-filters="sRGB">
<feFlood flood-opacity="0" result="BackgroundImageFix"/>
<feColorMatrix in="SourceAlpha" type="matrix" values="0 0 0 0 0 0 0 0 0 0 0 0 0 0 0 0 0 0 127 0" result="hardAlpha"/>
<feOffset dx="2" dy="2"/>
<feComposite in2="hardAlpha" operator="out"/>
<feColorMatrix type="matrix" values="0 0 0 0 0.807843 0 0 0 0 1 0 0 0 0 0.403922 0 0 0 1 0"/>
<feBlend mode="normal" in2="BackgroundImageFix" result="effect1_dropShadow_180_3502"/>
<feBlend mode="normal" in="SourceGraphic" in2="effect1_dropShadow_180_3502" result="shape"/>
</filter>
<filter id="filter1_d_180_3502" x="0.552002" y="4.33632" width="19.64" height="127.864" filterUnits="userSpaceOnUse" color-interpolation-filters="sRGB">
<feFlood flood-opacity="0" result="BackgroundImageFix"/>
<feColorMatrix in="SourceAlpha" type="matrix" values="0 0 0 0 0 0 0 0 0 0 0 0 0 0 0 0 0 0 127 0" result="hardAlpha"/>
<feOffset dx="2" dy="2"/>
<feComposite in2="hardAlpha" operator="out"/>
<feColorMatrix type="matrix" values="0 0 0 0 0.807843 0 0 0 0 1 0 0 0 0 0.403922 0 0 0 1 0"/>
<feBlend mode="normal" in2="BackgroundImageFix" result="effect1_dropShadow_180_3502"/>
<feBlend mode="normal" in="SourceGraphic" in2="effect1_dropShadow_180_3502" result="shape"/>
</filter>
<linearGradient id="paint0_linear_180_3502" x1="231" y1="1.00001" x2="73.864" y2="33.9303" gradientUnits="userSpaceOnUse">
<stop offset="0.51262" stop-color="#C0FF3D"/>
<stop offset="1" stop-color="#CEFF67"/>
</linearGradient>
</defs>
</svg>
