<svg width="18" height="18" viewBox="0 0 18 18" fill="none" xmlns="http://www.w3.org/2000/svg">
<path d="M9.88895 2.38499C9.88895 2.61861 9.81967 2.847 9.68987 3.04125C9.56007 3.23551 9.37559 3.38691 9.15974 3.47632C8.9439 3.56572 8.70639 3.58912 8.47725 3.54354C8.24811 3.49796 8.03763 3.38546 7.87243 3.22026C7.70723 3.05505 7.59472 2.84458 7.54914 2.61544C7.50356 2.3863 7.52696 2.14879 7.61636 1.93294C7.70577 1.7171 7.85717 1.53261 8.05143 1.40281C8.24568 1.27301 8.47407 1.20374 8.7077 1.20374C9.02098 1.20374 9.32144 1.32819 9.54296 1.54972C9.76449 1.77124 9.88895 2.0717 9.88895 2.38499ZM8.7077 4.49999C8.46381 4.49999 8.22542 4.57238 8.02272 4.70799C7.82002 4.8436 7.66213 5.03633 7.56906 5.26175C7.47599 5.48717 7.45193 5.73515 7.49992 5.97426C7.54791 6.21338 7.66579 6.43286 7.83864 6.60492C8.01148 6.77697 8.23151 6.89385 8.47084 6.94075C8.71017 6.98764 8.95803 6.96244 9.18302 6.86834C9.40802 6.77424 9.60002 6.61547 9.7347 6.41215C9.86938 6.20883 9.94068 5.97011 9.93957 5.72624C9.93808 5.4005 9.80764 5.08861 9.57678 4.8588C9.34592 4.629 9.03344 4.49998 8.7077 4.49999ZM8.7077 7.79624C8.45515 7.79624 8.20828 7.87112 7.9983 8.01143C7.78832 8.15173 7.62466 8.35115 7.52802 8.58447C7.43137 8.81779 7.40609 9.07453 7.45536 9.32222C7.50462 9.56991 7.62623 9.79742 7.80481 9.976C7.98338 10.1546 8.2109 10.2762 8.45859 10.3255C8.70628 10.3747 8.96302 10.3494 9.19633 10.2528C9.42965 10.1561 9.62907 9.99248 9.76938 9.7825C9.90968 9.57252 9.98457 9.32565 9.98457 9.07311C9.98532 8.90522 9.9528 8.73885 9.88889 8.58359C9.82499 8.42834 9.73096 8.28728 9.61224 8.16856C9.49353 8.04985 9.35247 7.95582 9.19721 7.89192C9.04196 7.82801 8.87559 7.79549 8.7077 7.79624ZM8.7077 11.1712C8.46541 11.1723 8.22888 11.2452 8.02797 11.3806C7.82705 11.516 7.67076 11.7079 7.57881 11.9321C7.48686 12.1563 7.46337 12.4026 7.51132 12.6401C7.55927 12.8776 7.6765 13.0956 7.84822 13.2665C8.01993 13.4375 8.23844 13.5537 8.47615 13.6006C8.71387 13.6474 8.96014 13.6228 9.18388 13.5298C9.40762 13.4369 9.5988 13.2797 9.7333 13.0782C9.86779 12.8766 9.93957 12.6398 9.93957 12.3975C9.93957 12.236 9.90767 12.0761 9.84569 11.9269C9.78372 11.7778 9.69289 11.6423 9.57842 11.5284C9.46396 11.4145 9.32811 11.3243 9.17869 11.263C9.02926 11.2017 8.8692 11.1705 8.7077 11.1712ZM8.7077 14.5462C8.47407 14.5462 8.24568 14.6155 8.05143 14.7453C7.85717 14.8751 7.70577 15.0596 7.61636 15.2754C7.52696 15.4913 7.50356 15.7288 7.54914 15.9579C7.59472 16.1871 7.70723 16.3976 7.87243 16.5628C8.03763 16.728 8.24811 16.8405 8.47725 16.886C8.70639 16.9316 8.9439 16.9082 9.15974 16.8188C9.37559 16.7294 9.56007 16.578 9.68987 16.3838C9.81967 16.1895 9.88895 15.9611 9.88895 15.7275C9.88895 15.4142 9.76449 15.1137 9.54296 14.8922C9.32144 14.6707 9.02098 14.5462 8.7077 14.5462ZM11.9646 4.34249C11.6893 4.34137 11.4199 4.42205 11.1906 4.57429C10.9612 4.72653 10.7823 4.94346 10.6764 5.19757C10.5706 5.45167 10.5426 5.73149 10.596 6.00153C10.6494 6.27156 10.7819 6.51964 10.9765 6.71429C11.1712 6.90893 11.4192 7.04137 11.6893 7.0948C11.9593 7.14823 12.2391 7.12024 12.4932 7.01439C12.7473 6.90853 12.9643 6.72958 13.1165 6.50024C13.2688 6.2709 13.3494 6.0015 13.3483 5.72624C13.3468 5.3597 13.2006 5.0086 12.9414 4.74941C12.6822 4.49023 12.3311 4.34397 11.9646 4.34249ZM11.9646 7.63874C11.6809 7.63874 11.4036 7.72286 11.1677 7.88047C10.9318 8.03808 10.7479 8.2621 10.6394 8.5242C10.5308 8.7863 10.5024 9.0747 10.5578 9.35294C10.6131 9.63118 10.7497 9.88677 10.9503 10.0874C11.1509 10.288 11.4065 10.4246 11.6847 10.4799C11.963 10.5353 12.2514 10.5069 12.5135 10.3983C12.7756 10.2897 12.9996 10.1059 13.1572 9.87001C13.3148 9.63412 13.3989 9.3568 13.3989 9.07311C13.3989 8.69269 13.2478 8.32785 12.9788 8.05885C12.7098 7.78986 12.345 7.63874 11.9646 7.63874ZM11.9646 11.0137C11.6909 11.0137 11.4234 11.0949 11.1958 11.2469C10.9682 11.399 10.7909 11.6151 10.6862 11.8679C10.5814 12.1208 10.554 12.399 10.6074 12.6674C10.6608 12.9359 10.7926 13.1824 10.9861 13.3759C11.1796 13.5695 11.4262 13.7013 11.6946 13.7546C11.963 13.808 12.2413 13.7806 12.4941 13.6759C12.747 13.5712 12.9631 13.3938 13.1151 13.1663C13.2672 12.9387 13.3483 12.6712 13.3483 12.3975C13.3468 12.0309 13.2006 11.6798 12.9414 11.4207C12.6822 11.1615 12.3311 11.0152 11.9646 11.0137ZM15.3002 7.48124C14.9847 7.47789 14.6752 7.5684 14.4112 7.74127C14.1473 7.91414 13.9406 8.16158 13.8175 8.45214C13.6944 8.74271 13.6605 9.0633 13.72 9.3732C13.7795 9.68309 13.9298 9.96831 14.1517 10.1926C14.3737 10.417 14.6573 10.5702 14.9665 10.6331C15.2757 10.6959 15.5967 10.6653 15.8885 10.5454C16.1804 10.4254 16.43 10.2214 16.6057 9.95924C16.7814 9.6971 16.8752 9.38867 16.8752 9.07311C16.8767 8.65338 16.7118 8.25016 16.4166 7.95179C16.1214 7.65342 15.7199 7.48421 15.3002 7.48124ZM5.41707 4.66874C5.2041 4.66762 4.99561 4.72983 4.81807 4.84745C4.64053 4.96508 4.50196 5.13282 4.41994 5.32936C4.33793 5.5259 4.31618 5.74239 4.35746 5.95132C4.39873 6.16025 4.50117 6.3522 4.65176 6.50279C4.80235 6.65339 4.9943 6.75582 5.20324 6.7971C5.41217 6.83837 5.62865 6.81663 5.8252 6.73461C6.02174 6.6526 6.18948 6.51402 6.3071 6.33648C6.42473 6.15894 6.48693 5.95045 6.48582 5.73748C6.48582 5.45403 6.37322 5.18219 6.17279 4.98176C5.97236 4.78134 5.70052 4.66874 5.41707 4.66874ZM5.41707 7.96498C5.19457 7.96498 4.97706 8.03097 4.79205 8.15458C4.60705 8.2782 4.46285 8.4539 4.37771 8.65947C4.29256 8.86503 4.27028 9.09123 4.31369 9.30946C4.3571 9.52769 4.46424 9.72815 4.62158 9.88548C4.77891 10.0428 4.97937 10.15 5.19759 10.1934C5.41582 10.2368 5.64202 10.2145 5.84759 10.1293C6.05316 10.0442 6.22886 9.90001 6.35247 9.715C6.47609 9.53 6.54207 9.31249 6.54207 9.08998C6.54207 8.79162 6.42354 8.50547 6.21257 8.29449C6.00159 8.08351 5.71544 7.96498 5.41707 7.96498ZM5.41707 11.34C5.20569 11.34 4.99906 11.4027 4.8233 11.5201C4.64755 11.6375 4.51057 11.8045 4.42967 11.9997C4.34878 12.195 4.32762 12.4099 4.36886 12.6172C4.41009 12.8246 4.51188 13.015 4.66135 13.1645C4.81082 13.3139 5.00125 13.4157 5.20857 13.457C5.41589 13.4982 5.63077 13.477 5.82606 13.3961C6.02135 13.3152 6.18827 13.1783 6.3057 13.0025C6.42314 12.8267 6.48582 12.6201 6.48582 12.4087C6.48582 12.1253 6.37322 11.8534 6.17279 11.653C5.97236 11.4526 5.70052 11.34 5.41707 11.34ZM2.12082 8.11124C1.93034 8.11012 1.74383 8.16559 1.58491 8.2706C1.42599 8.37561 1.30183 8.52544 1.22816 8.7011C1.1545 8.87676 1.13465 9.07034 1.17112 9.25729C1.2076 9.44425 1.29876 9.61616 1.43306 9.75125C1.56735 9.88633 1.73873 9.9785 1.92546 10.0161C2.1122 10.0536 2.30589 10.0349 2.48198 9.96229C2.65807 9.88966 2.80862 9.76638 2.91457 9.60808C3.02051 9.44978 3.07707 9.26359 3.07707 9.07311C3.07781 8.94706 3.05363 8.82211 3.0059 8.70544C2.95818 8.58877 2.88786 8.48269 2.79899 8.3933C2.71012 8.30391 2.60445 8.23297 2.48807 8.18456C2.37168 8.13615 2.24687 8.11123 2.12082 8.11124Z" fill="#00A9B9"/>
</svg>
