<svg width="114" height="18" viewBox="0 0 114 18" fill="none" xmlns="http://www.w3.org/2000/svg">
<path d="M31.6578 11.46C31.7178 11.46 31.7695 11.4833 31.8128 11.53L32.2328 11.99C31.9395 12.3367 31.5811 12.605 31.1578 12.795C30.7378 12.985 30.2311 13.08 29.6378 13.08C29.1178 13.08 28.6461 12.99 28.2228 12.81C27.8028 12.63 27.4428 12.3783 27.1428 12.055C26.8461 11.7317 26.6161 11.345 26.4528 10.895C26.2895 10.445 26.2078 9.95 26.2078 9.41C26.2078 8.87 26.2928 8.375 26.4628 7.925C26.6361 7.475 26.8778 7.08833 27.1878 6.765C27.4978 6.44167 27.8678 6.19 28.2978 6.01C28.7311 5.83 29.2095 5.74 29.7328 5.74C30.2428 5.74 30.6961 5.82333 31.0928 5.99C31.4895 6.15667 31.8345 6.37833 32.1278 6.655L31.7778 7.15C31.7545 7.18667 31.7245 7.21667 31.6878 7.24C31.6545 7.26333 31.6095 7.275 31.5528 7.275C31.4895 7.275 31.4145 7.24333 31.3278 7.18C31.2445 7.11667 31.1328 7.04667 30.9928 6.97C30.8561 6.89 30.6861 6.81833 30.4828 6.755C30.2795 6.69167 30.0261 6.66 29.7228 6.66C29.3661 6.66 29.0395 6.72333 28.7428 6.85C28.4461 6.97333 28.1895 7.15333 27.9728 7.39C27.7595 7.62333 27.5928 7.91167 27.4728 8.255C27.3561 8.595 27.2978 8.98 27.2978 9.41C27.2978 9.84667 27.3595 10.235 27.4828 10.575C27.6061 10.915 27.7761 11.2033 27.9928 11.44C28.2095 11.6767 28.4645 11.8567 28.7578 11.98C29.0511 12.1033 29.3678 12.165 29.7078 12.165C29.9145 12.165 30.0995 12.1533 30.2628 12.13C30.4295 12.1033 30.5811 12.065 30.7178 12.015C30.8578 11.965 30.9895 11.9017 31.1128 11.825C31.2361 11.745 31.3578 11.65 31.4778 11.54C31.5045 11.5167 31.5328 11.4983 31.5628 11.485C31.5928 11.4683 31.6245 11.46 31.6578 11.46ZM35.1703 7.84C35.5436 7.84 35.8803 7.90167 36.1803 8.025C36.4836 8.145 36.7403 8.32 36.9503 8.55C37.1636 8.77667 37.327 9.05167 37.4403 9.375C37.5536 9.695 37.6103 10.055 37.6103 10.455C37.6103 10.855 37.5536 11.2167 37.4403 11.54C37.327 11.8633 37.1636 12.1383 36.9503 12.365C36.7403 12.5917 36.4836 12.7667 36.1803 12.89C35.8803 13.01 35.5436 13.07 35.1703 13.07C34.7936 13.07 34.4536 13.01 34.1503 12.89C33.8503 12.7667 33.5936 12.5917 33.3803 12.365C33.167 12.1383 33.002 11.8633 32.8853 11.54C32.772 11.2167 32.7153 10.855 32.7153 10.455C32.7153 10.055 32.772 9.695 32.8853 9.375C33.002 9.05167 33.167 8.77667 33.3803 8.55C33.5936 8.32 33.8503 8.145 34.1503 8.025C34.4536 7.90167 34.7936 7.84 35.1703 7.84ZM35.1703 12.31C35.6503 12.31 36.0086 12.1483 36.2453 11.825C36.482 11.5017 36.6003 11.0467 36.6003 10.46C36.6003 9.87333 36.482 9.41833 36.2453 9.095C36.0086 8.76833 35.6503 8.605 35.1703 8.605C34.6836 8.605 34.3203 8.76833 34.0803 9.095C33.8436 9.41833 33.7253 9.87333 33.7253 10.46C33.7253 11.0467 33.8436 11.5017 34.0803 11.825C34.3203 12.1483 34.6836 12.31 35.1703 12.31ZM39.6137 8.625C39.7237 8.50833 39.8387 8.40167 39.9587 8.305C40.0787 8.20833 40.2053 8.12667 40.3387 8.06C40.4753 7.99 40.6203 7.93667 40.7737 7.9C40.9303 7.86 41.097 7.84 41.2737 7.84C41.5537 7.84 41.7987 7.88667 42.0087 7.98C42.222 8.07333 42.4003 8.205 42.5437 8.375C42.687 8.54167 42.7953 8.74333 42.8687 8.98C42.942 9.21667 42.9787 9.47833 42.9787 9.765V13H41.9987V9.765C41.9987 9.40167 41.9153 9.12 41.7487 8.92C41.582 8.71667 41.327 8.615 40.9837 8.615C40.7337 8.615 40.4987 8.675 40.2787 8.795C40.062 8.91167 39.8603 9.07167 39.6737 9.275V13H38.6987V7.92H39.2837C39.4203 7.92 39.5053 7.985 39.5387 8.115L39.6137 8.625ZM49.041 13H48.061V8.71H45.511V11.685C45.511 11.885 45.5593 12.035 45.656 12.135C45.756 12.2317 45.8827 12.28 46.036 12.28C46.126 12.28 46.2027 12.2683 46.266 12.245C46.3327 12.2217 46.3893 12.1967 46.436 12.17C46.4827 12.14 46.5227 12.1133 46.556 12.09C46.5893 12.0667 46.6193 12.055 46.646 12.055C46.6793 12.055 46.7043 12.0633 46.721 12.08C46.741 12.0933 46.761 12.1167 46.781 12.15L47.071 12.62C46.911 12.7667 46.721 12.88 46.501 12.96C46.281 13.04 46.0527 13.08 45.816 13.08C45.406 13.08 45.0893 12.965 44.866 12.735C44.646 12.505 44.536 12.1767 44.536 11.75V8.71H43.946C43.8893 8.71 43.841 8.69333 43.801 8.66C43.7643 8.62333 43.746 8.57 43.746 8.5V8.105L44.576 7.99L44.791 6.475C44.8043 6.41833 44.8293 6.375 44.866 6.345C44.906 6.31167 44.956 6.295 45.016 6.295H45.511V8H49.041V13ZM49.261 6.32C49.261 6.41 49.2427 6.49667 49.206 6.58C49.1693 6.66 49.1193 6.73167 49.056 6.795C48.996 6.855 48.9243 6.90333 48.841 6.94C48.7577 6.97333 48.671 6.99 48.581 6.99C48.491 6.99 48.406 6.97333 48.326 6.94C48.246 6.90333 48.1743 6.855 48.111 6.795C48.051 6.73167 48.0027 6.66 47.966 6.58C47.9327 6.49667 47.916 6.41 47.916 6.32C47.916 6.22667 47.9327 6.13833 47.966 6.055C48.0027 5.97167 48.051 5.9 48.111 5.84C48.1743 5.77667 48.246 5.72833 48.326 5.695C48.406 5.65833 48.491 5.64 48.581 5.64C48.671 5.64 48.7577 5.65833 48.841 5.695C48.9243 5.72833 48.996 5.77667 49.056 5.84C49.1193 5.9 49.1693 5.97167 49.206 6.055C49.2427 6.13833 49.261 6.22667 49.261 6.32ZM51.3715 8.625C51.4815 8.50833 51.5965 8.40167 51.7165 8.305C51.8365 8.20833 51.9632 8.12667 52.0965 8.06C52.2332 7.99 52.3782 7.93667 52.5315 7.9C52.6882 7.86 52.8548 7.84 53.0315 7.84C53.3115 7.84 53.5565 7.88667 53.7665 7.98C53.9798 8.07333 54.1582 8.205 54.3015 8.375C54.4448 8.54167 54.5532 8.74333 54.6265 8.98C54.6998 9.21667 54.7365 9.47833 54.7365 9.765V13H53.7565V9.765C53.7565 9.40167 53.6732 9.12 53.5065 8.92C53.3398 8.71667 53.0848 8.615 52.7415 8.615C52.4915 8.615 52.2565 8.675 52.0365 8.795C51.8198 8.91167 51.6182 9.07167 51.4315 9.275V13H50.4565V7.92H51.0415C51.1782 7.92 51.2632 7.985 51.2965 8.115L51.3715 8.625ZM60.2772 7.92V13H59.6922C59.5589 13 59.4722 12.935 59.4322 12.805L59.3622 12.295C59.2522 12.4117 59.1372 12.5183 59.0172 12.615C58.8972 12.7117 58.7689 12.795 58.6322 12.865C58.4955 12.9317 58.3505 12.9833 58.1972 13.02C58.0439 13.06 57.8789 13.08 57.7022 13.08C57.4222 13.08 57.1755 13.0333 56.9622 12.94C56.7522 12.8467 56.5755 12.7167 56.4322 12.55C56.2889 12.38 56.1805 12.1767 56.1072 11.94C56.0339 11.7033 55.9972 11.4417 55.9972 11.155V7.92H56.9772V11.155C56.9772 11.5183 57.0605 11.8017 57.2272 12.005C57.3939 12.205 57.6489 12.305 57.9922 12.305C58.2422 12.305 58.4755 12.2467 58.6922 12.13C58.9089 12.01 59.1122 11.8467 59.3022 11.64V7.92H60.2772ZM65.0031 9.895C65.0031 9.70167 64.9748 9.52333 64.9181 9.36C64.8648 9.19667 64.7848 9.055 64.6781 8.935C64.5715 8.815 64.4415 8.72167 64.2881 8.655C64.1348 8.58833 63.9581 8.555 63.7581 8.555C63.3481 8.555 63.0248 8.67333 62.7881 8.91C62.5548 9.14667 62.4065 9.475 62.3431 9.895H65.0031ZM65.8081 12.275C65.6881 12.415 65.5498 12.5367 65.3931 12.64C65.2365 12.74 65.0698 12.8217 64.8931 12.885C64.7165 12.9483 64.5331 12.995 64.3431 13.025C64.1565 13.055 63.9715 13.07 63.7881 13.07C63.4381 13.07 63.1131 13.0117 62.8131 12.895C62.5165 12.775 62.2581 12.6017 62.0381 12.375C61.8215 12.145 61.6515 11.8617 61.5281 11.525C61.4081 11.185 61.3481 10.795 61.3481 10.355C61.3481 10.0017 61.4031 9.67333 61.5131 9.37C61.6231 9.06333 61.7798 8.79667 61.9831 8.57C62.1898 8.34333 62.4415 8.165 62.7381 8.035C63.0348 7.905 63.3681 7.84 63.7381 7.84C64.0481 7.84 64.3331 7.89167 64.5931 7.995C64.8565 8.095 65.0831 8.24167 65.2731 8.435C65.4631 8.62833 65.6115 8.86667 65.7181 9.15C65.8281 9.43333 65.8831 9.75667 65.8831 10.12C65.8831 10.27 65.8665 10.3717 65.8331 10.425C65.7998 10.475 65.7381 10.5 65.6481 10.5H62.3181C62.3281 10.8033 62.3715 11.0683 62.4481 11.295C62.5248 11.5183 62.6298 11.705 62.7631 11.855C62.8998 12.005 63.0615 12.1167 63.2481 12.19C63.4348 12.2633 63.6431 12.3 63.8731 12.3C64.0898 12.3 64.2765 12.275 64.4331 12.225C64.5931 12.175 64.7298 12.1217 64.8431 12.065C64.9598 12.005 65.0565 11.95 65.1331 11.9C65.2131 11.85 65.2831 11.825 65.3431 11.825C65.4231 11.825 65.4848 11.855 65.5281 11.915L65.8081 12.275ZM76.3203 7.92L74.6853 13H73.9053C73.812 13 73.7486 12.9383 73.7153 12.815L72.6453 9.505C72.6186 9.42167 72.5953 9.34 72.5753 9.26C72.5553 9.17667 72.537 9.09333 72.5203 9.01C72.4903 9.18333 72.4486 9.35167 72.3953 9.515L71.3103 12.815C71.277 12.9383 71.2053 13 71.0953 13H70.3553L68.7153 7.92H69.4853C69.562 7.92 69.6253 7.93833 69.6753 7.975C69.7286 8.01167 69.7636 8.05833 69.7803 8.115L70.6953 11.235C70.7253 11.3617 70.752 11.485 70.7753 11.605C70.7986 11.725 70.8203 11.845 70.8403 11.965C70.8703 11.845 70.902 11.725 70.9353 11.605C70.972 11.485 71.0086 11.3617 71.0453 11.235L72.0603 8.095C72.077 8.03833 72.1086 7.99333 72.1553 7.96C72.202 7.92333 72.2586 7.905 72.3253 7.905H72.7503C72.8236 7.905 72.8836 7.92333 72.9303 7.96C72.9803 7.99333 73.0136 8.03833 73.0303 8.095L74.0203 11.235C74.057 11.3617 74.092 11.4867 74.1253 11.61C74.1586 11.73 74.1886 11.8517 74.2153 11.975C74.2353 11.855 74.2586 11.735 74.2853 11.615C74.312 11.4917 74.342 11.365 74.3753 11.235L75.3053 8.115C75.322 8.05833 75.3553 8.01167 75.4053 7.975C75.4586 7.93833 75.5186 7.92 75.5853 7.92H76.3203ZM78.1659 7.92V13H77.1909V7.92H78.1659ZM78.3509 6.35C78.3509 6.44 78.3326 6.52667 78.2959 6.61C78.2593 6.69 78.2093 6.76167 78.1459 6.825C78.0859 6.885 78.0143 6.93333 77.9309 6.97C77.8476 7.00333 77.7609 7.02 77.6709 7.02C77.5809 7.02 77.4959 7.00333 77.4159 6.97C77.3359 6.93333 77.2643 6.885 77.2009 6.825C77.1409 6.76167 77.0926 6.69 77.0559 6.61C77.0226 6.52667 77.0059 6.44 77.0059 6.35C77.0059 6.25667 77.0226 6.17 77.0559 6.09C77.0926 6.00667 77.1409 5.935 77.2009 5.875C77.2643 5.81167 77.3359 5.76333 77.4159 5.73C77.4959 5.69333 77.5809 5.675 77.6709 5.675C77.7609 5.675 77.8476 5.69333 77.9309 5.73C78.0143 5.76333 78.0859 5.81167 78.1459 5.875C78.2093 5.935 78.2593 6.00667 78.2959 6.09C78.3326 6.17 78.3509 6.25667 78.3509 6.35ZM81.1676 13.08C80.7576 13.08 80.4409 12.965 80.2176 12.735C79.9976 12.505 79.8876 12.1767 79.8876 11.75V8.71H79.2976C79.2409 8.71 79.1926 8.69333 79.1526 8.66C79.1159 8.62333 79.0976 8.57 79.0976 8.5V8.105L79.9226 7.99L80.1426 6.475C80.1559 6.41833 80.1809 6.375 80.2176 6.345C80.2576 6.31167 80.3076 6.295 80.3676 6.295H80.8626V8H82.3026V8.71H80.8626V11.685C80.8626 11.885 80.9109 12.035 81.0076 12.135C81.1076 12.2317 81.2342 12.28 81.3876 12.28C81.4776 12.28 81.5542 12.2683 81.6176 12.245C81.6842 12.2217 81.7409 12.1967 81.7876 12.17C81.8342 12.14 81.8742 12.1133 81.9076 12.09C81.9409 12.0667 81.9709 12.055 81.9976 12.055C82.0309 12.055 82.0559 12.0633 82.0726 12.08C82.0926 12.0933 82.1126 12.1167 82.1326 12.15L82.4226 12.62C82.2626 12.7667 82.0726 12.88 81.8526 12.96C81.6326 13.04 81.4042 13.08 81.1676 13.08ZM84.1756 8.565C84.389 8.34833 84.624 8.17333 84.8806 8.04C85.1406 7.90667 85.439 7.84 85.7756 7.84C86.0556 7.84 86.3006 7.88667 86.5106 7.98C86.724 8.07333 86.9023 8.205 87.0456 8.375C87.189 8.54167 87.2973 8.74333 87.3706 8.98C87.444 9.21667 87.4806 9.47833 87.4806 9.765V13H86.5006V9.765C86.5006 9.40167 86.4173 9.12 86.2506 8.92C86.084 8.71667 85.829 8.615 85.4856 8.615C85.2356 8.615 85.0006 8.675 84.7806 8.795C84.564 8.91167 84.3623 9.07167 84.1756 9.275V13H83.2006V5.62H84.1756V8.565ZM92.5956 6.685V9.09H95.4756V9.955H92.5956V13H91.5256V5.82H95.9756V6.685H92.5956ZM97.9804 7.92V13H97.0054V7.92H97.9804ZM98.1654 6.35C98.1654 6.44 98.1471 6.52667 98.1104 6.61C98.0737 6.69 98.0237 6.76167 97.9604 6.825C97.9004 6.885 97.8287 6.93333 97.7454 6.97C97.6621 7.00333 97.5754 7.02 97.4854 7.02C97.3954 7.02 97.3104 7.00333 97.2304 6.97C97.1504 6.93333 97.0787 6.885 97.0154 6.825C96.9554 6.76167 96.9071 6.69 96.8704 6.61C96.8371 6.52667 96.8204 6.44 96.8204 6.35C96.8204 6.25667 96.8371 6.17 96.8704 6.09C96.9071 6.00667 96.9554 5.935 97.0154 5.875C97.0787 5.81167 97.1504 5.76333 97.2304 5.73C97.3104 5.69333 97.3954 5.675 97.4854 5.675C97.5754 5.675 97.6621 5.69333 97.7454 5.73C97.8287 5.76333 97.9004 5.81167 97.9604 5.875C98.0237 5.935 98.0737 6.00667 98.1104 6.09C98.1471 6.17 98.1654 6.25667 98.1654 6.35ZM100.982 13.08C100.572 13.08 100.255 12.965 100.032 12.735C99.812 12.505 99.702 12.1767 99.702 11.75V8.71H99.112C99.0554 8.71 99.007 8.69333 98.967 8.66C98.9304 8.62333 98.912 8.57 98.912 8.5V8.105L99.737 7.99L99.957 6.475C99.9704 6.41833 99.9954 6.375 100.032 6.345C100.072 6.31167 100.122 6.295 100.182 6.295H100.677V8H102.117V8.71H100.677V11.685C100.677 11.885 100.725 12.035 100.822 12.135C100.922 12.2317 101.049 12.28 101.202 12.28C101.292 12.28 101.369 12.2683 101.432 12.245C101.499 12.2217 101.555 12.1967 101.602 12.17C101.649 12.14 101.689 12.1133 101.722 12.09C101.755 12.0667 101.785 12.055 101.812 12.055C101.845 12.055 101.87 12.0633 101.887 12.08C101.907 12.0933 101.927 12.1167 101.947 12.15L102.237 12.62C102.077 12.7667 101.887 12.88 101.667 12.96C101.447 13.04 101.219 13.08 100.982 13.08ZM103.99 11.75C104.15 11.96 104.323 12.1067 104.51 12.19C104.697 12.2733 104.9 12.315 105.12 12.315C105.573 12.315 105.922 12.1533 106.165 11.83C106.412 11.5067 106.535 11.0183 106.535 10.365C106.535 9.76167 106.427 9.32 106.21 9.04C105.993 8.75667 105.687 8.615 105.29 8.615C105.01 8.615 104.767 8.67833 104.56 8.805C104.357 8.93167 104.167 9.11167 103.99 9.345V11.75ZM103.99 8.62C104.2 8.38667 104.438 8.19833 104.705 8.055C104.972 7.91167 105.275 7.84 105.615 7.84C105.912 7.84 106.178 7.89833 106.415 8.015C106.655 8.12833 106.858 8.29333 107.025 8.51C107.192 8.72333 107.32 8.98333 107.41 9.29C107.5 9.59667 107.545 9.94333 107.545 10.33C107.545 10.74 107.493 11.1133 107.39 11.45C107.29 11.7867 107.145 12.075 106.955 12.315C106.768 12.555 106.54 12.7417 106.27 12.875C106 13.005 105.697 13.07 105.36 13.07C105.197 13.07 105.047 13.0533 104.91 13.02C104.773 12.99 104.647 12.945 104.53 12.885C104.417 12.825 104.312 12.7517 104.215 12.665C104.118 12.5783 104.027 12.48 103.94 12.37L103.895 12.795C103.868 12.9317 103.785 13 103.645 13H103.015V5.62H103.99V8.62ZM109.65 7.92V13H108.675V7.92H109.65ZM109.835 6.35C109.835 6.44 109.817 6.52667 109.78 6.61C109.744 6.69 109.694 6.76167 109.63 6.825C109.57 6.885 109.499 6.93333 109.415 6.97C109.332 7.00333 109.245 7.02 109.155 7.02C109.065 7.02 108.98 7.00333 108.9 6.97C108.82 6.93333 108.749 6.885 108.685 6.825C108.625 6.76167 108.577 6.69 108.54 6.61C108.507 6.52667 108.49 6.44 108.49 6.35C108.49 6.25667 108.507 6.17 108.54 6.09C108.577 6.00667 108.625 5.935 108.685 5.875C108.749 5.81167 108.82 5.76333 108.9 5.73C108.98 5.69333 109.065 5.675 109.155 5.675C109.245 5.675 109.332 5.69333 109.415 5.73C109.499 5.76333 109.57 5.81167 109.63 5.875C109.694 5.935 109.744 6.00667 109.78 6.09C109.817 6.17 109.835 6.25667 109.835 6.35ZM112.652 13.08C112.242 13.08 111.925 12.965 111.702 12.735C111.482 12.505 111.372 12.1767 111.372 11.75V8.71H110.782C110.725 8.71 110.677 8.69333 110.637 8.66C110.6 8.62333 110.582 8.57 110.582 8.5V8.105L111.407 7.99L111.627 6.475C111.64 6.41833 111.665 6.375 111.702 6.345C111.742 6.31167 111.792 6.295 111.852 6.295H112.347V8H113.787V8.71H112.347V11.685C112.347 11.885 112.395 12.035 112.492 12.135C112.592 12.2317 112.719 12.28 112.872 12.28C112.962 12.28 113.039 12.2683 113.102 12.245C113.169 12.2217 113.225 12.1967 113.272 12.17C113.319 12.14 113.359 12.1133 113.392 12.09C113.425 12.0667 113.455 12.055 113.482 12.055C113.515 12.055 113.54 12.0633 113.557 12.08C113.577 12.0933 113.597 12.1167 113.617 12.15L113.907 12.62C113.747 12.7667 113.557 12.88 113.337 12.96C113.117 13.04 112.889 13.08 112.652 13.08Z" fill="white"/>
<path d="M9.88875 2.38499C9.88875 2.61861 9.81947 2.847 9.68967 3.04125C9.55987 3.23551 9.37539 3.38691 9.15954 3.47632C8.9437 3.56572 8.70619 3.58912 8.47705 3.54354C8.24791 3.49796 8.03743 3.38546 7.87223 3.22026C7.70703 3.05505 7.59452 2.84458 7.54894 2.61544C7.50337 2.3863 7.52676 2.14879 7.61616 1.93294C7.70557 1.7171 7.85697 1.53261 8.05123 1.40281C8.24549 1.27301 8.47387 1.20374 8.7075 1.20374C9.02078 1.20374 9.32124 1.32819 9.54277 1.54972C9.76429 1.77124 9.88875 2.0717 9.88875 2.38499ZM8.7075 4.49999C8.46362 4.49999 8.22522 4.57238 8.02252 4.70799C7.81982 4.8436 7.66194 5.03633 7.56886 5.26175C7.47579 5.48717 7.45173 5.73515 7.49972 5.97426C7.54771 6.21338 7.6656 6.43286 7.83844 6.60492C8.01128 6.77697 8.23131 6.89385 8.47064 6.94075C8.70997 6.98764 8.95783 6.96244 9.18283 6.86834C9.40782 6.77424 9.59982 6.61547 9.7345 6.41215C9.86919 6.20883 9.94049 5.97011 9.93937 5.72624C9.93789 5.4005 9.80744 5.08861 9.57658 4.8588C9.34572 4.629 9.03324 4.49998 8.7075 4.49999ZM8.7075 7.79624C8.45496 7.79624 8.20808 7.87112 7.9981 8.01143C7.78812 8.15173 7.62446 8.35115 7.52782 8.58447C7.43118 8.81779 7.40589 9.07453 7.45516 9.32222C7.50443 9.56991 7.62604 9.79742 7.80461 9.976C7.98318 10.1546 8.2107 10.2762 8.45839 10.3255C8.70608 10.3747 8.96282 10.3494 9.19614 10.2528C9.42945 10.1561 9.62887 9.99248 9.76918 9.7825C9.90948 9.57252 9.98437 9.32565 9.98437 9.07311C9.98512 8.90522 9.9526 8.73885 9.88869 8.58359C9.82479 8.42834 9.73076 8.28728 9.61204 8.16856C9.49333 8.04985 9.35227 7.95582 9.19702 7.89192C9.04176 7.82801 8.87539 7.79549 8.7075 7.79624ZM8.7075 11.1712C8.46521 11.1723 8.22868 11.2452 8.02777 11.3806C7.82685 11.516 7.67056 11.7079 7.57861 11.9321C7.48666 12.1563 7.46318 12.4026 7.51112 12.6401C7.55907 12.8776 7.6763 13.0956 7.84802 13.2665C8.01974 13.4375 8.23824 13.5537 8.47595 13.6006C8.71367 13.6474 8.95994 13.6228 9.18368 13.5298C9.40742 13.4369 9.5986 13.2797 9.7331 13.0782C9.86759 12.8766 9.93937 12.6398 9.93937 12.3975C9.93937 12.236 9.90747 12.0761 9.84549 11.9269C9.78352 11.7778 9.69269 11.6423 9.57823 11.5284C9.46376 11.4145 9.32792 11.3243 9.17849 11.263C9.02907 11.2017 8.869 11.1705 8.7075 11.1712ZM8.7075 14.5462C8.47387 14.5462 8.24549 14.6155 8.05123 14.7453C7.85697 14.8751 7.70557 15.0596 7.61616 15.2754C7.52676 15.4913 7.50337 15.7288 7.54894 15.9579C7.59452 16.1871 7.70703 16.3976 7.87223 16.5628C8.03743 16.728 8.24791 16.8405 8.47705 16.886C8.70619 16.9316 8.9437 16.9082 9.15954 16.8188C9.37539 16.7294 9.55987 16.578 9.68967 16.3838C9.81947 16.1895 9.88875 15.9611 9.88875 15.7275C9.88875 15.4142 9.76429 15.1137 9.54277 14.8922C9.32124 14.6707 9.02078 14.5462 8.7075 14.5462ZM11.9644 4.34249C11.6891 4.34137 11.4197 4.42205 11.1904 4.57429C10.961 4.72653 10.7821 4.94346 10.6762 5.19757C10.5704 5.45167 10.5424 5.73149 10.5958 6.00153C10.6492 6.27156 10.7817 6.51964 10.9763 6.71429C11.171 6.90893 11.419 7.04137 11.6891 7.0948C11.9591 7.14823 12.2389 7.12024 12.493 7.01439C12.7471 6.90853 12.9641 6.72958 13.1163 6.50024C13.2686 6.2709 13.3492 6.0015 13.3481 5.72624C13.3466 5.3597 13.2004 5.0086 12.9412 4.74941C12.682 4.49023 12.3309 4.34397 11.9644 4.34249ZM11.9644 7.63874C11.6807 7.63874 11.4034 7.72286 11.1675 7.88047C10.9316 8.03808 10.7477 8.2621 10.6392 8.5242C10.5306 8.7863 10.5022 9.0747 10.5576 9.35294C10.6129 9.63118 10.7495 9.88677 10.9501 10.0874C11.1507 10.288 11.4063 10.4246 11.6845 10.4799C11.9628 10.5353 12.2512 10.5069 12.5133 10.3983C12.7754 10.2897 12.9994 10.1059 13.157 9.87001C13.3146 9.63412 13.3987 9.3568 13.3987 9.07311C13.3987 8.69269 13.2476 8.32785 12.9786 8.05885C12.7096 7.78986 12.3448 7.63874 11.9644 7.63874ZM11.9644 11.0137C11.6907 11.0137 11.4232 11.0949 11.1956 11.2469C10.968 11.399 10.7907 11.6151 10.686 11.8679C10.5812 12.1208 10.5538 12.399 10.6072 12.6674C10.6606 12.9359 10.7924 13.1824 10.9859 13.3759C11.1794 13.5695 11.426 13.7013 11.6944 13.7546C11.9628 13.808 12.2411 13.7806 12.4939 13.6759C12.7468 13.5712 12.9629 13.3938 13.1149 13.1663C13.267 12.9387 13.3481 12.6712 13.3481 12.3975C13.3466 12.0309 13.2004 11.6798 12.9412 11.4207C12.682 11.1615 12.3309 11.0152 11.9644 11.0137ZM15.3 7.48124C14.9845 7.47789 14.675 7.5684 14.411 7.74127C14.1471 7.91414 13.9404 8.16158 13.8173 8.45214C13.6942 8.74271 13.6603 9.0633 13.7198 9.3732C13.7793 9.68309 13.9296 9.96831 14.1515 10.1926C14.3735 10.417 14.6571 10.5702 14.9663 10.6331C15.2755 10.6959 15.5965 10.6653 15.8883 10.5454C16.1802 10.4254 16.4298 10.2214 16.6055 9.95924C16.7812 9.6971 16.875 9.38867 16.875 9.07311C16.8765 8.65338 16.7116 8.25016 16.4164 7.95179C16.1212 7.65342 15.7197 7.48421 15.3 7.48124ZM5.41687 4.66874C5.20391 4.66762 4.99541 4.72983 4.81787 4.84745C4.64034 4.96508 4.50176 5.13282 4.41975 5.32936C4.33773 5.5259 4.31598 5.74239 4.35726 5.95132C4.39853 6.16025 4.50097 6.3522 4.65156 6.50279C4.80216 6.65339 4.99411 6.75582 5.20304 6.7971C5.41197 6.83837 5.62845 6.81663 5.825 6.73461C6.02154 6.6526 6.18928 6.51402 6.3069 6.33648C6.42453 6.15894 6.48673 5.95045 6.48562 5.73748C6.48562 5.45403 6.37302 5.18219 6.17259 4.98176C5.97216 4.78134 5.70032 4.66874 5.41687 4.66874ZM5.41687 7.96498C5.19437 7.96498 4.97686 8.03097 4.79186 8.15458C4.60685 8.2782 4.46266 8.4539 4.37751 8.65947C4.29236 8.86503 4.27008 9.09123 4.31349 9.30946C4.3569 9.52769 4.46404 9.72815 4.62138 9.88548C4.77871 10.0428 4.97917 10.15 5.1974 10.1934C5.41562 10.2368 5.64182 10.2145 5.84739 10.1293C6.05296 10.0442 6.22866 9.90001 6.35228 9.715C6.47589 9.53 6.54187 9.31249 6.54187 9.08998C6.54187 8.79162 6.42335 8.50547 6.21237 8.29449C6.00139 8.08351 5.71524 7.96498 5.41687 7.96498ZM5.41687 11.34C5.20549 11.34 4.99886 11.4027 4.82311 11.5201C4.64735 11.6375 4.51037 11.8045 4.42948 11.9997C4.34859 12.195 4.32742 12.4099 4.36866 12.6172C4.4099 12.8246 4.51168 13.015 4.66115 13.1645C4.81062 13.3139 5.00105 13.4157 5.20837 13.457C5.41569 13.4982 5.63058 13.477 5.82587 13.3961C6.02115 13.3152 6.18807 13.1783 6.30551 13.0025C6.42294 12.8267 6.48562 12.6201 6.48562 12.4087C6.48562 12.1253 6.37302 11.8534 6.17259 11.653C5.97216 11.4526 5.70032 11.34 5.41687 11.34ZM2.12062 8.11124C1.93015 8.11012 1.74363 8.16559 1.58471 8.2706C1.42579 8.37561 1.30163 8.52544 1.22797 8.7011C1.1543 8.87676 1.13445 9.07034 1.17092 9.25729C1.2074 9.44425 1.29856 9.61616 1.43286 9.75125C1.56715 9.88633 1.73853 9.9785 1.92527 10.0161C2.112 10.0536 2.30569 10.0349 2.48178 9.96229C2.65787 9.88966 2.80843 9.76638 2.91437 9.60808C3.02031 9.44978 3.07687 9.26359 3.07687 9.07311C3.07761 8.94706 3.05343 8.82211 3.0057 8.70544C2.95798 8.58877 2.88766 8.48269 2.79879 8.3933C2.70992 8.30391 2.60425 8.23297 2.48787 8.18456C2.37148 8.13615 2.24667 8.11123 2.12062 8.11124Z" fill="#00A9B9"/>
</svg>
