<svg width="18" height="19" viewBox="0 0 18 19" fill="none" xmlns="http://www.w3.org/2000/svg">
<path d="M16.3541 7.5711H15.75V7.53998H9V10.54H13.2386C12.6203 12.2864 10.9586 13.54 9 13.54C6.51487 13.54 4.5 11.5251 4.5 9.03998C4.5 6.55485 6.51487 4.53998 9 4.53998C10.1471 4.53998 11.1908 4.97273 11.9854 5.6796L14.1068 3.55823C12.7673 2.30985 10.9755 1.53998 9 1.53998C4.85812 1.53998 1.5 4.8981 1.5 9.03998C1.5 13.1819 4.85812 16.54 9 16.54C13.1419 16.54 16.5 13.1819 16.5 9.03998C16.5 8.5371 16.4482 8.04623 16.3541 7.5711Z" fill="#FFC107"/>
<path d="M2.36475 5.5491L4.82887 7.35623C5.49562 5.70548 7.11037 4.53998 9 4.53998C10.1471 4.53998 11.1907 4.97273 11.9854 5.6796L14.1067 3.55823C12.7672 2.30985 10.9755 1.53998 9 1.53998C6.11925 1.53998 3.621 3.16635 2.36475 5.5491Z" fill="#FF3D00"/>
<path d="M9.00012 16.54C10.9374 16.54 12.6976 15.7986 14.0285 14.593L11.7072 12.6287C10.9289 13.2206 9.97791 13.5408 9.00012 13.54C7.04937 13.54 5.39299 12.2961 4.76899 10.5602L2.32324 12.4446C3.56449 14.8735 6.08524 16.54 9.00012 16.54Z" fill="#4CAF50"/>
<path d="M16.3541 7.5711H15.75V7.53998H9V10.54H13.2386C12.9428 11.3711 12.41 12.0974 11.706 12.6291L11.7071 12.6284L14.0284 14.5926C13.8641 14.7419 16.5 12.79 16.5 9.03998C16.5 8.5371 16.4482 8.04623 16.3541 7.5711Z" fill="#1976D2"/>
</svg>
