<svg width="121" height="24" viewBox="0 0 121 24" fill="none" xmlns="http://www.w3.org/2000/svg">
<path d="M16.3541 11.5311H15.75V11.5H9V14.5H13.2386C12.6203 16.2464 10.9586 17.5 9 17.5C6.51487 17.5 4.5 15.4851 4.5 13C4.5 10.5149 6.51487 8.5 9 8.5C10.1471 8.5 11.1908 8.93275 11.9854 9.63962L14.1068 7.51825C12.7673 6.26987 10.9755 5.5 9 5.5C4.85812 5.5 1.5 8.85812 1.5 13C1.5 17.1419 4.85812 20.5 9 20.5C13.1419 20.5 16.5 17.1419 16.5 13C16.5 12.4971 16.4482 12.0062 16.3541 11.5311Z" fill="#FFC107"/>
<path d="M2.36475 9.50912L4.82887 11.3162C5.49562 9.6655 7.11037 8.5 9 8.5C10.1471 8.5 11.1907 8.93275 11.9854 9.63962L14.1067 7.51825C12.7672 6.26987 10.9755 5.5 9 5.5C6.11925 5.5 3.621 7.12637 2.36475 9.50912Z" fill="#FF3D00"/>
<path d="M8.99999 20.5C10.9372 20.5 12.6975 19.7586 14.0284 18.553L11.7071 16.5888C10.9288 17.1807 9.97779 17.5008 8.99999 17.5C7.04924 17.5 5.39287 16.2561 4.76887 14.5203L2.32312 16.4046C3.56437 18.8335 6.08512 20.5 8.99999 20.5Z" fill="#4CAF50"/>
<path d="M16.3541 11.5311H15.75V11.5H9V14.5H13.2386C12.9428 15.3312 12.41 16.0574 11.706 16.5891L11.7071 16.5884L14.0284 18.5526C13.8641 18.7019 16.5 16.75 16.5 13C16.5 12.4971 16.4482 12.0063 16.3541 11.5311Z" fill="#1976D2"/>
<path d="M30.5133 14.46C30.5733 14.46 30.6249 14.4833 30.6683 14.53L31.0883 14.99C30.7949 15.3367 30.4366 15.605 30.0133 15.795C29.5933 15.985 29.0866 16.08 28.4933 16.08C27.9733 16.08 27.5016 15.99 27.0783 15.81C26.6583 15.63 26.2983 15.3783 25.9983 15.055C25.7016 14.7317 25.4716 14.345 25.3083 13.895C25.1449 13.445 25.0633 12.95 25.0633 12.41C25.0633 11.87 25.1483 11.375 25.3183 10.925C25.4916 10.475 25.7333 10.0883 26.0433 9.765C26.3533 9.44167 26.7233 9.19 27.1533 9.01C27.5866 8.83 28.0649 8.74 28.5883 8.74C29.0983 8.74 29.5516 8.82333 29.9483 8.99C30.3449 9.15667 30.6899 9.37833 30.9833 9.655L30.6333 10.15C30.6099 10.1867 30.5799 10.2167 30.5433 10.24C30.5099 10.2633 30.4649 10.275 30.4083 10.275C30.3449 10.275 30.2699 10.2433 30.1833 10.18C30.0999 10.1167 29.9883 10.0467 29.8483 9.97C29.7116 9.89 29.5416 9.81833 29.3383 9.755C29.1349 9.69167 28.8816 9.66 28.5783 9.66C28.2216 9.66 27.8949 9.72333 27.5983 9.85C27.3016 9.97333 27.0449 10.1533 26.8283 10.39C26.6149 10.6233 26.4483 10.9117 26.3283 11.255C26.2116 11.595 26.1533 11.98 26.1533 12.41C26.1533 12.8467 26.2149 13.235 26.3383 13.575C26.4616 13.915 26.6316 14.2033 26.8483 14.44C27.0649 14.6767 27.3199 14.8567 27.6133 14.98C27.9066 15.1033 28.2233 15.165 28.5633 15.165C28.7699 15.165 28.9549 15.1533 29.1183 15.13C29.2849 15.1033 29.4366 15.065 29.5733 15.015C29.7133 14.965 29.8449 14.9017 29.9683 14.825C30.0916 14.745 30.2133 14.65 30.3333 14.54C30.3599 14.5167 30.3883 14.4983 30.4183 14.485C30.4483 14.4683 30.4799 14.46 30.5133 14.46ZM34.0258 10.84C34.3991 10.84 34.7358 10.9017 35.0358 11.025C35.3391 11.145 35.5958 11.32 35.8058 11.55C36.0191 11.7767 36.1824 12.0517 36.2958 12.375C36.4091 12.695 36.4658 13.055 36.4658 13.455C36.4658 13.855 36.4091 14.2167 36.2958 14.54C36.1824 14.8633 36.0191 15.1383 35.8058 15.365C35.5958 15.5917 35.3391 15.7667 35.0358 15.89C34.7358 16.01 34.3991 16.07 34.0258 16.07C33.6491 16.07 33.3091 16.01 33.0058 15.89C32.7058 15.7667 32.4491 15.5917 32.2358 15.365C32.0224 15.1383 31.8574 14.8633 31.7408 14.54C31.6274 14.2167 31.5708 13.855 31.5708 13.455C31.5708 13.055 31.6274 12.695 31.7408 12.375C31.8574 12.0517 32.0224 11.7767 32.2358 11.55C32.4491 11.32 32.7058 11.145 33.0058 11.025C33.3091 10.9017 33.6491 10.84 34.0258 10.84ZM34.0258 15.31C34.5058 15.31 34.8641 15.1483 35.1008 14.825C35.3374 14.5017 35.4558 14.0467 35.4558 13.46C35.4558 12.8733 35.3374 12.4183 35.1008 12.095C34.8641 11.7683 34.5058 11.605 34.0258 11.605C33.5391 11.605 33.1758 11.7683 32.9358 12.095C32.6991 12.4183 32.5808 12.8733 32.5808 13.46C32.5808 14.0467 32.6991 14.5017 32.9358 14.825C33.1758 15.1483 33.5391 15.31 34.0258 15.31ZM38.4691 11.625C38.5791 11.5083 38.6941 11.4017 38.8141 11.305C38.9341 11.2083 39.0608 11.1267 39.1941 11.06C39.3308 10.99 39.4758 10.9367 39.6291 10.9C39.7858 10.86 39.9525 10.84 40.1291 10.84C40.4091 10.84 40.6541 10.8867 40.8641 10.98C41.0775 11.0733 41.2558 11.205 41.3991 11.375C41.5425 11.5417 41.6508 11.7433 41.7241 11.98C41.7975 12.2167 41.8341 12.4783 41.8341 12.765V16H40.8541V12.765C40.8541 12.4017 40.7708 12.12 40.6041 11.92C40.4375 11.7167 40.1825 11.615 39.8391 11.615C39.5891 11.615 39.3541 11.675 39.1341 11.795C38.9175 11.9117 38.7158 12.0717 38.5291 12.275V16H37.5541V10.92H38.1391C38.2758 10.92 38.3608 10.985 38.3941 11.115L38.4691 11.625ZM47.8965 16H46.9165V11.71H44.3665V14.685C44.3665 14.885 44.4148 15.035 44.5115 15.135C44.6115 15.2317 44.7382 15.28 44.8915 15.28C44.9815 15.28 45.0582 15.2683 45.1215 15.245C45.1882 15.2217 45.2448 15.1967 45.2915 15.17C45.3382 15.14 45.3782 15.1133 45.4115 15.09C45.4448 15.0667 45.4748 15.055 45.5015 15.055C45.5348 15.055 45.5598 15.0633 45.5765 15.08C45.5965 15.0933 45.6165 15.1167 45.6365 15.15L45.9265 15.62C45.7665 15.7667 45.5765 15.88 45.3565 15.96C45.1365 16.04 44.9082 16.08 44.6715 16.08C44.2615 16.08 43.9448 15.965 43.7215 15.735C43.5015 15.505 43.3915 15.1767 43.3915 14.75V11.71H42.8015C42.7448 11.71 42.6965 11.6933 42.6565 11.66C42.6198 11.6233 42.6015 11.57 42.6015 11.5V11.105L43.4315 10.99L43.6465 9.475C43.6598 9.41833 43.6848 9.375 43.7215 9.345C43.7615 9.31167 43.8115 9.295 43.8715 9.295H44.3665V11H47.8965V16ZM48.1165 9.32C48.1165 9.41 48.0982 9.49667 48.0615 9.58C48.0248 9.66 47.9748 9.73167 47.9115 9.795C47.8515 9.855 47.7798 9.90333 47.6965 9.94C47.6132 9.97333 47.5265 9.99 47.4365 9.99C47.3465 9.99 47.2615 9.97333 47.1815 9.94C47.1015 9.90333 47.0298 9.855 46.9665 9.795C46.9065 9.73167 46.8582 9.66 46.8215 9.58C46.7882 9.49667 46.7715 9.41 46.7715 9.32C46.7715 9.22667 46.7882 9.13833 46.8215 9.055C46.8582 8.97167 46.9065 8.9 46.9665 8.84C47.0298 8.77667 47.1015 8.72833 47.1815 8.695C47.2615 8.65833 47.3465 8.64 47.4365 8.64C47.5265 8.64 47.6132 8.65833 47.6965 8.695C47.7798 8.72833 47.8515 8.77667 47.9115 8.84C47.9748 8.9 48.0248 8.97167 48.0615 9.055C48.0982 9.13833 48.1165 9.22667 48.1165 9.32ZM50.227 11.625C50.337 11.5083 50.452 11.4017 50.572 11.305C50.692 11.2083 50.8186 11.1267 50.952 11.06C51.0886 10.99 51.2336 10.9367 51.387 10.9C51.5436 10.86 51.7103 10.84 51.887 10.84C52.167 10.84 52.412 10.8867 52.622 10.98C52.8353 11.0733 53.0136 11.205 53.157 11.375C53.3003 11.5417 53.4086 11.7433 53.482 11.98C53.5553 12.2167 53.592 12.4783 53.592 12.765V16H52.612V12.765C52.612 12.4017 52.5286 12.12 52.362 11.92C52.1953 11.7167 51.9403 11.615 51.597 11.615C51.347 11.615 51.112 11.675 50.892 11.795C50.6753 11.9117 50.4736 12.0717 50.287 12.275V16H49.312V10.92H49.897C50.0336 10.92 50.1186 10.985 50.152 11.115L50.227 11.625ZM59.1327 10.92V16H58.5477C58.4143 16 58.3277 15.935 58.2877 15.805L58.2177 15.295C58.1077 15.4117 57.9927 15.5183 57.8727 15.615C57.7527 15.7117 57.6243 15.795 57.4877 15.865C57.351 15.9317 57.206 15.9833 57.0527 16.02C56.8993 16.06 56.7343 16.08 56.5577 16.08C56.2777 16.08 56.031 16.0333 55.8177 15.94C55.6077 15.8467 55.431 15.7167 55.2877 15.55C55.1443 15.38 55.036 15.1767 54.9627 14.94C54.8893 14.7033 54.8527 14.4417 54.8527 14.155V10.92H55.8327V14.155C55.8327 14.5183 55.916 14.8017 56.0827 15.005C56.2493 15.205 56.5043 15.305 56.8477 15.305C57.0977 15.305 57.331 15.2467 57.5477 15.13C57.7643 15.01 57.9677 14.8467 58.1577 14.64V10.92H59.1327ZM63.8586 12.895C63.8586 12.7017 63.8303 12.5233 63.7736 12.36C63.7203 12.1967 63.6403 12.055 63.5336 11.935C63.4269 11.815 63.2969 11.7217 63.1436 11.655C62.9903 11.5883 62.8136 11.555 62.6136 11.555C62.2036 11.555 61.8803 11.6733 61.6436 11.91C61.4103 12.1467 61.2619 12.475 61.1986 12.895H63.8586ZM64.6636 15.275C64.5436 15.415 64.4053 15.5367 64.2486 15.64C64.0919 15.74 63.9253 15.8217 63.7486 15.885C63.5719 15.9483 63.3886 15.995 63.1986 16.025C63.0119 16.055 62.8269 16.07 62.6436 16.07C62.2936 16.07 61.9686 16.0117 61.6686 15.895C61.3719 15.775 61.1136 15.6017 60.8936 15.375C60.6769 15.145 60.5069 14.8617 60.3836 14.525C60.2636 14.185 60.2036 13.795 60.2036 13.355C60.2036 13.0017 60.2586 12.6733 60.3686 12.37C60.4786 12.0633 60.6353 11.7967 60.8386 11.57C61.0453 11.3433 61.2969 11.165 61.5936 11.035C61.8903 10.905 62.2236 10.84 62.5936 10.84C62.9036 10.84 63.1886 10.8917 63.4486 10.995C63.7119 11.095 63.9386 11.2417 64.1286 11.435C64.3186 11.6283 64.4669 11.8667 64.5736 12.15C64.6836 12.4333 64.7386 12.7567 64.7386 13.12C64.7386 13.27 64.7219 13.3717 64.6886 13.425C64.6553 13.475 64.5936 13.5 64.5036 13.5H61.1736C61.1836 13.8033 61.2269 14.0683 61.3036 14.295C61.3803 14.5183 61.4853 14.705 61.6186 14.855C61.7553 15.005 61.9169 15.1167 62.1036 15.19C62.2903 15.2633 62.4986 15.3 62.7286 15.3C62.9453 15.3 63.1319 15.275 63.2886 15.225C63.4486 15.175 63.5853 15.1217 63.6986 15.065C63.8153 15.005 63.9119 14.95 63.9886 14.9C64.0686 14.85 64.1386 14.825 64.1986 14.825C64.2786 14.825 64.3403 14.855 64.3836 14.915L64.6636 15.275ZM75.1758 10.92L73.5408 16H72.7608C72.6674 16 72.6041 15.9383 72.5708 15.815L71.5008 12.505C71.4741 12.4217 71.4508 12.34 71.4308 12.26C71.4108 12.1767 71.3924 12.0933 71.3758 12.01C71.3458 12.1833 71.3041 12.3517 71.2508 12.515L70.1658 15.815C70.1324 15.9383 70.0608 16 69.9508 16H69.2108L67.5708 10.92H68.3408C68.4174 10.92 68.4808 10.9383 68.5308 10.975C68.5841 11.0117 68.6191 11.0583 68.6358 11.115L69.5508 14.235C69.5808 14.3617 69.6074 14.485 69.6308 14.605C69.6541 14.725 69.6758 14.845 69.6958 14.965C69.7258 14.845 69.7574 14.725 69.7908 14.605C69.8274 14.485 69.8641 14.3617 69.9008 14.235L70.9158 11.095C70.9324 11.0383 70.9641 10.9933 71.0108 10.96C71.0574 10.9233 71.1141 10.905 71.1808 10.905H71.6058C71.6791 10.905 71.7391 10.9233 71.7858 10.96C71.8358 10.9933 71.8691 11.0383 71.8858 11.095L72.8758 14.235C72.9124 14.3617 72.9474 14.4867 72.9808 14.61C73.0141 14.73 73.0441 14.8517 73.0708 14.975C73.0908 14.855 73.1141 14.735 73.1408 14.615C73.1674 14.4917 73.1974 14.365 73.2308 14.235L74.1608 11.115C74.1774 11.0583 74.2108 11.0117 74.2608 10.975C74.3141 10.9383 74.3741 10.92 74.4408 10.92H75.1758ZM77.0214 10.92V16H76.0464V10.92H77.0214ZM77.2064 9.35C77.2064 9.44 77.1881 9.52667 77.1514 9.61C77.1147 9.69 77.0647 9.76167 77.0014 9.825C76.9414 9.885 76.8697 9.93333 76.7864 9.97C76.7031 10.0033 76.6164 10.02 76.5264 10.02C76.4364 10.02 76.3514 10.0033 76.2714 9.97C76.1914 9.93333 76.1197 9.885 76.0564 9.825C75.9964 9.76167 75.9481 9.69 75.9114 9.61C75.8781 9.52667 75.8614 9.44 75.8614 9.35C75.8614 9.25667 75.8781 9.17 75.9114 9.09C75.9481 9.00667 75.9964 8.935 76.0564 8.875C76.1197 8.81167 76.1914 8.76333 76.2714 8.73C76.3514 8.69333 76.4364 8.675 76.5264 8.675C76.6164 8.675 76.7031 8.69333 76.7864 8.73C76.8697 8.76333 76.9414 8.81167 77.0014 8.875C77.0647 8.935 77.1147 9.00667 77.1514 9.09C77.1881 9.17 77.2064 9.25667 77.2064 9.35ZM80.023 16.08C79.613 16.08 79.2964 15.965 79.073 15.735C78.853 15.505 78.743 15.1767 78.743 14.75V11.71H78.153C78.0964 11.71 78.048 11.6933 78.008 11.66C77.9714 11.6233 77.953 11.57 77.953 11.5V11.105L78.778 10.99L78.998 9.475C79.0114 9.41833 79.0364 9.375 79.073 9.345C79.113 9.31167 79.163 9.295 79.223 9.295H79.718V11H81.158V11.71H79.718V14.685C79.718 14.885 79.7664 15.035 79.863 15.135C79.963 15.2317 80.0897 15.28 80.243 15.28C80.333 15.28 80.4097 15.2683 80.473 15.245C80.5397 15.2217 80.5964 15.1967 80.643 15.17C80.6897 15.14 80.7297 15.1133 80.763 15.09C80.7964 15.0667 80.8264 15.055 80.853 15.055C80.8864 15.055 80.9114 15.0633 80.928 15.08C80.948 15.0933 80.968 15.1167 80.988 15.15L81.278 15.62C81.118 15.7667 80.928 15.88 80.708 15.96C80.488 16.04 80.2597 16.08 80.023 16.08ZM83.0311 11.565C83.2444 11.3483 83.4794 11.1733 83.7361 11.04C83.9961 10.9067 84.2944 10.84 84.6311 10.84C84.9111 10.84 85.1561 10.8867 85.3661 10.98C85.5794 11.0733 85.7578 11.205 85.9011 11.375C86.0444 11.5417 86.1528 11.7433 86.2261 11.98C86.2994 12.2167 86.3361 12.4783 86.3361 12.765V16H85.3561V12.765C85.3561 12.4017 85.2728 12.12 85.1061 11.92C84.9394 11.7167 84.6844 11.615 84.3411 11.615C84.0911 11.615 83.8561 11.675 83.6361 11.795C83.4194 11.9117 83.2178 12.0717 83.0311 12.275V16H82.0561V8.62H83.0311V11.565ZM96.2411 12.505V15.305C95.8778 15.565 95.4911 15.76 95.0811 15.89C94.6711 16.0167 94.2244 16.08 93.7411 16.08C93.1611 16.08 92.6361 15.99 92.1661 15.81C91.6994 15.63 91.3011 15.3783 90.9711 15.055C90.6411 14.7317 90.3861 14.345 90.2061 13.895C90.0294 13.445 89.9411 12.95 89.9411 12.41C89.9411 11.8667 90.0261 11.37 90.1961 10.92C90.3694 10.4667 90.6161 10.08 90.9361 9.76C91.2561 9.43667 91.6428 9.18667 92.0961 9.01C92.5528 8.83 93.0644 8.74 93.6311 8.74C93.9178 8.74 94.1828 8.76167 94.4261 8.805C94.6728 8.84833 94.9011 8.91 95.1111 8.99C95.3211 9.07 95.5144 9.16667 95.6911 9.28C95.8711 9.39 96.0378 9.515 96.1911 9.655L95.8861 10.135C95.8394 10.2117 95.7778 10.26 95.7011 10.28C95.6244 10.3 95.5411 10.2817 95.4511 10.225C95.3644 10.175 95.2678 10.1167 95.1611 10.05C95.0578 9.98333 94.9328 9.92167 94.7861 9.865C94.6428 9.80833 94.4744 9.76 94.2811 9.72C94.0878 9.68 93.8594 9.66 93.5961 9.66C93.2028 9.66 92.8478 9.725 92.5311 9.855C92.2144 9.98167 91.9444 10.165 91.7211 10.405C91.4978 10.645 91.3261 10.935 91.2061 11.275C91.0861 11.6117 91.0261 11.99 91.0261 12.41C91.0261 12.85 91.0894 13.245 91.2161 13.595C91.3428 13.9417 91.5211 14.2367 91.7511 14.48C91.9844 14.72 92.2661 14.9033 92.5961 15.03C92.9294 15.1567 93.3011 15.22 93.7111 15.22C93.8711 15.22 94.0194 15.2117 94.1561 15.195C94.2961 15.175 94.4294 15.1483 94.5561 15.115C94.6828 15.0817 94.8044 15.04 94.9211 14.99C95.0411 14.94 95.1594 14.885 95.2761 14.825V13.32H94.2161C94.1494 13.32 94.0944 13.3 94.0511 13.26C94.0111 13.22 93.9911 13.17 93.9911 13.11V12.505H96.2411ZM99.5824 10.84C99.9558 10.84 100.292 10.9017 100.592 11.025C100.896 11.145 101.152 11.32 101.362 11.55C101.576 11.7767 101.739 12.0517 101.852 12.375C101.966 12.695 102.022 13.055 102.022 13.455C102.022 13.855 101.966 14.2167 101.852 14.54C101.739 14.8633 101.576 15.1383 101.362 15.365C101.152 15.5917 100.896 15.7667 100.592 15.89C100.292 16.01 99.9558 16.07 99.5824 16.07C99.2058 16.07 98.8658 16.01 98.5624 15.89C98.2624 15.7667 98.0058 15.5917 97.7924 15.365C97.5791 15.1383 97.4141 14.8633 97.2974 14.54C97.1841 14.2167 97.1274 13.855 97.1274 13.455C97.1274 13.055 97.1841 12.695 97.2974 12.375C97.4141 12.0517 97.5791 11.7767 97.7924 11.55C98.0058 11.32 98.2624 11.145 98.5624 11.025C98.8658 10.9017 99.2058 10.84 99.5824 10.84ZM99.5824 15.31C100.062 15.31 100.421 15.1483 100.657 14.825C100.894 14.5017 101.012 14.0467 101.012 13.46C101.012 12.8733 100.894 12.4183 100.657 12.095C100.421 11.7683 100.062 11.605 99.5824 11.605C99.0958 11.605 98.7324 11.7683 98.4924 12.095C98.2558 12.4183 98.1374 12.8733 98.1374 13.46C98.1374 14.0467 98.2558 14.5017 98.4924 14.825C98.7324 15.1483 99.0958 15.31 99.5824 15.31ZM105.276 10.84C105.649 10.84 105.986 10.9017 106.286 11.025C106.589 11.145 106.846 11.32 107.056 11.55C107.269 11.7767 107.432 12.0517 107.546 12.375C107.659 12.695 107.716 13.055 107.716 13.455C107.716 13.855 107.659 14.2167 107.546 14.54C107.432 14.8633 107.269 15.1383 107.056 15.365C106.846 15.5917 106.589 15.7667 106.286 15.89C105.986 16.01 105.649 16.07 105.276 16.07C104.899 16.07 104.559 16.01 104.256 15.89C103.956 15.7667 103.699 15.5917 103.486 15.365C103.272 15.1383 103.107 14.8633 102.991 14.54C102.877 14.2167 102.821 13.855 102.821 13.455C102.821 13.055 102.877 12.695 102.991 12.375C103.107 12.0517 103.272 11.7767 103.486 11.55C103.699 11.32 103.956 11.145 104.256 11.025C104.559 10.9017 104.899 10.84 105.276 10.84ZM105.276 15.31C105.756 15.31 106.114 15.1483 106.351 14.825C106.587 14.5017 106.706 14.0467 106.706 13.46C106.706 12.8733 106.587 12.4183 106.351 12.095C106.114 11.7683 105.756 11.605 105.276 11.605C104.789 11.605 104.426 11.7683 104.186 12.095C103.949 12.4183 103.831 12.8733 103.831 13.46C103.831 14.0467 103.949 14.5017 104.186 14.825C104.426 15.1483 104.789 15.31 105.276 15.31ZM110.56 13.465C110.733 13.465 110.885 13.4417 111.015 13.395C111.148 13.3483 111.258 13.2833 111.345 13.2C111.435 13.1133 111.502 13.01 111.545 12.89C111.592 12.77 111.615 12.6383 111.615 12.495C111.615 12.2017 111.525 11.9683 111.345 11.795C111.168 11.6183 110.907 11.53 110.56 11.53C110.217 11.53 109.955 11.6183 109.775 11.795C109.598 11.9683 109.51 12.2017 109.51 12.495C109.51 12.6383 109.532 12.77 109.575 12.89C109.622 13.0067 109.688 13.1083 109.775 13.195C109.865 13.2783 109.975 13.345 110.105 13.395C110.238 13.4417 110.39 13.465 110.56 13.465ZM112.115 16.265C112.115 16.145 112.082 16.05 112.015 15.98C111.948 15.9067 111.857 15.85 111.74 15.81C111.627 15.7667 111.493 15.7367 111.34 15.72C111.187 15.7 111.025 15.685 110.855 15.675C110.688 15.665 110.517 15.6567 110.34 15.65C110.163 15.64 109.993 15.6233 109.83 15.6C109.657 15.6867 109.513 15.7917 109.4 15.915C109.29 16.0383 109.235 16.1833 109.235 16.35C109.235 16.4567 109.262 16.5567 109.315 16.65C109.372 16.7433 109.457 16.8233 109.57 16.89C109.687 16.96 109.832 17.0133 110.005 17.05C110.182 17.09 110.392 17.11 110.635 17.11C110.875 17.11 111.087 17.0883 111.27 17.045C111.453 17.005 111.607 16.9467 111.73 16.87C111.857 16.7967 111.952 16.7083 112.015 16.605C112.082 16.5017 112.115 16.3883 112.115 16.265ZM113.105 11.11V11.475C113.105 11.595 113.03 11.67 112.88 11.7L112.335 11.78C112.382 11.8833 112.418 11.9933 112.445 12.11C112.472 12.2233 112.485 12.3433 112.485 12.47C112.485 12.72 112.437 12.9467 112.34 13.15C112.243 13.35 112.11 13.5217 111.94 13.665C111.77 13.8083 111.567 13.9183 111.33 13.995C111.097 14.0717 110.84 14.11 110.56 14.11C110.33 14.11 110.115 14.085 109.915 14.035C109.815 14.095 109.738 14.1617 109.685 14.235C109.635 14.305 109.61 14.375 109.61 14.445C109.61 14.5617 109.658 14.6483 109.755 14.705C109.855 14.7617 109.983 14.8033 110.14 14.83C110.3 14.8533 110.482 14.8683 110.685 14.875C110.892 14.8817 111.1 14.8933 111.31 14.91C111.523 14.9233 111.732 14.95 111.935 14.99C112.142 15.0267 112.323 15.0883 112.48 15.175C112.64 15.2583 112.768 15.375 112.865 15.525C112.965 15.6717 113.015 15.8633 113.015 16.1C113.015 16.32 112.96 16.5333 112.85 16.74C112.743 16.9467 112.587 17.13 112.38 17.29C112.173 17.45 111.922 17.5783 111.625 17.675C111.328 17.7717 110.992 17.82 110.615 17.82C110.238 17.82 109.91 17.7833 109.63 17.71C109.353 17.6367 109.122 17.5383 108.935 17.415C108.752 17.2917 108.613 17.1483 108.52 16.985C108.43 16.8217 108.385 16.6517 108.385 16.475C108.385 16.2283 108.462 16.02 108.615 15.85C108.768 15.6767 108.98 15.5417 109.25 15.445C109.103 15.3783 108.987 15.2883 108.9 15.175C108.813 15.0583 108.77 14.905 108.77 14.715C108.77 14.6417 108.783 14.5667 108.81 14.49C108.837 14.41 108.877 14.3317 108.93 14.255C108.987 14.175 109.055 14.1 109.135 14.03C109.218 13.96 109.313 13.8967 109.42 13.84C109.17 13.7 108.973 13.515 108.83 13.285C108.687 13.0517 108.615 12.78 108.615 12.47C108.615 12.22 108.663 11.995 108.76 11.795C108.857 11.595 108.99 11.4233 109.16 11.28C109.333 11.1367 109.538 11.0267 109.775 10.95C110.015 10.8733 110.277 10.835 110.56 10.835C111 10.835 111.378 10.9267 111.695 11.11H113.105ZM114.999 8.62V16H114.019V8.62H114.999ZM119.757 12.895C119.757 12.7017 119.729 12.5233 119.672 12.36C119.619 12.1967 119.539 12.055 119.432 11.935C119.325 11.815 119.195 11.7217 119.042 11.655C118.889 11.5883 118.712 11.555 118.512 11.555C118.102 11.555 117.779 11.6733 117.542 11.91C117.309 12.1467 117.16 12.475 117.097 12.895H119.757ZM120.562 15.275C120.442 15.415 120.304 15.5367 120.147 15.64C119.99 15.74 119.824 15.8217 119.647 15.885C119.47 15.9483 119.287 15.995 119.097 16.025C118.91 16.055 118.725 16.07 118.542 16.07C118.192 16.07 117.867 16.0117 117.567 15.895C117.27 15.775 117.012 15.6017 116.792 15.375C116.575 15.145 116.405 14.8617 116.282 14.525C116.162 14.185 116.102 13.795 116.102 13.355C116.102 13.0017 116.157 12.6733 116.267 12.37C116.377 12.0633 116.534 11.7967 116.737 11.57C116.944 11.3433 117.195 11.165 117.492 11.035C117.789 10.905 118.122 10.84 118.492 10.84C118.802 10.84 119.087 10.8917 119.347 10.995C119.61 11.095 119.837 11.2417 120.027 11.435C120.217 11.6283 120.365 11.8667 120.472 12.15C120.582 12.4333 120.637 12.7567 120.637 13.12C120.637 13.27 120.62 13.3717 120.587 13.425C120.554 13.475 120.492 13.5 120.402 13.5H117.072C117.082 13.8033 117.125 14.0683 117.202 14.295C117.279 14.5183 117.384 14.705 117.517 14.855C117.654 15.005 117.815 15.1167 118.002 15.19C118.189 15.2633 118.397 15.3 118.627 15.3C118.844 15.3 119.03 15.275 119.187 15.225C119.347 15.175 119.484 15.1217 119.597 15.065C119.714 15.005 119.81 14.95 119.887 14.9C119.967 14.85 120.037 14.825 120.097 14.825C120.177 14.825 120.239 14.855 120.282 14.915L120.562 15.275Z" fill="white"/>
</svg>
