<svg width="32" height="37" viewBox="0 0 32 37" fill="none" xmlns="http://www.w3.org/2000/svg">
<path d="M8.63 32.03C8.514 31.786 8.346 31.598 8.126 31.466C7.906 31.33 7.65 31.262 7.358 31.262C7.066 31.262 6.802 31.33 6.566 31.466C6.334 31.598 6.15 31.79 6.014 32.042C5.882 32.29 5.816 32.578 5.816 32.906C5.816 33.234 5.882 33.522 6.014 33.77C6.15 34.018 6.334 34.21 6.566 34.346C6.802 34.478 7.066 34.544 7.358 34.544C7.766 34.544 8.102 34.422 8.366 34.178C8.63 33.934 8.784 33.604 8.828 33.188H7.16V32.744H9.41V33.164C9.378 33.508 9.27 33.824 9.086 34.112C8.902 34.396 8.66 34.622 8.36 34.79C8.06 34.954 7.726 35.036 7.358 35.036C6.97 35.036 6.616 34.946 6.296 34.766C5.976 34.582 5.722 34.328 5.534 34.004C5.35 33.68 5.258 33.314 5.258 32.906C5.258 32.498 5.35 32.132 5.534 31.808C5.722 31.48 5.976 31.226 6.296 31.046C6.616 30.862 6.97 30.77 7.358 30.77C7.802 30.77 8.194 30.88 8.534 31.1C8.878 31.32 9.128 31.63 9.284 32.03H8.63ZM10.6779 32.246C10.7739 32.058 10.9099 31.912 11.0859 31.808C11.2659 31.704 11.4839 31.652 11.7399 31.652V32.216H11.5959C10.9839 32.216 10.6779 32.548 10.6779 33.212V35H10.1319V31.712H10.6779V32.246ZM13.8042 35.054C13.4962 35.054 13.2162 34.984 12.9642 34.844C12.7162 34.704 12.5202 34.506 12.3762 34.25C12.2362 33.99 12.1662 33.69 12.1662 33.35C12.1662 33.014 12.2382 32.718 12.3822 32.462C12.5302 32.202 12.7302 32.004 12.9822 31.868C13.2342 31.728 13.5162 31.658 13.8282 31.658C14.1402 31.658 14.4222 31.728 14.6742 31.868C14.9262 32.004 15.1242 32.2 15.2682 32.456C15.4162 32.712 15.4902 33.01 15.4902 33.35C15.4902 33.69 15.4142 33.99 15.2622 34.25C15.1142 34.506 14.9122 34.704 14.6562 34.844C14.4002 34.984 14.1162 35.054 13.8042 35.054ZM13.8042 34.574C14.0002 34.574 14.1842 34.528 14.3562 34.436C14.5282 34.344 14.6662 34.206 14.7702 34.022C14.8782 33.838 14.9322 33.614 14.9322 33.35C14.9322 33.086 14.8802 32.862 14.7762 32.678C14.6722 32.494 14.5362 32.358 14.3682 32.27C14.2002 32.178 14.0182 32.132 13.8222 32.132C13.6222 32.132 13.4382 32.178 13.2702 32.27C13.1062 32.358 12.9742 32.494 12.8742 32.678C12.7742 32.862 12.7242 33.086 12.7242 33.35C12.7242 33.618 12.7722 33.844 12.8682 34.028C12.9682 34.212 13.1002 34.35 13.2642 34.442C13.4282 34.53 13.6082 34.574 13.8042 34.574ZM19.1241 31.712V35H18.5781V34.514C18.4741 34.682 18.3281 34.814 18.1401 34.91C17.9561 35.002 17.7521 35.048 17.5281 35.048C17.2721 35.048 17.0421 34.996 16.8381 34.892C16.6341 34.784 16.4721 34.624 16.3521 34.412C16.2361 34.2 16.1781 33.942 16.1781 33.638V31.712H16.7181V33.566C16.7181 33.89 16.8001 34.14 16.9641 34.316C17.1281 34.488 17.3521 34.574 17.6361 34.574C17.9281 34.574 18.1581 34.484 18.3261 34.304C18.4941 34.124 18.5781 33.862 18.5781 33.518V31.712H19.1241ZM20.592 32.318C20.7 32.13 20.86 31.974 21.072 31.85C21.288 31.722 21.538 31.658 21.822 31.658C22.114 31.658 22.378 31.728 22.614 31.868C22.854 32.008 23.042 32.206 23.178 32.462C23.314 32.714 23.382 33.008 23.382 33.344C23.382 33.676 23.314 33.972 23.178 34.232C23.042 34.492 22.854 34.694 22.614 34.838C22.378 34.982 22.114 35.054 21.822 35.054C21.542 35.054 21.294 34.992 21.078 34.868C20.866 34.74 20.704 34.582 20.592 34.394V36.56H20.046V31.712H20.592V32.318ZM22.824 33.344C22.824 33.096 22.774 32.88 22.674 32.696C22.574 32.512 22.438 32.372 22.266 32.276C22.098 32.18 21.912 32.132 21.708 32.132C21.508 32.132 21.322 32.182 21.15 32.282C20.982 32.378 20.846 32.52 20.742 32.708C20.642 32.892 20.592 33.106 20.592 33.35C20.592 33.598 20.642 33.816 20.742 34.004C20.846 34.188 20.982 34.33 21.15 34.43C21.322 34.526 21.508 34.574 21.708 34.574C21.912 34.574 22.098 34.526 22.266 34.43C22.438 34.33 22.574 34.188 22.674 34.004C22.774 33.816 22.824 33.596 22.824 33.344ZM25.2647 35.054C25.0127 35.054 24.7867 35.012 24.5867 34.928C24.3867 34.84 24.2287 34.72 24.1127 34.568C23.9967 34.412 23.9327 34.234 23.9207 34.034H24.4847C24.5007 34.198 24.5767 34.332 24.7127 34.436C24.8527 34.54 25.0347 34.592 25.2587 34.592C25.4667 34.592 25.6307 34.546 25.7507 34.454C25.8707 34.362 25.9307 34.246 25.9307 34.106C25.9307 33.962 25.8667 33.856 25.7387 33.788C25.6107 33.716 25.4127 33.646 25.1447 33.578C24.9007 33.514 24.7007 33.45 24.5447 33.386C24.3927 33.318 24.2607 33.22 24.1487 33.092C24.0407 32.96 23.9867 32.788 23.9867 32.576C23.9867 32.408 24.0367 32.254 24.1367 32.114C24.2367 31.974 24.3787 31.864 24.5627 31.784C24.7467 31.7 24.9567 31.658 25.1927 31.658C25.5567 31.658 25.8507 31.75 26.0747 31.934C26.2987 32.118 26.4187 32.37 26.4347 32.69H25.8887C25.8767 32.518 25.8067 32.38 25.6787 32.276C25.5547 32.172 25.3867 32.12 25.1747 32.12C24.9787 32.12 24.8227 32.162 24.7067 32.246C24.5907 32.33 24.5327 32.44 24.5327 32.576C24.5327 32.684 24.5667 32.774 24.6347 32.846C24.7067 32.914 24.7947 32.97 24.8987 33.014C25.0067 33.054 25.1547 33.1 25.3427 33.152C25.5787 33.216 25.7707 33.28 25.9187 33.344C26.0667 33.404 26.1927 33.496 26.2967 33.62C26.4047 33.744 26.4607 33.906 26.4647 34.106C26.4647 34.286 26.4147 34.448 26.3147 34.592C26.2147 34.736 26.0727 34.85 25.8887 34.934C25.7087 35.014 25.5007 35.054 25.2647 35.054Z" fill="white"/>
<path d="M9 7C5.7 7 3 9.7 3 13C3 14.984 3.977 16.75 5.469 17.844C2.832 19.152 1 21.864 1 25H3C3 21.676 5.676 19 9 19C12.324 19 15 21.676 15 25H17C17 21.676 19.676 19 23 19C26.324 19 29 21.676 29 25H31C31 21.863 29.168 19.152 26.531 17.844C27.2945 17.2877 27.916 16.5591 28.345 15.7174C28.774 14.8757 28.9984 13.9447 29 13C29 9.7 26.3 7 23 7C19.7 7 17 9.7 17 13C17 14.984 17.977 16.75 19.469 17.844C18.0079 18.5623 16.7986 19.7062 16 21.125C15.2014 19.7062 13.9921 18.5623 12.531 17.844C13.2945 17.2877 13.916 16.5591 14.345 15.7174C14.774 14.8757 14.9984 13.9447 15 13C15 9.7 12.3 7 9 7ZM9 9C11.223 9 13 10.777 13 13C13 15.223 11.223 17 9 17C6.777 17 5 15.223 5 13C5 10.777 6.777 9 9 9ZM23 9C25.223 9 27 10.777 27 13C27 15.223 25.223 17 23 17C20.777 17 19 15.223 19 13C19 10.777 20.777 9 23 9Z" fill="#9855FF"/>
</svg>
