<svg width="233" height="135" viewBox="0 0 233 135" fill="none" xmlns="http://www.w3.org/2000/svg">
<g filter="url(#filter0_d_180_3503)">
<rect x="28.5" y="1.5" width="202" height="131" stroke="url(#paint0_linear_180_3503)" shape-rendering="crispEdges"/>
<path d="M73.248 30.848L70.016 42H68.384L65.792 33.024L63.104 42L61.488 42.016L58.368 30.848H59.92L62.352 40.304L65.04 30.848H66.672L69.232 40.272L71.68 30.848H73.248ZM74.2974 37.584C74.2974 36.688 74.4787 35.904 74.8414 35.232C75.204 34.5493 75.7 34.0213 76.3294 33.648C76.9694 33.2747 77.6787 33.088 78.4574 33.088C79.2254 33.088 79.892 33.2533 80.4574 33.584C81.0227 33.9147 81.444 34.3307 81.7214 34.832V33.232H83.1934V42H81.7214V40.368C81.4334 40.88 81.0014 41.3067 80.4254 41.648C79.86 41.9787 79.1987 42.144 78.4414 42.144C77.6627 42.144 76.9587 41.952 76.3294 41.568C75.7 41.184 75.204 40.6453 74.8414 39.952C74.4787 39.2587 74.2974 38.4693 74.2974 37.584ZM81.7214 37.6C81.7214 36.9387 81.588 36.3627 81.3214 35.872C81.0547 35.3813 80.692 35.008 80.2334 34.752C79.7854 34.4853 79.2894 34.352 78.7454 34.352C78.2014 34.352 77.7054 34.48 77.2574 34.736C76.8094 34.992 76.452 35.3653 76.1854 35.856C75.9187 36.3467 75.7854 36.9227 75.7854 37.584C75.7854 38.256 75.9187 38.8427 76.1854 39.344C76.452 39.8347 76.8094 40.2133 77.2574 40.48C77.7054 40.736 78.2014 40.864 78.7454 40.864C79.2894 40.864 79.7854 40.736 80.2334 40.48C80.692 40.2133 81.0547 39.8347 81.3214 39.344C81.588 38.8427 81.7214 38.2613 81.7214 37.6ZM87.1099 30.16V42H85.6539V30.16H87.1099ZM94.4874 42L91.0474 38.128V42H89.5914V30.16H91.0474V37.12L94.4234 33.232H96.4554L92.3274 37.6L96.4714 42H94.4874ZM101.675 40.832C103.03 39.744 104.091 38.8533 104.859 38.16C105.627 37.456 106.273 36.7253 106.795 35.968C107.329 35.2 107.595 34.448 107.595 33.712C107.595 33.0187 107.425 32.4747 107.083 32.08C106.753 31.6747 106.214 31.472 105.467 31.472C104.742 31.472 104.177 31.7013 103.771 32.16C103.377 32.608 103.163 33.2107 103.131 33.968H101.723C101.766 32.7733 102.129 31.8507 102.811 31.2C103.494 30.5493 104.374 30.224 105.451 30.224C106.55 30.224 107.419 30.528 108.059 31.136C108.71 31.744 109.035 32.5813 109.035 33.648C109.035 34.5333 108.769 35.3973 108.235 36.24C107.713 37.072 107.115 37.808 106.443 38.448C105.771 39.0773 104.913 39.8133 103.867 40.656H109.371V41.872H101.675V40.832ZM117.016 32.032V35.76H121.08V36.96H117.016V40.8H121.56V42H115.56V30.832H121.56V32.032H117.016ZM123.219 37.584C123.219 36.688 123.401 35.904 123.763 35.232C124.126 34.5493 124.622 34.0213 125.251 33.648C125.891 33.2747 126.601 33.088 127.379 33.088C128.147 33.088 128.814 33.2533 129.379 33.584C129.945 33.9147 130.366 34.3307 130.643 34.832V33.232H132.115V42H130.643V40.368C130.355 40.88 129.923 41.3067 129.347 41.648C128.782 41.9787 128.121 42.144 127.363 42.144C126.585 42.144 125.881 41.952 125.251 41.568C124.622 41.184 124.126 40.6453 123.763 39.952C123.401 39.2587 123.219 38.4693 123.219 37.584ZM130.643 37.6C130.643 36.9387 130.51 36.3627 130.243 35.872C129.977 35.3813 129.614 35.008 129.155 34.752C128.707 34.4853 128.211 34.352 127.667 34.352C127.123 34.352 126.627 34.48 126.179 34.736C125.731 34.992 125.374 35.3653 125.107 35.856C124.841 36.3467 124.707 36.9227 124.707 37.584C124.707 38.256 124.841 38.8427 125.107 39.344C125.374 39.8347 125.731 40.2133 126.179 40.48C126.627 40.736 127.123 40.864 127.667 40.864C128.211 40.864 128.707 40.736 129.155 40.48C129.614 40.2133 129.977 39.8347 130.243 39.344C130.51 38.8427 130.643 38.2613 130.643 37.6ZM136.032 34.656C136.288 34.1547 136.65 33.7653 137.12 33.488C137.6 33.2107 138.181 33.072 138.864 33.072V34.576H138.48C136.848 34.576 136.032 35.4613 136.032 37.232V42H134.576V33.232H136.032V34.656ZM144.817 33.072C145.883 33.072 146.747 33.3973 147.409 34.048C148.07 34.688 148.401 35.616 148.401 36.832V42H146.961V37.04C146.961 36.1653 146.742 35.4987 146.305 35.04C145.867 34.5707 145.27 34.336 144.513 34.336C143.745 34.336 143.131 34.576 142.673 35.056C142.225 35.536 142.001 36.2347 142.001 37.152V42H140.545V33.232H142.001V34.48C142.289 34.032 142.678 33.6853 143.169 33.44C143.67 33.1947 144.219 33.072 144.817 33.072ZM65.104 62L62.448 57.44H60.688V62H59.232V50.848H62.832C63.6747 50.848 64.384 50.992 64.96 51.28C65.5467 51.568 65.984 51.9573 66.272 52.448C66.56 52.9387 66.704 53.4987 66.704 54.128C66.704 54.896 66.48 55.5733 66.032 56.16C65.5947 56.7467 64.9333 57.136 64.048 57.328L66.848 62H65.104ZM60.688 56.272H62.832C63.6213 56.272 64.2133 56.08 64.608 55.696C65.0027 55.3013 65.2 54.7787 65.2 54.128C65.2 53.4667 65.0027 52.9547 64.608 52.592C64.224 52.2293 63.632 52.048 62.832 52.048H60.688V56.272ZM76.9664 57.28C76.9664 57.5573 76.9504 57.8507 76.9184 58.16H69.9104C69.9637 59.024 70.257 59.7013 70.7904 60.192C71.3344 60.672 71.9904 60.912 72.7584 60.912C73.3877 60.912 73.9104 60.768 74.3264 60.48C74.753 60.1813 75.0517 59.7867 75.2224 59.296H76.7904C76.5557 60.1387 76.0864 60.8267 75.3824 61.36C74.6784 61.8827 73.8037 62.144 72.7584 62.144C71.9264 62.144 71.1797 61.9573 70.5184 61.584C69.8677 61.2107 69.3557 60.6827 68.9824 60C68.609 59.3067 68.4224 58.5067 68.4224 57.6C68.4224 56.6933 68.6037 55.8987 68.9664 55.216C69.329 54.5333 69.8357 54.0107 70.4864 53.648C71.1477 53.2747 71.905 53.088 72.7584 53.088C73.5904 53.088 74.3264 53.2693 74.9664 53.632C75.6064 53.9947 76.097 54.496 76.4384 55.136C76.7904 55.7653 76.9664 56.48 76.9664 57.28ZM75.4624 56.976C75.4624 56.4213 75.3397 55.9467 75.0944 55.552C74.849 55.1467 74.513 54.8427 74.0864 54.64C73.6704 54.4267 73.2064 54.32 72.6944 54.32C71.9584 54.32 71.329 54.5547 70.8064 55.024C70.2944 55.4933 70.001 56.144 69.9264 56.976H75.4624ZM82.4563 54.432H80.6163V62H79.1603V54.432H78.0243V53.232H79.1603V52.608C79.1603 51.6267 79.4109 50.912 79.9123 50.464C80.4243 50.0053 81.2403 49.776 82.3602 49.776V50.992C81.7203 50.992 81.2669 51.12 81.0003 51.376C80.7443 51.6213 80.6163 52.032 80.6163 52.608V53.232H82.4563V54.432ZM92.1539 57.28C92.1539 57.5573 92.1379 57.8507 92.1059 58.16H85.0979C85.1512 59.024 85.4445 59.7013 85.9779 60.192C86.5219 60.672 87.1779 60.912 87.9459 60.912C88.5752 60.912 89.0979 60.768 89.5139 60.48C89.9405 60.1813 90.2392 59.7867 90.4099 59.296H91.9779C91.7432 60.1387 91.2739 60.8267 90.5699 61.36C89.8659 61.8827 88.9912 62.144 87.9459 62.144C87.1139 62.144 86.3672 61.9573 85.7059 61.584C85.0552 61.2107 84.5432 60.6827 84.1699 60C83.7965 59.3067 83.6099 58.5067 83.6099 57.6C83.6099 56.6933 83.7912 55.8987 84.1539 55.216C84.5165 54.5333 85.0232 54.0107 85.6739 53.648C86.3352 53.2747 87.0925 53.088 87.9459 53.088C88.7779 53.088 89.5139 53.2693 90.1539 53.632C90.7939 53.9947 91.2845 54.496 91.6259 55.136C91.9779 55.7653 92.1539 56.48 92.1539 57.28ZM90.6499 56.976C90.6499 56.4213 90.5272 55.9467 90.2819 55.552C90.0365 55.1467 89.7005 54.8427 89.2739 54.64C88.8579 54.4267 88.3939 54.32 87.8819 54.32C87.1459 54.32 86.5165 54.5547 85.9939 55.024C85.4819 55.4933 85.1885 56.144 85.1139 56.976H90.6499ZM95.5318 54.656C95.7878 54.1547 96.1504 53.7653 96.6198 53.488C97.0998 53.2107 97.6811 53.072 98.3638 53.072V54.576H97.9798C96.3478 54.576 95.5318 55.4613 95.5318 57.232V62H94.0758V53.232H95.5318V54.656ZM101.501 54.656C101.757 54.1547 102.119 53.7653 102.589 53.488C103.069 53.2107 103.65 53.072 104.333 53.072V54.576H103.949C102.317 54.576 101.501 55.4613 101.501 57.232V62H100.045V53.232H101.501V54.656ZM105.469 57.584C105.469 56.688 105.651 55.904 106.013 55.232C106.376 54.5493 106.872 54.0213 107.501 53.648C108.141 53.2747 108.851 53.088 109.629 53.088C110.397 53.088 111.064 53.2533 111.629 53.584C112.195 53.9147 112.616 54.3307 112.893 54.832V53.232H114.365V62H112.893V60.368C112.605 60.88 112.173 61.3067 111.597 61.648C111.032 61.9787 110.371 62.144 109.613 62.144C108.835 62.144 108.131 61.952 107.501 61.568C106.872 61.184 106.376 60.6453 106.013 59.952C105.651 59.2587 105.469 58.4693 105.469 57.584ZM112.893 57.6C112.893 56.9387 112.76 56.3627 112.493 55.872C112.227 55.3813 111.864 55.008 111.405 54.752C110.957 54.4853 110.461 54.352 109.917 54.352C109.373 54.352 108.877 54.48 108.429 54.736C107.981 54.992 107.624 55.3653 107.357 55.856C107.091 56.3467 106.957 56.9227 106.957 57.584C106.957 58.256 107.091 58.8427 107.357 59.344C107.624 59.8347 107.981 60.2133 108.429 60.48C108.877 60.736 109.373 60.864 109.917 60.864C110.461 60.864 110.957 60.736 111.405 60.48C111.864 60.2133 112.227 59.8347 112.493 59.344C112.76 58.8427 112.893 58.2613 112.893 57.6ZM118.282 50.16V62H116.826V50.16H118.282ZM128.565 62.112C127.829 62.112 127.168 61.984 126.581 61.728C126.005 61.4613 125.552 61.0987 125.221 60.64C124.89 60.1707 124.72 59.632 124.709 59.024H126.261C126.314 59.5467 126.528 59.9893 126.901 60.352C127.285 60.704 127.84 60.88 128.565 60.88C129.258 60.88 129.802 60.7093 130.197 60.368C130.602 60.016 130.805 59.568 130.805 59.024C130.805 58.5973 130.688 58.2507 130.453 57.984C130.218 57.7173 129.925 57.5147 129.573 57.376C129.221 57.2373 128.746 57.088 128.149 56.928C127.413 56.736 126.821 56.544 126.373 56.352C125.936 56.16 125.557 55.8613 125.237 55.456C124.928 55.04 124.773 54.4853 124.773 53.792C124.773 53.184 124.928 52.6453 125.237 52.176C125.546 51.7067 125.978 51.344 126.533 51.088C127.098 50.832 127.744 50.704 128.469 50.704C129.514 50.704 130.368 50.9653 131.029 51.488C131.701 52.0107 132.08 52.704 132.165 53.568H130.565C130.512 53.1413 130.288 52.768 129.893 52.448C129.498 52.1173 128.976 51.952 128.325 51.952C127.717 51.952 127.221 52.112 126.837 52.432C126.453 52.7413 126.261 53.1787 126.261 53.744C126.261 54.1493 126.373 54.48 126.597 54.736C126.832 54.992 127.114 55.1893 127.445 55.328C127.786 55.456 128.261 55.6053 128.869 55.776C129.605 55.9787 130.197 56.1813 130.645 56.384C131.093 56.576 131.477 56.88 131.797 57.296C132.117 57.7013 132.277 58.256 132.277 58.96C132.277 59.504 132.133 60.016 131.845 60.496C131.557 60.976 131.13 61.3653 130.565 61.664C130 61.9627 129.333 62.112 128.565 62.112ZM141.972 53.232L136.692 66.128H135.188L136.916 61.904L133.38 53.232H134.996L137.748 60.336L140.468 53.232H141.972ZM146.539 62.144C145.867 62.144 145.264 62.032 144.731 61.808C144.198 61.5733 143.776 61.2533 143.467 60.848C143.158 60.432 142.987 59.9573 142.955 59.424H144.459C144.502 59.8613 144.704 60.2187 145.067 60.496C145.44 60.7733 145.926 60.912 146.523 60.912C147.078 60.912 147.515 60.7893 147.835 60.544C148.155 60.2987 148.315 59.9893 148.315 59.616C148.315 59.232 148.144 58.9493 147.803 58.768C147.462 58.576 146.934 58.3893 146.219 58.208C145.568 58.0373 145.035 57.8667 144.619 57.696C144.214 57.5147 143.862 57.2533 143.563 56.912C143.275 56.56 143.131 56.1013 143.131 55.536C143.131 55.088 143.264 54.6773 143.531 54.304C143.798 53.9307 144.176 53.6373 144.667 53.424C145.158 53.2 145.718 53.088 146.347 53.088C147.318 53.088 148.102 53.3333 148.699 53.824C149.296 54.3147 149.616 54.9867 149.659 55.84H148.203C148.171 55.3813 147.984 55.0133 147.643 54.736C147.312 54.4587 146.864 54.32 146.299 54.32C145.776 54.32 145.36 54.432 145.051 54.656C144.742 54.88 144.587 55.1733 144.587 55.536C144.587 55.824 144.678 56.064 144.859 56.256C145.051 56.4373 145.286 56.5867 145.563 56.704C145.851 56.8107 146.246 56.9333 146.747 57.072C147.376 57.2427 147.888 57.4133 148.283 57.584C148.678 57.744 149.014 57.9893 149.291 58.32C149.579 58.6507 149.728 59.0827 149.739 59.616C149.739 60.096 149.606 60.528 149.339 60.912C149.072 61.296 148.694 61.6 148.203 61.824C147.723 62.0373 147.168 62.144 146.539 62.144ZM153.571 54.432V59.6C153.571 60.0267 153.661 60.3307 153.843 60.512C154.024 60.6827 154.339 60.768 154.786 60.768H155.859V62H154.547C153.736 62 153.128 61.8133 152.723 61.44C152.317 61.0667 152.115 60.4533 152.115 59.6V54.432H150.979V53.232H152.115V51.024H153.571V53.232H155.859V54.432H153.571ZM165.623 57.28C165.623 57.5573 165.607 57.8507 165.575 58.16H158.567C158.62 59.024 158.913 59.7013 159.447 60.192C159.991 60.672 160.647 60.912 161.415 60.912C162.044 60.912 162.567 60.768 162.983 60.48C163.409 60.1813 163.708 59.7867 163.879 59.296H165.447C165.212 60.1387 164.743 60.8267 164.039 61.36C163.335 61.8827 162.46 62.144 161.415 62.144C160.583 62.144 159.836 61.9573 159.175 61.584C158.524 61.2107 158.012 60.6827 157.639 60C157.265 59.3067 157.079 58.5067 157.079 57.6C157.079 56.6933 157.26 55.8987 157.623 55.216C157.985 54.5333 158.492 54.0107 159.143 53.648C159.804 53.2747 160.561 53.088 161.415 53.088C162.247 53.088 162.983 53.2693 163.623 53.632C164.263 53.9947 164.753 54.496 165.095 55.136C165.447 55.7653 165.623 56.48 165.623 57.28ZM164.119 56.976C164.119 56.4213 163.996 55.9467 163.751 55.552C163.505 55.1467 163.169 54.8427 162.743 54.64C162.327 54.4267 161.863 54.32 161.351 54.32C160.615 54.32 159.985 54.5547 159.463 55.024C158.951 55.4933 158.657 56.144 158.583 56.976H164.119ZM178.089 53.072C178.771 53.072 179.379 53.216 179.913 53.504C180.446 53.7813 180.867 54.2027 181.177 54.768C181.486 55.3333 181.641 56.0213 181.641 56.832V62H180.201V57.04C180.201 56.1653 179.982 55.4987 179.545 55.04C179.118 54.5707 178.537 54.336 177.801 54.336C177.043 54.336 176.441 54.5813 175.993 55.072C175.545 55.552 175.321 56.2507 175.321 57.168V62H173.881V57.04C173.881 56.1653 173.662 55.4987 173.225 55.04C172.798 54.5707 172.217 54.336 171.481 54.336C170.723 54.336 170.121 54.5813 169.673 55.072C169.225 55.552 169.001 56.2507 169.001 57.168V62H167.545V53.232H169.001V54.496C169.289 54.0373 169.673 53.6853 170.153 53.44C170.643 53.1947 171.182 53.072 171.769 53.072C172.505 53.072 173.155 53.2373 173.721 53.568C174.286 53.8987 174.707 54.384 174.985 55.024C175.23 54.4053 175.635 53.9253 176.201 53.584C176.766 53.2427 177.395 53.072 178.089 53.072ZM60.688 72.032V75.76H64.752V76.96H60.688V80.8H65.232V82H59.232V70.832H65.232V72.032H60.688ZM66.8911 77.584C66.8911 76.688 67.0725 75.904 67.4351 75.232C67.7978 74.5493 68.2938 74.0213 68.9231 73.648C69.5631 73.2747 70.2725 73.088 71.0511 73.088C71.8191 73.088 72.4858 73.2533 73.0511 73.584C73.6165 73.9147 74.0378 74.3307 74.3151 74.832V73.232H75.7871V82H74.3151V80.368C74.0271 80.88 73.5951 81.3067 73.0191 81.648C72.4538 81.9787 71.7925 82.144 71.0351 82.144C70.2565 82.144 69.5525 81.952 68.9231 81.568C68.2938 81.184 67.7978 80.6453 67.4351 79.952C67.0725 79.2587 66.8911 78.4693 66.8911 77.584ZM74.3151 77.6C74.3151 76.9387 74.1818 76.3627 73.9151 75.872C73.6485 75.3813 73.2858 75.008 72.8271 74.752C72.3791 74.4853 71.8831 74.352 71.3391 74.352C70.7951 74.352 70.2991 74.48 69.8511 74.736C69.4031 74.992 69.0458 75.3653 68.7791 75.856C68.5125 76.3467 68.3791 76.9227 68.3791 77.584C68.3791 78.256 68.5125 78.8427 68.7791 79.344C69.0458 79.8347 69.4031 80.2133 69.8511 80.48C70.2991 80.736 70.7951 80.864 71.3391 80.864C71.8831 80.864 72.3791 80.736 72.8271 80.48C73.2858 80.2133 73.6485 79.8347 73.9151 79.344C74.1818 78.8427 74.3151 78.2613 74.3151 77.6ZM79.7036 74.656C79.9596 74.1547 80.3223 73.7653 80.7916 73.488C81.2716 73.2107 81.853 73.072 82.5356 73.072V74.576H82.1516C80.5196 74.576 79.7036 75.4613 79.7036 77.232V82H78.2476V73.232H79.7036V74.656ZM88.4884 73.072C89.555 73.072 90.419 73.3973 91.0804 74.048C91.7417 74.688 92.0724 75.616 92.0724 76.832V82H90.6324V77.04C90.6324 76.1653 90.4137 75.4987 89.9764 75.04C89.539 74.5707 88.9417 74.336 88.1844 74.336C87.4164 74.336 86.803 74.576 86.3444 75.056C85.8964 75.536 85.6724 76.2347 85.6724 77.152V82H84.2164V73.232H85.6724V74.48C85.9604 74.032 86.3497 73.6853 86.8404 73.44C87.3417 73.1947 87.891 73.072 88.4884 73.072ZM105.58 70.848V72.032H102.54V82H101.084V72.032H98.0284V70.848H105.58ZM106.829 77.584C106.829 76.688 107.01 75.904 107.373 75.232C107.735 74.5493 108.231 74.0213 108.861 73.648C109.501 73.2747 110.21 73.088 110.989 73.088C111.757 73.088 112.423 73.2533 112.989 73.584C113.554 73.9147 113.975 74.3307 114.253 74.832V73.232H115.725V82H114.253V80.368C113.965 80.88 113.533 81.3067 112.957 81.648C112.391 81.9787 111.73 82.144 110.973 82.144C110.194 82.144 109.49 81.952 108.861 81.568C108.231 81.184 107.735 80.6453 107.373 79.952C107.01 79.2587 106.829 78.4693 106.829 77.584ZM114.253 77.6C114.253 76.9387 114.119 76.3627 113.853 75.872C113.586 75.3813 113.223 75.008 112.765 74.752C112.317 74.4853 111.821 74.352 111.277 74.352C110.733 74.352 110.237 74.48 109.789 74.736C109.341 74.992 108.983 75.3653 108.717 75.856C108.45 76.3467 108.317 76.9227 108.317 77.584C108.317 78.256 108.45 78.8427 108.717 79.344C108.983 79.8347 109.341 80.2133 109.789 80.48C110.237 80.736 110.733 80.864 111.277 80.864C111.821 80.864 112.317 80.736 112.765 80.48C113.223 80.2133 113.586 79.8347 113.853 79.344C114.119 78.8427 114.253 78.2613 114.253 77.6ZM121.289 82.144C120.617 82.144 120.014 82.032 119.481 81.808C118.948 81.5733 118.526 81.2533 118.217 80.848C117.908 80.432 117.737 79.9573 117.705 79.424H119.209C119.252 79.8613 119.454 80.2187 119.817 80.496C120.19 80.7733 120.676 80.912 121.273 80.912C121.828 80.912 122.265 80.7893 122.585 80.544C122.905 80.2987 123.065 79.9893 123.065 79.616C123.065 79.232 122.894 78.9493 122.553 78.768C122.212 78.576 121.684 78.3893 120.969 78.208C120.318 78.0373 119.785 77.8667 119.369 77.696C118.964 77.5147 118.612 77.2533 118.313 76.912C118.025 76.56 117.881 76.1013 117.881 75.536C117.881 75.088 118.014 74.6773 118.281 74.304C118.548 73.9307 118.926 73.6373 119.417 73.424C119.908 73.2 120.468 73.088 121.097 73.088C122.068 73.088 122.852 73.3333 123.449 73.824C124.046 74.3147 124.366 74.9867 124.409 75.84H122.953C122.921 75.3813 122.734 75.0133 122.393 74.736C122.062 74.4587 121.614 74.32 121.049 74.32C120.526 74.32 120.11 74.432 119.801 74.656C119.492 74.88 119.337 75.1733 119.337 75.536C119.337 75.824 119.428 76.064 119.609 76.256C119.801 76.4373 120.036 76.5867 120.313 76.704C120.601 76.8107 120.996 76.9333 121.497 77.072C122.126 77.2427 122.638 77.4133 123.033 77.584C123.428 77.744 123.764 77.9893 124.041 78.32C124.329 78.6507 124.478 79.0827 124.489 79.616C124.489 80.096 124.356 80.528 124.089 80.912C123.822 81.296 123.444 81.6 122.953 81.824C122.473 82.0373 121.918 82.144 121.289 82.144ZM131.441 82L128.001 78.128V82H126.545V70.16H128.001V77.12L131.377 73.232H133.409L129.281 77.6L133.425 82H131.441ZM73.248 90.848L70.016 102H68.384L65.792 93.024L63.104 102L61.488 102.016L58.368 90.848H59.92L62.352 100.304L65.04 90.848H66.672L69.232 100.272L71.68 90.848H73.248ZM74.2974 97.584C74.2974 96.688 74.4787 95.904 74.8414 95.232C75.204 94.5493 75.7 94.0213 76.3294 93.648C76.9694 93.2747 77.6787 93.088 78.4574 93.088C79.2254 93.088 79.892 93.2533 80.4574 93.584C81.0227 93.9147 81.444 94.3307 81.7214 94.832V93.232H83.1934V102H81.7214V100.368C81.4334 100.88 81.0014 101.307 80.4254 101.648C79.86 101.979 79.1987 102.144 78.4414 102.144C77.6627 102.144 76.9587 101.952 76.3294 101.568C75.7 101.184 75.204 100.645 74.8414 99.952C74.4787 99.2587 74.2974 98.4693 74.2974 97.584ZM81.7214 97.6C81.7214 96.9387 81.588 96.3627 81.3214 95.872C81.0547 95.3813 80.692 95.008 80.2334 94.752C79.7854 94.4853 79.2894 94.352 78.7454 94.352C78.2014 94.352 77.7054 94.48 77.2574 94.736C76.8094 94.992 76.452 95.3653 76.1854 95.856C75.9187 96.3467 75.7854 96.9227 75.7854 97.584C75.7854 98.256 75.9187 98.8427 76.1854 99.344C76.452 99.8347 76.8094 100.213 77.2574 100.48C77.7054 100.736 78.2014 100.864 78.7454 100.864C79.2894 100.864 79.7854 100.736 80.2334 100.48C80.692 100.213 81.0547 99.8347 81.3214 99.344C81.588 98.8427 81.7214 98.2613 81.7214 97.6ZM87.1099 90.16V102H85.6539V90.16H87.1099ZM91.0474 90.16V102H89.5914V90.16H91.0474ZM101.529 97.28C101.529 97.5573 101.513 97.8507 101.481 98.16H94.4729C94.5262 99.024 94.8195 99.7013 95.3529 100.192C95.8969 100.672 96.5529 100.912 97.3209 100.912C97.9502 100.912 98.4729 100.768 98.8889 100.48C99.3155 100.181 99.6142 99.7867 99.7849 99.296H101.353C101.118 100.139 100.649 100.827 99.9449 101.36C99.2409 101.883 98.3662 102.144 97.3209 102.144C96.4889 102.144 95.7422 101.957 95.0809 101.584C94.4302 101.211 93.9182 100.683 93.5449 100C93.1715 99.3067 92.9849 98.5067 92.9849 97.6C92.9849 96.6933 93.1662 95.8987 93.5289 95.216C93.8915 94.5333 94.3982 94.0107 95.0489 93.648C95.7102 93.2747 96.4675 93.088 97.3209 93.088C98.1529 93.088 98.8889 93.2693 99.5289 93.632C100.169 93.9947 100.66 94.496 101.001 95.136C101.353 95.7653 101.529 96.48 101.529 97.28ZM100.025 96.976C100.025 96.4213 99.9022 95.9467 99.6569 95.552C99.4115 95.1467 99.0755 94.8427 98.6489 94.64C98.2329 94.4267 97.7689 94.32 97.2569 94.32C96.5209 94.32 95.8915 94.5547 95.3689 95.024C94.8569 95.4933 94.5635 96.144 94.4889 96.976H100.025ZM105.227 94.432V99.6C105.227 100.027 105.317 100.331 105.499 100.512C105.68 100.683 105.995 100.768 106.443 100.768H107.515V102H106.203C105.392 102 104.784 101.813 104.379 101.44C103.973 101.067 103.771 100.453 103.771 99.6V94.432H102.635V93.232H103.771V91.024H105.227V93.232H107.515V94.432H105.227ZM114.297 91.808C114.019 91.808 113.785 91.712 113.593 91.52C113.401 91.328 113.305 91.0933 113.305 90.816C113.305 90.5387 113.401 90.304 113.593 90.112C113.785 89.92 114.019 89.824 114.297 89.824C114.563 89.824 114.787 89.92 114.969 90.112C115.161 90.304 115.257 90.5387 115.257 90.816C115.257 91.0933 115.161 91.328 114.969 91.52C114.787 91.712 114.563 91.808 114.297 91.808ZM115.001 93.232V102H113.545V93.232H115.001ZM121.754 93.072C122.821 93.072 123.685 93.3973 124.346 94.048C125.007 94.688 125.338 95.616 125.338 96.832V102H123.898V97.04C123.898 96.1653 123.679 95.4987 123.242 95.04C122.805 94.5707 122.207 94.336 121.45 94.336C120.682 94.336 120.069 94.576 119.61 95.056C119.162 95.536 118.938 96.2347 118.938 97.152V102H117.482V93.232H118.938V94.48C119.226 94.032 119.615 93.6853 120.106 93.44C120.607 93.1947 121.157 93.072 121.754 93.072ZM129.492 94.432V99.6C129.492 100.027 129.583 100.331 129.764 100.512C129.946 100.683 130.26 100.768 130.708 100.768H131.78V102H130.468C129.658 102 129.05 101.813 128.644 101.44C128.239 101.067 128.036 100.453 128.036 99.6V94.432H126.9V93.232H128.036V91.024H129.492V93.232H131.78V94.432H129.492ZM141.545 97.28C141.545 97.5573 141.529 97.8507 141.497 98.16H134.489C134.542 99.024 134.835 99.7013 135.369 100.192C135.913 100.672 136.569 100.912 137.337 100.912C137.966 100.912 138.489 100.768 138.905 100.48C139.331 100.181 139.63 99.7867 139.801 99.296H141.369C141.134 100.139 140.665 100.827 139.961 101.36C139.257 101.883 138.382 102.144 137.337 102.144C136.505 102.144 135.758 101.957 135.097 101.584C134.446 101.211 133.934 100.683 133.561 100C133.187 99.3067 133.001 98.5067 133.001 97.6C133.001 96.6933 133.182 95.8987 133.545 95.216C133.907 94.5333 134.414 94.0107 135.065 93.648C135.726 93.2747 136.483 93.088 137.337 93.088C138.169 93.088 138.905 93.2693 139.545 93.632C140.185 93.9947 140.675 94.496 141.017 95.136C141.369 95.7653 141.545 96.48 141.545 97.28ZM140.041 96.976C140.041 96.4213 139.918 95.9467 139.673 95.552C139.427 95.1467 139.091 94.8427 138.665 94.64C138.249 94.4267 137.785 94.32 137.273 94.32C136.537 94.32 135.907 94.5547 135.385 95.024C134.873 95.4933 134.579 96.144 134.505 96.976H140.041ZM147.082 93.088C147.84 93.088 148.501 93.2533 149.066 93.584C149.642 93.9147 150.069 94.3307 150.346 94.832V93.232H151.818V102.192C151.818 102.992 151.648 103.701 151.306 104.32C150.965 104.949 150.474 105.44 149.834 105.792C149.205 106.144 148.469 106.32 147.626 106.32C146.474 106.32 145.514 106.048 144.746 105.504C143.978 104.96 143.525 104.219 143.386 103.28H144.826C144.986 103.813 145.317 104.24 145.818 104.56C146.32 104.891 146.922 105.056 147.626 105.056C148.426 105.056 149.077 104.805 149.578 104.304C150.09 103.803 150.346 103.099 150.346 102.192V100.352C150.058 100.864 149.632 101.291 149.066 101.632C148.501 101.973 147.84 102.144 147.082 102.144C146.304 102.144 145.594 101.952 144.954 101.568C144.325 101.184 143.829 100.645 143.466 99.952C143.104 99.2587 142.922 98.4693 142.922 97.584C142.922 96.688 143.104 95.904 143.466 95.232C143.829 94.5493 144.325 94.0213 144.954 93.648C145.594 93.2747 146.304 93.088 147.082 93.088ZM150.346 97.6C150.346 96.9387 150.213 96.3627 149.946 95.872C149.68 95.3813 149.317 95.008 148.858 94.752C148.41 94.4853 147.914 94.352 147.37 94.352C146.826 94.352 146.33 94.48 145.882 94.736C145.434 94.992 145.077 95.3653 144.81 95.856C144.544 96.3467 144.41 96.9227 144.41 97.584C144.41 98.256 144.544 98.8427 144.81 99.344C145.077 99.8347 145.434 100.213 145.882 100.48C146.33 100.736 146.826 100.864 147.37 100.864C147.914 100.864 148.41 100.736 148.858 100.48C149.317 100.213 149.68 99.8347 149.946 99.344C150.213 98.8427 150.346 98.2613 150.346 97.6ZM155.735 94.656C155.991 94.1547 156.354 93.7653 156.823 93.488C157.303 93.2107 157.884 93.072 158.567 93.072V94.576H158.183C156.551 94.576 155.735 95.4613 155.735 97.232V102H154.279V93.232H155.735V94.656ZM159.704 97.584C159.704 96.688 159.885 95.904 160.248 95.232C160.61 94.5493 161.106 94.0213 161.736 93.648C162.376 93.2747 163.085 93.088 163.864 93.088C164.632 93.088 165.298 93.2533 165.864 93.584C166.429 93.9147 166.85 94.3307 167.128 94.832V93.232H168.6V102H167.128V100.368C166.84 100.88 166.408 101.307 165.832 101.648C165.266 101.979 164.605 102.144 163.848 102.144C163.069 102.144 162.365 101.952 161.736 101.568C161.106 101.184 160.61 100.645 160.248 99.952C159.885 99.2587 159.704 98.4693 159.704 97.584ZM167.128 97.6C167.128 96.9387 166.994 96.3627 166.728 95.872C166.461 95.3813 166.098 95.008 165.64 94.752C165.192 94.4853 164.696 94.352 164.152 94.352C163.608 94.352 163.112 94.48 162.664 94.736C162.216 94.992 161.858 95.3653 161.592 95.856C161.325 96.3467 161.192 96.9227 161.192 97.584C161.192 98.256 161.325 98.8427 161.592 99.344C161.858 99.8347 162.216 100.213 162.664 100.48C163.112 100.736 163.608 100.864 164.152 100.864C164.696 100.864 165.192 100.736 165.64 100.48C166.098 100.213 166.461 99.8347 166.728 99.344C166.994 98.8427 167.128 98.2613 167.128 97.6ZM172.836 94.432V99.6C172.836 100.027 172.927 100.331 173.108 100.512C173.289 100.683 173.604 100.768 174.052 100.768H175.124V102H173.812C173.001 102 172.393 101.813 171.988 101.44C171.583 101.067 171.38 100.453 171.38 99.6V94.432H170.244V93.232H171.38V91.024H172.836V93.232H175.124V94.432H172.836ZM177.64 91.808C177.363 91.808 177.128 91.712 176.936 91.52C176.744 91.328 176.648 91.0933 176.648 90.816C176.648 90.5387 176.744 90.304 176.936 90.112C177.128 89.92 177.363 89.824 177.64 89.824C177.907 89.824 178.131 89.92 178.312 90.112C178.504 90.304 178.6 90.5387 178.6 90.816C178.6 91.0933 178.504 91.328 178.312 91.52C178.131 91.712 177.907 91.808 177.64 91.808ZM178.344 93.232V102H176.888V93.232H178.344ZM184.65 102.144C183.828 102.144 183.082 101.957 182.41 101.584C181.748 101.211 181.226 100.683 180.842 100C180.468 99.3067 180.282 98.5067 180.282 97.6C180.282 96.704 180.474 95.9147 180.858 95.232C181.252 94.5387 181.786 94.0107 182.458 93.648C183.13 93.2747 183.882 93.088 184.714 93.088C185.546 93.088 186.298 93.2747 186.97 93.648C187.642 94.0107 188.17 94.5333 188.554 95.216C188.948 95.8987 189.146 96.6933 189.146 97.6C189.146 98.5067 188.943 99.3067 188.538 100C188.143 100.683 187.604 101.211 186.922 101.584C186.239 101.957 185.482 102.144 184.65 102.144ZM184.65 100.864C185.172 100.864 185.663 100.741 186.122 100.496C186.58 100.251 186.948 99.8827 187.226 99.392C187.514 98.9013 187.658 98.304 187.658 97.6C187.658 96.896 187.519 96.2987 187.242 95.808C186.964 95.3173 186.602 94.9547 186.154 94.72C185.706 94.4747 185.22 94.352 184.698 94.352C184.164 94.352 183.674 94.4747 183.226 94.72C182.788 94.9547 182.436 95.3173 182.17 95.808C181.903 96.2987 181.77 96.896 181.77 97.6C181.77 98.3147 181.898 98.9173 182.154 99.408C182.42 99.8987 182.772 100.267 183.21 100.512C183.647 100.747 184.127 100.864 184.65 100.864ZM195.332 93.072C196.399 93.072 197.263 93.3973 197.924 94.048C198.585 94.688 198.916 95.616 198.916 96.832V102H197.476V97.04C197.476 96.1653 197.257 95.4987 196.82 95.04C196.383 94.5707 195.785 94.336 195.028 94.336C194.26 94.336 193.647 94.576 193.188 95.056C192.74 95.536 192.516 96.2347 192.516 97.152V102H191.06V93.232H192.516V94.48C192.804 94.032 193.193 93.6853 193.684 93.44C194.185 93.1947 194.735 93.072 195.332 93.072Z" fill="white"/>
</g>
<g filter="url(#filter1_d_180_3503)">
<mask id="path-4-outside-1_180_3503" maskUnits="userSpaceOnUse" x="-1" y="3" width="21" height="127" fill="black">
<rect fill="white" x="-1" y="3" width="21" height="127"/>
<path d="M1.008 114.144L11.976 116.064C14.008 116.432 15.552 117.24 16.608 118.488C17.648 119.736 18.168 121.32 18.168 123.24C18.168 125.016 17.744 126.416 16.896 127.44C16.032 128.448 14.768 128.952 13.104 128.952C12.608 128.952 12.072 128.904 11.496 128.808V123.552C11.784 123.6 12.032 123.624 12.24 123.624C12.992 123.624 13.368 123.296 13.368 122.64C13.368 122.32 13.264 122.056 13.056 121.848C12.848 121.624 12.488 121.464 11.976 121.368L1.008 119.448L1.008 114.144ZM1.008 106.636L10.584 108.316C10.84 108.364 11.104 108.388 11.376 108.388C11.92 108.388 12.352 108.244 12.672 107.956C12.976 107.668 13.128 107.212 13.128 106.588C13.128 105.82 12.904 105.212 12.456 104.764C11.992 104.316 11.368 104.02 10.584 103.876L1.008 102.196L1.008 96.8917L10.584 98.5717C12.248 98.8597 13.648 99.4357 14.784 100.3C15.92 101.148 16.768 102.196 17.328 103.444C17.888 104.676 18.168 106.036 18.168 107.524C18.168 109.428 17.672 110.948 16.68 112.084C15.672 113.22 14.24 113.788 12.384 113.788C11.792 113.788 11.192 113.732 10.584 113.62L1.008 111.94L1.008 106.636ZM13.968 91.5457L13.968 86.4097L18 87.1297V97.5938L1.008 94.5938L1.008 89.2657L13.968 91.5457ZM1.008 66.1331L12.84 74.3171L18 75.2291V80.5571L12.84 79.6451L1.008 83.6531L1.008 77.5571L7.032 75.9011L1.008 72.1331L1.008 66.1331ZM13.752 63.6277C12.168 61.2437 10.76 59.3317 9.528 57.8917C8.296 56.4517 7.192 55.6437 6.216 55.4677C5.992 55.4357 5.848 55.4197 5.784 55.4197C5.272 55.4197 5.016 55.6437 5.016 56.0917C5.016 56.4117 5.16 56.6677 5.448 56.8597C5.72 57.0357 6.24 57.1957 7.008 57.3397L7.008 62.4997C4.816 62.0357 3.192 61.1077 2.136 59.7157C1.08 58.3077 0.551999 56.6997 0.551999 54.8917C0.551999 53.1317 0.935999 51.8517 1.704 51.0517C2.456 50.2517 3.432 49.8517 4.632 49.8517C4.856 49.8517 5.208 49.8837 5.688 49.9477C7.208 50.2197 8.64 50.9797 9.984 52.2277C11.328 53.4597 12.488 54.9317 13.464 56.6437V51.1477L17.76 51.9157V64.3238L13.752 63.6277ZM9.288 49.146C6.664 48.682 4.576 47.722 3.024 46.266C1.472 44.81 0.696 42.866 0.696 40.434C0.696 38.418 1.24 36.93 2.328 35.97C3.4 34.994 4.888 34.506 6.792 34.506C7.608 34.506 8.44 34.586 9.288 34.746C11.912 35.21 14.008 36.17 15.576 37.626C17.128 39.082 17.904 41.026 17.904 43.458C17.904 45.474 17.368 46.97 16.296 47.946C15.208 48.906 13.704 49.386 11.784 49.386C11.112 49.386 10.28 49.306 9.288 49.146ZM9.288 40.002C8.648 39.874 8.072 39.81 7.56 39.81C6.344 39.81 5.736 40.314 5.736 41.322C5.736 42.122 6.048 42.706 6.672 43.074C7.28 43.426 8.152 43.706 9.288 43.914C9.96 44.042 10.536 44.106 11.016 44.106C11.608 44.106 12.064 43.994 12.384 43.77C12.704 43.53 12.864 43.13 12.864 42.57C12.864 41.786 12.552 41.218 11.928 40.866C11.304 40.498 10.424 40.21 9.288 40.002ZM13.752 34.1434C12.168 31.7594 10.76 29.8474 9.528 28.4074C8.296 26.9674 7.192 26.1594 6.216 25.9834C5.992 25.9514 5.848 25.9354 5.784 25.9354C5.272 25.9354 5.016 26.1594 5.016 26.6074C5.016 26.9274 5.16 27.1834 5.448 27.3754C5.72 27.5514 6.24 27.7114 7.008 27.8554L7.008 33.0154C4.816 32.5514 3.192 31.6234 2.136 30.2314C1.08 28.8234 0.551999 27.2154 0.551999 25.4074C0.551999 23.6474 0.935999 22.3674 1.704 21.5674C2.456 20.7674 3.432 20.3674 4.632 20.3674C4.856 20.3674 5.208 20.3994 5.688 20.4634C7.208 20.7354 8.64 21.4954 9.984 22.7434C11.328 23.9754 12.488 25.4474 13.464 27.1594L13.464 21.6634L17.76 22.4314V34.8394L13.752 34.1434ZM15.36 20.2376L10.92 19.4696L0.719999 10.5176L0.719999 4.78162L10.752 6.53362V4.80562L15.36 5.62162V7.34962L18 7.82962V13.2056L15.36 12.7256V20.2376ZM6.792 10.7816L10.752 14.0696V11.4776L6.792 10.7816Z"/>
</mask>
<path d="M1.008 114.144L1.18043 113.159L0.0079999 112.954L0.0079999 114.144H1.008ZM11.976 116.064L12.1542 115.08L12.1484 115.079L11.976 116.064ZM16.608 118.488L17.3762 117.848L17.3714 117.842L16.608 118.488ZM16.896 127.44L17.6553 128.091L17.6608 128.084L17.6662 128.078L16.896 127.44ZM11.496 128.808H10.496V129.655L11.3316 129.794L11.496 128.808ZM11.496 123.552L11.6604 122.566L10.496 122.372V123.552H11.496ZM13.056 121.848L12.3232 122.528L12.3358 122.542L12.3489 122.555L13.056 121.848ZM11.976 121.368L12.1603 120.385L12.1484 120.383L11.976 121.368ZM1.008 119.448H0.0079999L0.0079999 120.288L0.835567 120.433L1.008 119.448ZM0.835567 115.129L11.8036 117.049L12.1484 115.079L1.18043 113.159L0.835567 115.129ZM11.7978 117.048C13.6629 117.386 14.9745 118.106 15.8446 119.134L17.3714 117.842C16.1295 116.374 14.3531 115.478 12.1542 115.08L11.7978 117.048ZM15.8398 119.128C16.7038 120.165 17.168 121.509 17.168 123.24H19.168C19.168 121.131 18.5922 119.307 17.3762 117.848L15.8398 119.128ZM17.168 123.24C17.168 124.862 16.7819 126.01 16.1258 126.802L17.6662 128.078C18.7061 126.822 19.168 125.17 19.168 123.24H17.168ZM16.1367 126.789C15.5093 127.521 14.5561 127.952 13.104 127.952V129.952C14.9799 129.952 16.5547 129.375 17.6553 128.091L16.1367 126.789ZM13.104 127.952C12.6717 127.952 12.1913 127.91 11.6604 127.822L11.3316 129.794C11.9527 129.898 12.5443 129.952 13.104 129.952V127.952ZM12.496 128.808V123.552H10.496V128.808H12.496ZM11.3316 124.538C11.654 124.592 11.9599 124.624 12.24 124.624V122.624C12.1041 122.624 11.9139 122.608 11.6604 122.566L11.3316 124.538ZM12.24 124.624C12.7392 124.624 13.3003 124.518 13.7434 124.132C14.2125 123.722 14.368 123.16 14.368 122.64H12.368C12.368 122.711 12.3576 122.729 12.3634 122.714C12.3665 122.705 12.3732 122.691 12.3855 122.673C12.3978 122.655 12.4127 122.638 12.4286 122.624C12.4619 122.595 12.4802 122.595 12.4543 122.602C12.4253 122.611 12.3585 122.624 12.24 122.624V124.624ZM14.368 122.64C14.368 122.08 14.1761 121.554 13.7631 121.141L12.3489 122.555C12.3553 122.562 12.3578 122.565 12.3583 122.566C12.3587 122.567 12.359 122.567 12.3596 122.569C12.3601 122.57 12.368 122.59 12.368 122.64H14.368ZM13.7888 121.168C13.364 120.71 12.7494 120.496 12.1603 120.385L11.7917 122.351C11.9942 122.389 12.1334 122.434 12.2239 122.474C12.3145 122.514 12.3336 122.54 12.3232 122.528L13.7888 121.168ZM12.1484 120.383L1.18043 118.463L0.835567 120.433L11.8036 122.353L12.1484 120.383ZM2.008 119.448L2.008 114.144H0.0079999L0.0079999 119.448H2.008ZM1.008 106.636L1.1808 105.651L0.0079999 105.445L0.0079999 106.636H1.008ZM10.584 108.316L10.7683 107.333L10.7568 107.331L10.584 108.316ZM12.672 107.956L13.341 108.699L13.3505 108.69L13.3597 108.682L12.672 107.956ZM12.456 104.764L13.1631 104.057L13.1569 104.05L13.1506 104.044L12.456 104.764ZM10.584 103.876L10.7647 102.892L10.7568 102.891L10.584 103.876ZM1.008 102.196H0.0079999L0.0079999 103.036L0.8352 103.181L1.008 102.196ZM1.008 96.8918L1.1808 95.9068L0.0079999 95.701L0.0079999 96.8918H1.008ZM10.584 98.5717L10.4112 99.5567L10.4135 99.5571L10.584 98.5717ZM14.784 100.3L14.1786 101.096L14.1858 101.101L14.784 100.3ZM17.328 103.444L16.4156 103.853L16.4176 103.858L17.328 103.444ZM16.68 112.084L17.428 112.747L17.4332 112.742L16.68 112.084ZM10.584 113.62L10.7652 112.636L10.7568 112.635L10.584 113.62ZM1.008 111.94H0.0079999L0.0079999 112.78L0.8352 112.925L1.008 111.94ZM0.8352 107.621L10.4112 109.301L10.7568 107.331L1.1808 105.651L0.8352 107.621ZM10.3997 109.299C10.7191 109.359 11.0449 109.388 11.376 109.388V107.388C11.1631 107.388 10.9609 107.369 10.7683 107.333L10.3997 109.299ZM11.376 109.388C12.0996 109.388 12.7927 109.192 13.341 108.699L12.003 107.212C11.9113 107.295 11.7404 107.388 11.376 107.388V109.388ZM13.3597 108.682C13.9432 108.129 14.128 107.352 14.128 106.588H12.128C12.128 107.072 12.0088 107.207 11.9843 107.23L13.3597 108.682ZM14.128 106.588C14.128 105.615 13.8372 104.731 13.1631 104.057L11.7489 105.471C11.9708 105.693 12.128 106.025 12.128 106.588H14.128ZM13.1506 104.044C12.5148 103.43 11.6963 103.063 10.7647 102.892L10.4033 104.859C11.0397 104.976 11.4692 105.201 11.7614 105.483L13.1506 104.044ZM10.7568 102.891L1.1808 101.211L0.8352 103.181L10.4112 104.861L10.7568 102.891ZM2.008 102.196L2.008 96.8918H0.0079999L0.0079999 102.196H2.008ZM0.8352 97.8767L10.4112 99.5567L10.7568 97.5868L1.1808 95.9068L0.8352 97.8767ZM10.4135 99.5571C11.9483 99.8227 13.1917 100.345 14.1786 101.096L15.3894 99.5038C14.1043 98.5264 12.5477 97.8968 10.7545 97.5864L10.4135 99.5571ZM14.1858 101.101C15.1906 101.851 15.9279 102.766 16.4156 103.853L18.2404 103.034C17.6081 101.625 16.6494 100.444 15.3822 99.4984L14.1858 101.101ZM16.4176 103.858C16.9129 104.947 17.168 106.164 17.168 107.524H19.168C19.168 105.907 18.8631 104.404 18.2384 103.03L16.4176 103.858ZM17.168 107.524C17.168 109.251 16.7213 110.516 15.9268 111.426L17.4332 112.742C18.6227 111.379 19.168 109.604 19.168 107.524H17.168ZM15.932 111.42C15.1552 112.296 14.023 112.788 12.384 112.788V114.788C14.457 114.788 16.1888 114.144 17.428 112.747L15.932 111.42ZM12.384 112.788C11.8554 112.788 11.316 112.738 10.7652 112.636L10.4028 114.603C11.068 114.726 11.7286 114.788 12.384 114.788V112.788ZM10.7568 112.635L1.1808 110.955L0.8352 112.925L10.4112 114.605L10.7568 112.635ZM2.008 111.94L2.008 106.636H0.0079999L0.0079999 111.94H2.008ZM13.968 91.5457L13.7947 92.5306L14.968 92.737V91.5457H13.968ZM13.968 86.4097L14.1438 85.4253L12.968 85.2154V86.4097H13.968ZM18 87.1297H19V86.2925L18.1758 86.1453L18 87.1297ZM18 97.5938L17.8261 98.5785L19 98.7858V97.5938H18ZM1.008 94.5938H0.0079999L0.0079999 95.4327L0.834135 95.5785L1.008 94.5938ZM1.008 89.2658L1.18126 88.2809L0.0079999 88.0745L0.0079999 89.2658H1.008ZM14.968 91.5457L14.968 86.4097H12.968L12.968 91.5457H14.968ZM13.7922 87.3942L17.8242 88.1142L18.1758 86.1453L14.1438 85.4253L13.7922 87.3942ZM17 87.1297V97.5938H19V87.1297H17ZM18.1739 96.609L1.18186 93.609L0.834135 95.5785L17.8261 98.5785L18.1739 96.609ZM2.008 94.5938L2.008 89.2658H0.0079999L0.0079999 94.5938H2.008ZM0.834735 90.2506L13.7947 92.5306L14.1413 90.5609L1.18126 88.2809L0.834735 90.2506ZM1.008 66.1331L1.57686 65.3107L0.0079999 64.2255L0.0079999 66.1331H1.008ZM12.84 74.3171L12.2711 75.1396L12.4508 75.2638L12.666 75.3019L12.84 74.3171ZM18 75.2291H19V74.3904L18.174 74.2444L18 75.2291ZM18 80.5571L17.826 81.5419L19 81.7494L19 80.5571H18ZM12.84 79.6451L13.014 78.6604L12.7618 78.6158L12.5192 78.698L12.84 79.6451ZM1.008 83.6531H0.0079999L0.0079999 85.0477L1.32883 84.6003L1.008 83.6531ZM1.008 77.5571L0.742933 76.5929L0.0079999 76.7949L0.0079999 77.5571H1.008ZM7.032 75.9011L7.29707 76.8654L9.49381 76.2615L7.5623 75.0533L7.032 75.9011ZM1.008 72.1331H0.0079999L0.0079999 72.6871L0.477697 72.9809L1.008 72.1331ZM0.439137 66.9556L12.2711 75.1396L13.4089 73.4947L1.57686 65.3107L0.439137 66.9556ZM12.666 75.3019L17.826 76.2139L18.174 74.2444L13.014 73.3324L12.666 75.3019ZM17 75.2291V80.5571H19V75.2291H17ZM18.174 79.5724L13.014 78.6604L12.666 80.6299L17.826 81.5419L18.174 79.5724ZM12.5192 78.698L0.687165 82.706L1.32883 84.6003L13.1608 80.5923L12.5192 78.698ZM2.008 83.6531L2.008 77.5571H0.0079999L0.0079999 83.6531H2.008ZM1.27307 78.5214L7.29707 76.8654L6.76693 74.9369L0.742933 76.5929L1.27307 78.5214ZM7.5623 75.0533L1.5383 71.2853L0.477697 72.9809L6.5017 76.7489L7.5623 75.0533ZM2.008 72.1331L2.008 66.1331H0.0079999L0.0079999 72.1331H2.008ZM13.752 63.6277L12.9191 64.1812L13.1571 64.5394L13.5809 64.613L13.752 63.6277ZM9.528 57.8917L8.76815 58.5418L9.528 57.8917ZM6.216 55.4678L6.39346 54.4836L6.3755 54.4804L6.35742 54.4778L6.216 55.4678ZM5.448 56.8597L4.89325 57.6919L4.90475 57.6993L5.448 56.8597ZM7.008 57.3398H8.008L8.008 56.5098L7.19229 56.3569L7.008 57.3398ZM7.008 62.4997L6.80091 63.4781L8.008 63.7336V62.4997H7.008ZM2.136 59.7158L1.33599 60.3158L1.33931 60.3201L2.136 59.7158ZM1.704 51.0518L2.42543 51.7443L2.43263 51.7367L1.704 51.0518ZM5.688 49.9477L5.86415 48.9634L5.84223 48.9595L5.82016 48.9565L5.688 49.9477ZM9.984 52.2278L9.30353 52.9606L9.30828 52.9649L9.984 52.2278ZM13.464 56.6438L12.5953 57.139L14.464 60.417L14.464 56.6438H13.464ZM13.464 51.1478L13.64 50.1634L12.464 49.9531V51.1478H13.464ZM17.76 51.9157H18.76V51.0787L17.936 50.9314L17.76 51.9157ZM17.76 64.3238L17.5889 65.309L18.76 65.5124V64.3238H17.76ZM14.5849 63.0743C12.9886 60.6718 11.5558 58.7236 10.2879 57.2417L8.76815 58.5418C9.96424 59.9399 11.3474 61.8157 12.9191 64.1812L14.5849 63.0743ZM10.2879 57.2417C9.02391 55.7643 7.72659 54.724 6.39346 54.4836L6.03853 56.4519C6.65741 56.5635 7.56809 57.1392 8.76815 58.5418L10.2879 57.2417ZM6.35742 54.4778C6.15379 54.4487 5.93356 54.4197 5.784 54.4197V56.4197C5.7636 56.4197 5.75612 56.4187 5.7703 56.4198C5.78167 56.4207 5.80084 56.4224 5.82957 56.4256C5.88718 56.432 5.96787 56.4425 6.07458 56.4577L6.35742 54.4778ZM5.784 54.4197C5.40422 54.4197 4.93262 54.4999 4.5495 54.8352C4.14087 55.1927 4.016 55.6763 4.016 56.0918H6.016C6.016 56.0726 6.01899 56.0999 5.99849 56.1537C5.97571 56.2135 5.93257 56.2825 5.8665 56.3403C5.73938 56.4516 5.65178 56.4197 5.784 56.4197V54.4197ZM4.016 56.0918C4.016 56.7772 4.35403 57.3323 4.8933 57.6918L6.0027 56.0277C5.98396 56.0152 5.9777 56.0084 5.97884 56.0096C5.98039 56.0112 5.98747 56.0191 5.99558 56.0335C6.00381 56.0481 6.00973 56.0635 6.01314 56.0772C6.01645 56.0904 6.016 56.0963 6.016 56.0918H4.016ZM4.90475 57.6993C5.35949 57.9936 6.0588 58.1792 6.82371 58.3226L7.19229 56.3569C6.4212 56.2123 6.08051 56.0779 5.99125 56.0202L4.90475 57.6993ZM6.008 57.3398L6.008 62.4997H8.008V57.3398H6.008ZM7.21509 61.5214C5.19012 61.0928 3.80632 60.263 2.93269 59.1114L1.33931 60.3201C2.57768 61.9525 4.44188 62.9787 6.80091 63.4781L7.21509 61.5214ZM2.936 59.1158C2.01358 57.8859 1.552 56.4897 1.552 54.8917H-0.448001C-0.448001 56.9098 0.146421 58.7296 1.336 60.3158L2.936 59.1158ZM1.552 54.8917C1.552 53.2444 1.91641 52.2745 2.42539 51.7443L0.982612 50.3592C-0.0444086 51.429 -0.448001 53.0191 -0.448001 54.8917H1.552ZM2.43263 51.7367C2.97695 51.1576 3.67944 50.8518 4.632 50.8518V48.8518C3.18456 48.8518 1.93505 49.3459 0.975372 50.3668L2.43263 51.7367ZM4.632 50.8518C4.7852 50.8518 5.08142 50.8757 5.55584 50.939L5.82016 48.9565C5.33458 48.8918 4.92679 48.8518 4.632 48.8518V50.8518ZM5.51185 50.9321C6.81012 51.1644 8.07329 51.8182 9.30355 52.9605L10.6645 51.495C9.2067 50.1413 7.60588 49.2751 5.86415 48.9634L5.51185 50.9321ZM9.30828 52.9649C10.5698 54.1213 11.6665 55.5099 12.5953 57.139L14.3327 56.1485C13.3095 54.3536 12.0862 52.7982 10.6597 51.4906L9.30828 52.9649ZM14.464 56.6438V51.1478H12.464V56.6438H14.464ZM13.288 52.1321L17.584 52.9001L17.936 50.9314L13.64 50.1634L13.288 52.1321ZM16.76 51.9157V64.3238H18.76V51.9157H16.76ZM17.9311 63.3385L13.9231 62.6425L13.5809 64.613L17.5889 65.309L17.9311 63.3385ZM9.288 49.146L9.11387 50.1307L9.12131 50.132L9.12877 50.1332L9.288 49.146ZM3.024 46.266L3.70819 45.5367L3.024 46.266ZM2.328 35.97L2.98962 36.7198L2.99546 36.7147L3.00122 36.7094L2.328 35.97ZM9.288 34.746L9.10258 35.7287L9.11387 35.7307L9.288 34.746ZM15.576 37.626L16.2602 36.8967L16.2565 36.8932L15.576 37.626ZM16.296 47.946L16.9576 48.6958L16.9635 48.6907L16.9692 48.6854L16.296 47.946ZM9.288 40.002L9.09188 40.9826L9.09988 40.9842L9.1079 40.9856L9.288 40.002ZM6.672 43.074L6.164 43.9354L6.17096 43.9394L6.672 43.074ZM9.288 43.914L9.47512 42.9316L9.4681 42.9304L9.288 43.914ZM12.384 43.77L12.9575 44.5892L12.9709 44.5798L12.984 44.57L12.384 43.77ZM11.928 40.866L11.42 41.7274L11.4283 41.7323L11.4367 41.737L11.928 40.866ZM9.46213 48.1613C6.98117 47.7226 5.08668 46.8299 3.70819 45.5367L2.33981 46.9953C4.06532 48.6141 6.34683 49.6414 9.11387 50.1307L9.46213 48.1613ZM3.70819 45.5367C2.38724 44.2975 1.696 42.633 1.696 40.434H-0.304C-0.304 43.099 0.556757 45.3225 2.33981 46.9953L3.70819 45.5367ZM1.696 40.434C1.696 38.5889 2.19067 37.4248 2.98962 36.7198L1.66638 35.2202C0.289334 36.4352 -0.304 38.2471 -0.304 40.434H1.696ZM3.00122 36.7094C3.83748 35.9481 5.05711 35.506 6.792 35.506V33.506C4.71889 33.506 2.96251 34.0399 1.65478 35.2306L3.00122 36.7094ZM6.792 35.506C7.54234 35.506 8.31223 35.5795 9.10259 35.7287L9.47341 33.7633C8.56777 33.5925 7.67366 33.506 6.792 33.506V35.506ZM9.11387 35.7307C11.5948 36.1694 13.4996 37.0625 14.8955 38.3588L16.2565 36.8932C14.5164 35.2775 12.2292 34.2506 9.46213 33.7613L9.11387 35.7307ZM14.8918 38.3553C16.2128 39.5945 16.904 41.259 16.904 43.458H18.904C18.904 40.793 18.0432 38.5695 16.2602 36.8967L14.8918 38.3553ZM16.904 43.458C16.904 45.3061 16.4153 46.485 15.6228 47.2066L16.9692 48.6854C18.3207 47.455 18.904 45.6419 18.904 43.458H16.904ZM15.6344 47.1962C14.7813 47.9489 13.5404 48.386 11.784 48.386V50.386C13.8676 50.386 15.6347 49.8631 16.9576 48.6958L15.6344 47.1962ZM11.784 48.386C11.1845 48.386 10.4097 48.314 9.44723 48.1588L9.12877 50.1332C10.1503 50.298 11.0395 50.386 11.784 50.386V48.386ZM9.48412 39.0214C8.7962 38.8838 8.15291 38.81 7.56 38.81V40.81C7.99109 40.81 8.49979 40.8642 9.09188 40.9826L9.48412 39.0214ZM7.56 38.81C6.83874 38.81 6.11176 38.9556 5.55381 39.4181C4.95993 39.9104 4.736 40.6093 4.736 41.322H6.736C6.736 41.0267 6.81606 40.9696 6.83019 40.9579C6.88024 40.9164 7.06525 40.81 7.56 40.81V38.81ZM4.736 41.322C4.736 42.4314 5.19861 43.366 6.16401 43.9354L7.17998 42.2126C6.89739 42.046 6.736 41.8126 6.736 41.322H4.736ZM6.17096 43.9394C6.9218 44.3741 7.92198 44.6805 9.10789 44.8976L9.4681 42.9304C8.38202 42.7315 7.6382 42.4779 7.17304 42.2086L6.17096 43.9394ZM9.10089 44.8963C9.81089 45.0316 10.453 45.106 11.016 45.106V43.106C10.619 43.106 10.1091 43.0524 9.47511 42.9317L9.10089 44.8963ZM11.016 45.106C11.7138 45.106 12.4031 44.9773 12.9575 44.5892L11.8105 42.9508C11.7249 43.0107 11.5022 43.106 11.016 43.106V45.106ZM12.984 44.57C13.6466 44.073 13.864 43.3107 13.864 42.57H11.864C11.864 42.7591 11.8364 42.8663 11.8155 42.9186C11.7982 42.9619 11.786 42.9685 11.784 42.97L12.984 44.57ZM13.864 42.57C13.864 41.4667 13.3922 40.5438 12.4193 39.995L11.4367 41.737C11.7118 41.8922 11.864 42.1053 11.864 42.57H13.864ZM12.436 40.0046C11.6687 39.5521 10.6594 39.2365 9.4681 39.0183L9.1079 40.9856C10.1886 41.1835 10.9393 41.4439 11.42 41.7274L12.436 40.0046ZM13.752 34.1434L12.9191 34.6968L13.1571 35.055L13.5809 35.1286L13.752 34.1434ZM9.528 28.4074L8.76815 29.0575L9.528 28.4074ZM6.216 25.9834L6.39346 24.9992L6.3755 24.996L6.35742 24.9934L6.216 25.9834ZM5.448 27.3754L4.89325 28.2075L4.90475 28.2149L5.448 27.3754ZM7.008 27.8554H8.008V27.0254L7.19229 26.8725L7.008 27.8554ZM7.008 33.0154L6.80091 33.9937L8.008 34.2492V33.0154H7.008ZM2.136 30.2314L1.33599 30.8314L1.33931 30.8358L2.136 30.2314ZM1.704 21.5674L2.42543 22.2599L2.43263 22.2523L1.704 21.5674ZM5.688 20.4634L5.86415 19.479L5.84223 19.4751L5.82016 19.4721L5.688 20.4634ZM9.984 22.7434L9.30353 23.4762L9.30828 23.4805L9.984 22.7434ZM13.464 27.1594L12.5953 27.6546L14.464 30.9326V27.1594H13.464ZM13.464 21.6634L13.64 20.679L12.464 20.4688V21.6634H13.464ZM17.76 22.4314H18.76V21.5943L17.936 21.447L17.76 22.4314ZM17.76 34.8394L17.5889 35.8246L18.76 36.028V34.8394H17.76ZM14.5849 33.59C12.9886 31.1874 11.5558 29.2393 10.2879 27.7573L8.76815 29.0575C9.96424 30.4555 11.3474 32.3313 12.9191 34.6968L14.5849 33.59ZM10.2879 27.7573C9.02391 26.2799 7.72659 25.2396 6.39346 24.9992L6.03853 26.9675C6.65741 27.0791 7.56809 27.6548 8.76815 29.0575L10.2879 27.7573ZM6.35742 24.9934C6.15379 24.9643 5.93356 24.9354 5.784 24.9354V26.9354C5.7636 26.9354 5.75612 26.9343 5.7703 26.9354C5.78167 26.9363 5.80084 26.9381 5.82957 26.9413C5.88718 26.9477 5.96787 26.9581 6.07458 26.9733L6.35742 24.9934ZM5.784 24.9354C5.40422 24.9354 4.93262 25.0156 4.5495 25.3508C4.14087 25.7083 4.016 26.1919 4.016 26.6074H6.016C6.016 26.5882 6.01899 26.6155 5.99849 26.6694C5.97571 26.7292 5.93257 26.7981 5.8665 26.8559C5.73938 26.9672 5.65178 26.9354 5.784 26.9354V24.9354ZM4.016 26.6074C4.016 27.2928 4.35403 27.8479 4.8933 28.2074L6.0027 26.5433C5.98396 26.5308 5.9777 26.5241 5.97884 26.5252C5.98039 26.5268 5.98747 26.5347 5.99558 26.5491C6.00381 26.5638 6.00973 26.5792 6.01314 26.5928C6.01645 26.6061 6.016 26.6119 6.016 26.6074H4.016ZM4.90475 28.2149C5.35949 28.5092 6.0588 28.6948 6.82371 28.8382L7.19229 26.8725C6.4212 26.7279 6.08051 26.5936 5.99125 26.5358L4.90475 28.2149ZM6.008 27.8554L6.008 33.0154H8.008V27.8554H6.008ZM7.21509 32.0371C5.19012 31.6084 3.80632 30.7786 2.93269 29.627L1.33931 30.8358C2.57768 32.4682 4.44188 33.4943 6.80091 33.9937L7.21509 32.0371ZM2.936 29.6314C2.01358 28.4015 1.552 27.0053 1.552 25.4074H-0.448001C-0.448001 27.4254 0.146421 29.2453 1.336 30.8314L2.936 29.6314ZM1.552 25.4074C1.552 23.7601 1.91641 22.7901 2.42539 22.2599L0.982612 20.8748C-0.0444086 21.9447 -0.448001 23.5347 -0.448001 25.4074H1.552ZM2.43263 22.2523C2.97695 21.6732 3.67944 21.3674 4.632 21.3674L4.632 19.3674C3.18456 19.3674 1.93505 19.8615 0.975372 20.8825L2.43263 22.2523ZM4.632 21.3674C4.7852 21.3674 5.08142 21.3913 5.55584 21.4546L5.82016 19.4721C5.33458 19.4074 4.92679 19.3674 4.632 19.3674L4.632 21.3674ZM5.51185 21.4477C6.81012 21.6801 8.07329 22.3338 9.30355 23.4762L10.6645 22.0106C9.2067 20.657 7.60588 19.7907 5.86415 19.479L5.51185 21.4477ZM9.30828 23.4805C10.5698 24.637 11.6665 26.0255 12.5953 27.6546L14.3327 26.6641C13.3095 24.8692 12.0862 23.3138 10.6597 22.0062L9.30828 23.4805ZM14.464 27.1594L14.464 21.6634H12.464L12.464 27.1594H14.464ZM13.288 22.6478L17.584 23.4158L17.936 21.447L13.64 20.679L13.288 22.6478ZM16.76 22.4314V34.8394H18.76V22.4314H16.76ZM17.9311 33.8541L13.9231 33.1581L13.5809 35.1286L17.5889 35.8246L17.9311 33.8541ZM15.36 20.2376L15.1896 21.223L16.36 21.4254V20.2376H15.36ZM10.92 19.4696L10.2604 20.2212L10.472 20.407L10.7496 20.455L10.92 19.4696ZM0.719999 10.5176H-0.280001L-0.280001 10.9705L0.0603686 11.2692L0.719999 10.5176ZM0.719999 4.78162L0.892037 3.79653L-0.280001 3.59185L-0.280001 4.78162H0.719999ZM10.752 6.53362L10.58 7.51871L11.752 7.7234V6.53362H10.752ZM10.752 4.80563L10.9264 3.82095L9.752 3.61298V4.80563H10.752ZM15.36 5.62163H16.36V4.78315L15.5344 4.63695L15.36 5.62163ZM15.36 7.34962H14.36V8.1842L15.1811 8.3335L15.36 7.34962ZM18 7.82962H19V6.99505L18.1789 6.84576L18 7.82962ZM18 13.2056L17.8211 14.1895L19 14.4038V13.2056H18ZM15.36 12.7256L15.5389 11.7418L14.36 11.5274V12.7256H15.36ZM6.792 10.7816L6.9651 9.79672L3.25504 9.14465L6.15319 11.551L6.792 10.7816ZM10.752 14.0696L10.1132 14.839L11.752 16.1997V14.0696H10.752ZM10.752 11.4776H11.752V10.6381L10.9251 10.4927L10.752 11.4776ZM15.5304 19.2523L11.0904 18.4843L10.7496 20.455L15.1896 21.223L15.5304 19.2523ZM11.5796 18.718L1.37963 9.76604L0.0603686 11.2692L10.2604 20.2212L11.5796 18.718ZM1.72 10.5176L1.72 4.78162H-0.280001L-0.280001 10.5176H1.72ZM0.547962 5.76672L10.58 7.51871L10.924 5.54853L0.892037 3.79653L0.547962 5.76672ZM11.752 6.53362V4.80563H9.752V6.53362H11.752ZM10.5776 5.79031L15.1856 6.6063L15.5344 4.63695L10.9264 3.82095L10.5776 5.79031ZM14.36 5.62163V7.34962H16.36V5.62163H14.36ZM15.1811 8.3335L17.8211 8.81349L18.1789 6.84576L15.5389 6.36575L15.1811 8.3335ZM17 7.82962V13.2056H19V7.82962H17ZM18.1789 12.2218L15.5389 11.7418L15.1811 13.7095L17.8211 14.1895L18.1789 12.2218ZM14.36 12.7256V20.2376H16.36L16.36 12.7256H14.36ZM6.15319 11.551L10.1132 14.839L11.3908 13.3003L7.43081 10.0123L6.15319 11.551ZM11.752 14.0696V11.4776H9.752V14.0696H11.752ZM10.9251 10.4927L6.9651 9.79672L6.6189 11.7665L10.5789 12.4625L10.9251 10.4927Z" fill="#CEFF67" mask="url(#path-4-outside-1_180_3503)"/>
</g>
<defs>
<filter id="filter0_d_180_3503" x="28" y="1" width="205" height="134" filterUnits="userSpaceOnUse" color-interpolation-filters="sRGB">
<feFlood flood-opacity="0" result="BackgroundImageFix"/>
<feColorMatrix in="SourceAlpha" type="matrix" values="0 0 0 0 0 0 0 0 0 0 0 0 0 0 0 0 0 0 127 0" result="hardAlpha"/>
<feOffset dx="2" dy="2"/>
<feComposite in2="hardAlpha" operator="out"/>
<feColorMatrix type="matrix" values="0 0 0 0 0.807843 0 0 0 0 1 0 0 0 0 0.403922 0 0 0 1 0"/>
<feBlend mode="normal" in2="BackgroundImageFix" result="effect1_dropShadow_180_3503"/>
<feBlend mode="normal" in="SourceGraphic" in2="effect1_dropShadow_180_3503" result="shape"/>
</filter>
<filter id="filter1_d_180_3503" x="0.552002" y="4.78162" width="19.616" height="126.17" filterUnits="userSpaceOnUse" color-interpolation-filters="sRGB">
<feFlood flood-opacity="0" result="BackgroundImageFix"/>
<feColorMatrix in="SourceAlpha" type="matrix" values="0 0 0 0 0 0 0 0 0 0 0 0 0 0 0 0 0 0 127 0" result="hardAlpha"/>
<feOffset dx="2" dy="2"/>
<feComposite in2="hardAlpha" operator="out"/>
<feColorMatrix type="matrix" values="0 0 0 0 0.807843 0 0 0 0 1 0 0 0 0 0.403922 0 0 0 1 0"/>
<feBlend mode="normal" in2="BackgroundImageFix" result="effect1_dropShadow_180_3503"/>
<feBlend mode="normal" in="SourceGraphic" in2="effect1_dropShadow_180_3503" result="shape"/>
</filter>
<linearGradient id="paint0_linear_180_3503" x1="231" y1="1.00001" x2="73.864" y2="33.9303" gradientUnits="userSpaceOnUse">
<stop offset="0.51262" stop-color="#C0FF3D"/>
<stop offset="1" stop-color="#CEFF67"/>
</linearGradient>
</defs>
</svg>
