<svg width="197" height="61" viewBox="0 0 197 61" fill="none" xmlns="http://www.w3.org/2000/svg">
<g filter="url(#filter0_d_178_1678)">
<rect x="0.5" y="0.5" width="194" height="58" stroke="url(#paint0_linear_178_1678)" shape-rendering="crispEdges"/>
<path d="M54.0078 35V23.5781H56.4297V33H60.5859V35H54.0078ZM67.4531 35L66.9922 33.8125H66.9219C66.75 34.0469 66.5781 34.25 66.4062 34.4219C66.2344 34.5885 66.0469 34.7266 65.8438 34.8359C65.6406 34.9453 65.4115 35.026 65.1562 35.0781C64.9062 35.1302 64.6146 35.1562 64.2812 35.1562C63.9271 35.1562 63.599 35.1016 63.2969 34.9922C62.9948 34.8776 62.7318 34.7083 62.5078 34.4844C62.2891 34.2552 62.1172 33.9688 61.9922 33.625C61.8672 33.276 61.8047 32.8646 61.8047 32.3906C61.8047 31.4635 62.1016 30.7812 62.6953 30.3438C63.2891 29.901 64.1771 29.6562 65.3594 29.6094L66.75 29.5625V28.9062C66.75 28.5469 66.6458 28.2812 66.4375 28.1094C66.2292 27.9375 65.9375 27.8516 65.5625 27.8516C65.1875 27.8516 64.8203 27.9062 64.4609 28.0156C64.1068 28.125 63.75 28.2708 63.3906 28.4531L62.6172 26.875C63.0547 26.6302 63.5391 26.4375 64.0703 26.2969C64.6016 26.1562 65.1589 26.0859 65.7422 26.0859C66.8307 26.0859 67.6641 26.3411 68.2422 26.8516C68.8255 27.362 69.1172 28.138 69.1172 29.1797V35H67.4531ZM66.75 30.9531L65.9609 30.9844C65.6432 30.9948 65.375 31.0365 65.1562 31.1094C64.9375 31.1823 64.7604 31.2812 64.625 31.4062C64.4948 31.526 64.3984 31.6719 64.3359 31.8438C64.2786 32.0104 64.25 32.1979 64.25 32.4062C64.25 32.7708 64.3385 33.0312 64.5156 33.1875C64.6927 33.3385 64.9245 33.4141 65.2109 33.4141C65.4297 33.4141 65.6328 33.3776 65.8203 33.3047C66.0078 33.2266 66.1693 33.1146 66.3047 32.9688C66.4453 32.8177 66.5547 32.6354 66.6328 32.4219C66.7109 32.2031 66.75 31.9531 66.75 31.6719V30.9531ZM77.2812 35L76.9609 33.8828H76.8359C76.7057 34.1068 76.5495 34.2995 76.3672 34.4609C76.1901 34.6172 75.9948 34.7474 75.7812 34.8516C75.5677 34.9557 75.3411 35.0312 75.1016 35.0781C74.862 35.1302 74.6172 35.1562 74.3672 35.1562C73.9401 35.1562 73.5521 35.0964 73.2031 34.9766C72.8542 34.8516 72.5547 34.6589 72.3047 34.3984C72.0547 34.138 71.862 33.8073 71.7266 33.4062C71.5911 33.0052 71.5234 32.5234 71.5234 31.9609V26.2656H73.9062V31.3672C73.9062 31.9974 74 32.4714 74.1875 32.7891C74.3802 33.1016 74.6849 33.2578 75.1016 33.2578C75.4141 33.2578 75.6745 33.1953 75.8828 33.0703C76.0911 32.9453 76.2552 32.7604 76.375 32.5156C76.5 32.2708 76.5885 31.9688 76.6406 31.6094C76.6927 31.25 76.7188 30.8385 76.7188 30.375V26.2656H79.1016V35H77.2812ZM89.1797 35H86.7969V29.8984C86.7969 29.2682 86.7005 28.7969 86.5078 28.4844C86.3203 28.1667 86.0182 28.0078 85.6016 28.0078C85.2891 28.0078 85.0286 28.0703 84.8203 28.1953C84.612 28.3203 84.4453 28.5052 84.3203 28.75C84.2005 28.9948 84.1146 29.2969 84.0625 29.6562C84.0104 30.0156 83.9844 30.4271 83.9844 30.8906V35H81.6016V26.2656H83.4219L83.7422 27.3828H83.875C84 27.1589 84.151 26.9661 84.3281 26.8047C84.5104 26.6432 84.7083 26.5104 84.9219 26.4062C85.1354 26.3021 85.362 26.2266 85.6016 26.1797C85.8411 26.1276 86.0859 26.1016 86.3359 26.1016C86.763 26.1016 87.151 26.1641 87.5 26.2891C87.849 26.4089 88.1484 26.599 88.3984 26.8594C88.6484 27.1198 88.8411 27.4531 88.9766 27.8594C89.112 28.2604 89.1797 28.7422 89.1797 29.3047V35ZM95.2656 35.1562C94.6406 35.1562 94.0755 35.0703 93.5703 34.8984C93.0703 34.7266 92.6406 34.4609 92.2812 34.1016C91.9271 33.737 91.6536 33.2734 91.4609 32.7109C91.2734 32.1432 91.1797 31.4661 91.1797 30.6797C91.1797 29.8099 91.276 29.0833 91.4688 28.5C91.6667 27.9115 91.9427 27.4401 92.2969 27.0859C92.6562 26.7318 93.0859 26.4792 93.5859 26.3281C94.0911 26.1771 94.651 26.1016 95.2656 26.1016C95.7135 26.1016 96.1589 26.1562 96.6016 26.2656C97.0443 26.375 97.4609 26.5286 97.8516 26.7266L97.1641 28.5391C96.8203 28.388 96.4896 28.2656 96.1719 28.1719C95.8542 28.0729 95.5521 28.0234 95.2656 28.0234C94.6875 28.0234 94.2682 28.2448 94.0078 28.6875C93.7474 29.125 93.6172 29.7839 93.6172 30.6641C93.6172 31.5391 93.7474 32.1849 94.0078 32.6016C94.2682 33.0182 94.6771 33.2266 95.2344 33.2266C95.6875 33.2266 96.099 33.1693 96.4688 33.0547C96.8385 32.9349 97.2161 32.7839 97.6016 32.6016V34.5859C97.4089 34.6797 97.2214 34.763 97.0391 34.8359C96.8568 34.9089 96.6719 34.9688 96.4844 35.0156C96.3021 35.0625 96.1094 35.0964 95.9062 35.1172C95.7083 35.1432 95.4948 35.1562 95.2656 35.1562ZM107.195 35H104.812V29.8984C104.812 29.2682 104.714 28.7969 104.516 28.4844C104.323 28.1667 104.023 28.0078 103.617 28.0078C103.31 28.0078 103.052 28.0703 102.844 28.1953C102.635 28.3203 102.469 28.5052 102.344 28.75C102.219 28.9948 102.13 29.2969 102.078 29.6562C102.026 30.0156 102 30.4271 102 30.8906V35H99.6172V22.8438H102V25.3203C102 25.5391 101.995 25.7708 101.984 26.0156C101.974 26.2552 101.961 26.4766 101.945 26.6797C101.924 26.9193 101.906 27.1536 101.891 27.3828H102.016C102.271 26.9297 102.596 26.6042 102.992 26.4062C103.388 26.2031 103.836 26.1016 104.336 26.1016C104.768 26.1016 105.159 26.1641 105.508 26.2891C105.862 26.4089 106.164 26.599 106.414 26.8594C106.664 27.1198 106.857 27.4531 106.992 27.8594C107.128 28.2604 107.195 28.7422 107.195 29.3047V35ZM120.508 35L119.727 32.2812H115.789L115 35H112.555L116.266 23.5312H119.227L122.953 35H120.508ZM119.164 30.25L118.43 27.75C118.398 27.6562 118.352 27.5026 118.289 27.2891C118.227 27.0755 118.159 26.8411 118.086 26.5859C118.018 26.3255 117.953 26.0651 117.891 25.8047C117.828 25.5443 117.784 25.3229 117.758 25.1406C117.737 25.2552 117.708 25.3906 117.672 25.5469C117.641 25.7031 117.602 25.8698 117.555 26.0469C117.513 26.2188 117.469 26.3932 117.422 26.5703C117.375 26.7474 117.331 26.9141 117.289 27.0703C117.247 27.2266 117.208 27.3646 117.172 27.4844C117.141 27.6042 117.117 27.6927 117.102 27.75L116.375 30.25H119.164ZM128.805 35.1562C128.518 35.1562 128.26 35.125 128.031 35.0625C127.807 35 127.607 34.9167 127.43 34.8125C127.253 34.7083 127.096 34.5911 126.961 34.4609C126.826 34.3255 126.703 34.1849 126.594 34.0391H126.469C126.49 34.2214 126.51 34.3932 126.531 34.5547C126.547 34.6901 126.56 34.8307 126.57 34.9766C126.586 35.1172 126.594 35.2266 126.594 35.3047V38.8438H124.211V26.2656H126.148L126.484 27.3984H126.594C126.703 27.2214 126.828 27.0547 126.969 26.8984C127.109 26.7422 127.271 26.6068 127.453 26.4922C127.641 26.3724 127.852 26.2786 128.086 26.2109C128.32 26.138 128.581 26.1016 128.867 26.1016C129.32 26.1016 129.732 26.1979 130.102 26.3906C130.471 26.5833 130.789 26.8698 131.055 27.25C131.32 27.6302 131.526 28.1016 131.672 28.6641C131.818 29.2266 131.891 29.8776 131.891 30.6172C131.891 31.362 131.815 32.0182 131.664 32.5859C131.513 33.1484 131.299 33.6224 131.023 34.0078C130.753 34.388 130.427 34.6745 130.047 34.8672C129.672 35.0599 129.258 35.1562 128.805 35.1562ZM128.062 28.0078C127.797 28.0078 127.57 28.0573 127.383 28.1562C127.201 28.25 127.052 28.3932 126.938 28.5859C126.823 28.7786 126.74 29.0234 126.688 29.3203C126.635 29.612 126.604 29.9531 126.594 30.3438V30.6016C126.594 31.0234 126.617 31.3984 126.664 31.7266C126.716 32.0547 126.799 32.3307 126.914 32.5547C127.029 32.7734 127.18 32.9401 127.367 33.0547C127.56 33.1693 127.797 33.2266 128.078 33.2266C128.552 33.2266 128.898 33.0026 129.117 32.5547C129.341 32.1016 129.453 31.4453 129.453 30.5859C129.453 29.7266 129.341 29.0833 129.117 28.6562C128.898 28.224 128.547 28.0078 128.062 28.0078ZM138.539 35.1562C138.253 35.1562 137.995 35.125 137.766 35.0625C137.542 35 137.341 34.9167 137.164 34.8125C136.987 34.7083 136.831 34.5911 136.695 34.4609C136.56 34.3255 136.438 34.1849 136.328 34.0391H136.203C136.224 34.2214 136.245 34.3932 136.266 34.5547C136.281 34.6901 136.294 34.8307 136.305 34.9766C136.32 35.1172 136.328 35.2266 136.328 35.3047V38.8438H133.945V26.2656H135.883L136.219 27.3984H136.328C136.438 27.2214 136.562 27.0547 136.703 26.8984C136.844 26.7422 137.005 26.6068 137.188 26.4922C137.375 26.3724 137.586 26.2786 137.82 26.2109C138.055 26.138 138.315 26.1016 138.602 26.1016C139.055 26.1016 139.466 26.1979 139.836 26.3906C140.206 26.5833 140.523 26.8698 140.789 27.25C141.055 27.6302 141.26 28.1016 141.406 28.6641C141.552 29.2266 141.625 29.8776 141.625 30.6172C141.625 31.362 141.549 32.0182 141.398 32.5859C141.247 33.1484 141.034 33.6224 140.758 34.0078C140.487 34.388 140.161 34.6745 139.781 34.8672C139.406 35.0599 138.992 35.1562 138.539 35.1562ZM137.797 28.0078C137.531 28.0078 137.305 28.0573 137.117 28.1562C136.935 28.25 136.786 28.3932 136.672 28.5859C136.557 28.7786 136.474 29.0234 136.422 29.3203C136.37 29.612 136.339 29.9531 136.328 30.3438V30.6016C136.328 31.0234 136.352 31.3984 136.398 31.7266C136.451 32.0547 136.534 32.3307 136.648 32.5547C136.763 32.7734 136.914 32.9401 137.102 33.0547C137.294 33.1693 137.531 33.2266 137.812 33.2266C138.286 33.2266 138.633 33.0026 138.852 32.5547C139.076 32.1016 139.188 31.4453 139.188 30.5859C139.188 29.7266 139.076 29.0833 138.852 28.6562C138.633 28.224 138.281 28.0078 137.797 28.0078Z" fill="white"/>
</g>
<defs>
<filter id="filter0_d_178_1678" x="0" y="0" width="197" height="61" filterUnits="userSpaceOnUse" color-interpolation-filters="sRGB">
<feFlood flood-opacity="0" result="BackgroundImageFix"/>
<feColorMatrix in="SourceAlpha" type="matrix" values="0 0 0 0 0 0 0 0 0 0 0 0 0 0 0 0 0 0 127 0" result="hardAlpha"/>
<feOffset dx="2" dy="2"/>
<feComposite in2="hardAlpha" operator="out"/>
<feColorMatrix type="matrix" values="0 0 0 0 0.807843 0 0 0 0 1 0 0 0 0 0.403922 0 0 0 1 0"/>
<feBlend mode="normal" in2="BackgroundImageFix" result="effect1_dropShadow_178_1678"/>
<feBlend mode="normal" in="SourceGraphic" in2="effect1_dropShadow_178_1678" result="shape"/>
</filter>
<linearGradient id="paint0_linear_178_1678" x1="195" y1="6.4517e-06" x2="64" y2="59" gradientUnits="userSpaceOnUse">
<stop offset="0.51262" stop-color="#C0FF3D"/>
<stop offset="1" stop-color="#CEFF67"/>
</linearGradient>
</defs>
</svg>
