<svg width="233" height="135" viewBox="0 0 233 135" fill="none" xmlns="http://www.w3.org/2000/svg">
<g filter="url(#filter0_d_180_3501)">
<rect x="28.5" y="1.5" width="202" height="131" stroke="url(#paint0_linear_180_3501)" shape-rendering="crispEdges"/>
<path d="M73.248 30.848L70.016 42H68.384L65.792 33.024L63.104 42L61.488 42.016L58.368 30.848H59.92L62.352 40.304L65.04 30.848H66.672L69.232 40.272L71.68 30.848H73.248ZM74.2974 37.584C74.2974 36.688 74.4787 35.904 74.8414 35.232C75.204 34.5493 75.7 34.0213 76.3294 33.648C76.9694 33.2747 77.6787 33.088 78.4574 33.088C79.2254 33.088 79.892 33.2533 80.4574 33.584C81.0227 33.9147 81.444 34.3307 81.7214 34.832V33.232H83.1934V42H81.7214V40.368C81.4334 40.88 81.0014 41.3067 80.4254 41.648C79.86 41.9787 79.1987 42.144 78.4414 42.144C77.6627 42.144 76.9587 41.952 76.3294 41.568C75.7 41.184 75.204 40.6453 74.8414 39.952C74.4787 39.2587 74.2974 38.4693 74.2974 37.584ZM81.7214 37.6C81.7214 36.9387 81.588 36.3627 81.3214 35.872C81.0547 35.3813 80.692 35.008 80.2334 34.752C79.7854 34.4853 79.2894 34.352 78.7454 34.352C78.2014 34.352 77.7054 34.48 77.2574 34.736C76.8094 34.992 76.452 35.3653 76.1854 35.856C75.9187 36.3467 75.7854 36.9227 75.7854 37.584C75.7854 38.256 75.9187 38.8427 76.1854 39.344C76.452 39.8347 76.8094 40.2133 77.2574 40.48C77.7054 40.736 78.2014 40.864 78.7454 40.864C79.2894 40.864 79.7854 40.736 80.2334 40.48C80.692 40.2133 81.0547 39.8347 81.3214 39.344C81.588 38.8427 81.7214 38.2613 81.7214 37.6ZM87.1099 30.16V42H85.6539V30.16H87.1099ZM94.4874 42L91.0474 38.128V42H89.5914V30.16H91.0474V37.12L94.4234 33.232H96.4554L92.3274 37.6L96.4714 42H94.4874ZM101.675 40.832C103.03 39.744 104.091 38.8533 104.859 38.16C105.627 37.456 106.273 36.7253 106.795 35.968C107.329 35.2 107.595 34.448 107.595 33.712C107.595 33.0187 107.425 32.4747 107.083 32.08C106.753 31.6747 106.214 31.472 105.467 31.472C104.742 31.472 104.177 31.7013 103.771 32.16C103.377 32.608 103.163 33.2107 103.131 33.968H101.723C101.766 32.7733 102.129 31.8507 102.811 31.2C103.494 30.5493 104.374 30.224 105.451 30.224C106.55 30.224 107.419 30.528 108.059 31.136C108.71 31.744 109.035 32.5813 109.035 33.648C109.035 34.5333 108.769 35.3973 108.235 36.24C107.713 37.072 107.115 37.808 106.443 38.448C105.771 39.0773 104.913 39.8133 103.867 40.656H109.371V41.872H101.675V40.832ZM117.016 32.032V35.76H121.08V36.96H117.016V40.8H121.56V42H115.56V30.832H121.56V32.032H117.016ZM123.219 37.584C123.219 36.688 123.401 35.904 123.763 35.232C124.126 34.5493 124.622 34.0213 125.251 33.648C125.891 33.2747 126.601 33.088 127.379 33.088C128.147 33.088 128.814 33.2533 129.379 33.584C129.945 33.9147 130.366 34.3307 130.643 34.832V33.232H132.115V42H130.643V40.368C130.355 40.88 129.923 41.3067 129.347 41.648C128.782 41.9787 128.121 42.144 127.363 42.144C126.585 42.144 125.881 41.952 125.251 41.568C124.622 41.184 124.126 40.6453 123.763 39.952C123.401 39.2587 123.219 38.4693 123.219 37.584ZM130.643 37.6C130.643 36.9387 130.51 36.3627 130.243 35.872C129.977 35.3813 129.614 35.008 129.155 34.752C128.707 34.4853 128.211 34.352 127.667 34.352C127.123 34.352 126.627 34.48 126.179 34.736C125.731 34.992 125.374 35.3653 125.107 35.856C124.841 36.3467 124.707 36.9227 124.707 37.584C124.707 38.256 124.841 38.8427 125.107 39.344C125.374 39.8347 125.731 40.2133 126.179 40.48C126.627 40.736 127.123 40.864 127.667 40.864C128.211 40.864 128.707 40.736 129.155 40.48C129.614 40.2133 129.977 39.8347 130.243 39.344C130.51 38.8427 130.643 38.2613 130.643 37.6ZM136.032 34.656C136.288 34.1547 136.65 33.7653 137.12 33.488C137.6 33.2107 138.181 33.072 138.864 33.072V34.576H138.48C136.848 34.576 136.032 35.4613 136.032 37.232V42H134.576V33.232H136.032V34.656ZM144.817 33.072C145.883 33.072 146.747 33.3973 147.409 34.048C148.07 34.688 148.401 35.616 148.401 36.832V42H146.961V37.04C146.961 36.1653 146.742 35.4987 146.305 35.04C145.867 34.5707 145.27 34.336 144.513 34.336C143.745 34.336 143.131 34.576 142.673 35.056C142.225 35.536 142.001 36.2347 142.001 37.152V42H140.545V33.232H142.001V34.48C142.289 34.032 142.678 33.6853 143.169 33.44C143.67 33.1947 144.219 33.072 144.817 33.072ZM65.104 62L62.448 57.44H60.688V62H59.232V50.848H62.832C63.6747 50.848 64.384 50.992 64.96 51.28C65.5467 51.568 65.984 51.9573 66.272 52.448C66.56 52.9387 66.704 53.4987 66.704 54.128C66.704 54.896 66.48 55.5733 66.032 56.16C65.5947 56.7467 64.9333 57.136 64.048 57.328L66.848 62H65.104ZM60.688 56.272H62.832C63.6213 56.272 64.2133 56.08 64.608 55.696C65.0027 55.3013 65.2 54.7787 65.2 54.128C65.2 53.4667 65.0027 52.9547 64.608 52.592C64.224 52.2293 63.632 52.048 62.832 52.048H60.688V56.272ZM76.9664 57.28C76.9664 57.5573 76.9504 57.8507 76.9184 58.16H69.9104C69.9637 59.024 70.257 59.7013 70.7904 60.192C71.3344 60.672 71.9904 60.912 72.7584 60.912C73.3877 60.912 73.9104 60.768 74.3264 60.48C74.753 60.1813 75.0517 59.7867 75.2224 59.296H76.7904C76.5557 60.1387 76.0864 60.8267 75.3824 61.36C74.6784 61.8827 73.8037 62.144 72.7584 62.144C71.9264 62.144 71.1797 61.9573 70.5184 61.584C69.8677 61.2107 69.3557 60.6827 68.9824 60C68.609 59.3067 68.4224 58.5067 68.4224 57.6C68.4224 56.6933 68.6037 55.8987 68.9664 55.216C69.329 54.5333 69.8357 54.0107 70.4864 53.648C71.1477 53.2747 71.905 53.088 72.7584 53.088C73.5904 53.088 74.3264 53.2693 74.9664 53.632C75.6064 53.9947 76.097 54.496 76.4384 55.136C76.7904 55.7653 76.9664 56.48 76.9664 57.28ZM75.4624 56.976C75.4624 56.4213 75.3397 55.9467 75.0944 55.552C74.849 55.1467 74.513 54.8427 74.0864 54.64C73.6704 54.4267 73.2064 54.32 72.6944 54.32C71.9584 54.32 71.329 54.5547 70.8064 55.024C70.2944 55.4933 70.001 56.144 69.9264 56.976H75.4624ZM82.4563 54.432H80.6163V62H79.1603V54.432H78.0243V53.232H79.1603V52.608C79.1603 51.6267 79.4109 50.912 79.9123 50.464C80.4243 50.0053 81.2403 49.776 82.3602 49.776V50.992C81.7203 50.992 81.2669 51.12 81.0003 51.376C80.7443 51.6213 80.6163 52.032 80.6163 52.608V53.232H82.4563V54.432ZM92.1539 57.28C92.1539 57.5573 92.1379 57.8507 92.1059 58.16H85.0979C85.1512 59.024 85.4445 59.7013 85.9779 60.192C86.5219 60.672 87.1779 60.912 87.9459 60.912C88.5752 60.912 89.0979 60.768 89.5139 60.48C89.9405 60.1813 90.2392 59.7867 90.4099 59.296H91.9779C91.7432 60.1387 91.2739 60.8267 90.5699 61.36C89.8659 61.8827 88.9912 62.144 87.9459 62.144C87.1139 62.144 86.3672 61.9573 85.7059 61.584C85.0552 61.2107 84.5432 60.6827 84.1699 60C83.7965 59.3067 83.6099 58.5067 83.6099 57.6C83.6099 56.6933 83.7912 55.8987 84.1539 55.216C84.5165 54.5333 85.0232 54.0107 85.6739 53.648C86.3352 53.2747 87.0925 53.088 87.9459 53.088C88.7779 53.088 89.5139 53.2693 90.1539 53.632C90.7939 53.9947 91.2845 54.496 91.6259 55.136C91.9779 55.7653 92.1539 56.48 92.1539 57.28ZM90.6499 56.976C90.6499 56.4213 90.5272 55.9467 90.2819 55.552C90.0365 55.1467 89.7005 54.8427 89.2739 54.64C88.8579 54.4267 88.3939 54.32 87.8819 54.32C87.1459 54.32 86.5165 54.5547 85.9939 55.024C85.4819 55.4933 85.1885 56.144 85.1139 56.976H90.6499ZM95.5318 54.656C95.7878 54.1547 96.1504 53.7653 96.6198 53.488C97.0998 53.2107 97.6811 53.072 98.3638 53.072V54.576H97.9798C96.3478 54.576 95.5318 55.4613 95.5318 57.232V62H94.0758V53.232H95.5318V54.656ZM101.501 54.656C101.757 54.1547 102.119 53.7653 102.589 53.488C103.069 53.2107 103.65 53.072 104.333 53.072V54.576H103.949C102.317 54.576 101.501 55.4613 101.501 57.232V62H100.045V53.232H101.501V54.656ZM105.469 57.584C105.469 56.688 105.651 55.904 106.013 55.232C106.376 54.5493 106.872 54.0213 107.501 53.648C108.141 53.2747 108.851 53.088 109.629 53.088C110.397 53.088 111.064 53.2533 111.629 53.584C112.195 53.9147 112.616 54.3307 112.893 54.832V53.232H114.365V62H112.893V60.368C112.605 60.88 112.173 61.3067 111.597 61.648C111.032 61.9787 110.371 62.144 109.613 62.144C108.835 62.144 108.131 61.952 107.501 61.568C106.872 61.184 106.376 60.6453 106.013 59.952C105.651 59.2587 105.469 58.4693 105.469 57.584ZM112.893 57.6C112.893 56.9387 112.76 56.3627 112.493 55.872C112.227 55.3813 111.864 55.008 111.405 54.752C110.957 54.4853 110.461 54.352 109.917 54.352C109.373 54.352 108.877 54.48 108.429 54.736C107.981 54.992 107.624 55.3653 107.357 55.856C107.091 56.3467 106.957 56.9227 106.957 57.584C106.957 58.256 107.091 58.8427 107.357 59.344C107.624 59.8347 107.981 60.2133 108.429 60.48C108.877 60.736 109.373 60.864 109.917 60.864C110.461 60.864 110.957 60.736 111.405 60.48C111.864 60.2133 112.227 59.8347 112.493 59.344C112.76 58.8427 112.893 58.2613 112.893 57.6ZM118.282 50.16V62H116.826V50.16H118.282ZM128.565 62.112C127.829 62.112 127.168 61.984 126.581 61.728C126.005 61.4613 125.552 61.0987 125.221 60.64C124.89 60.1707 124.72 59.632 124.709 59.024H126.261C126.314 59.5467 126.528 59.9893 126.901 60.352C127.285 60.704 127.84 60.88 128.565 60.88C129.258 60.88 129.802 60.7093 130.197 60.368C130.602 60.016 130.805 59.568 130.805 59.024C130.805 58.5973 130.688 58.2507 130.453 57.984C130.218 57.7173 129.925 57.5147 129.573 57.376C129.221 57.2373 128.746 57.088 128.149 56.928C127.413 56.736 126.821 56.544 126.373 56.352C125.936 56.16 125.557 55.8613 125.237 55.456C124.928 55.04 124.773 54.4853 124.773 53.792C124.773 53.184 124.928 52.6453 125.237 52.176C125.546 51.7067 125.978 51.344 126.533 51.088C127.098 50.832 127.744 50.704 128.469 50.704C129.514 50.704 130.368 50.9653 131.029 51.488C131.701 52.0107 132.08 52.704 132.165 53.568H130.565C130.512 53.1413 130.288 52.768 129.893 52.448C129.498 52.1173 128.976 51.952 128.325 51.952C127.717 51.952 127.221 52.112 126.837 52.432C126.453 52.7413 126.261 53.1787 126.261 53.744C126.261 54.1493 126.373 54.48 126.597 54.736C126.832 54.992 127.114 55.1893 127.445 55.328C127.786 55.456 128.261 55.6053 128.869 55.776C129.605 55.9787 130.197 56.1813 130.645 56.384C131.093 56.576 131.477 56.88 131.797 57.296C132.117 57.7013 132.277 58.256 132.277 58.96C132.277 59.504 132.133 60.016 131.845 60.496C131.557 60.976 131.13 61.3653 130.565 61.664C130 61.9627 129.333 62.112 128.565 62.112ZM141.972 53.232L136.692 66.128H135.188L136.916 61.904L133.38 53.232H134.996L137.748 60.336L140.468 53.232H141.972ZM146.539 62.144C145.867 62.144 145.264 62.032 144.731 61.808C144.198 61.5733 143.776 61.2533 143.467 60.848C143.158 60.432 142.987 59.9573 142.955 59.424H144.459C144.502 59.8613 144.704 60.2187 145.067 60.496C145.44 60.7733 145.926 60.912 146.523 60.912C147.078 60.912 147.515 60.7893 147.835 60.544C148.155 60.2987 148.315 59.9893 148.315 59.616C148.315 59.232 148.144 58.9493 147.803 58.768C147.462 58.576 146.934 58.3893 146.219 58.208C145.568 58.0373 145.035 57.8667 144.619 57.696C144.214 57.5147 143.862 57.2533 143.563 56.912C143.275 56.56 143.131 56.1013 143.131 55.536C143.131 55.088 143.264 54.6773 143.531 54.304C143.798 53.9307 144.176 53.6373 144.667 53.424C145.158 53.2 145.718 53.088 146.347 53.088C147.318 53.088 148.102 53.3333 148.699 53.824C149.296 54.3147 149.616 54.9867 149.659 55.84H148.203C148.171 55.3813 147.984 55.0133 147.643 54.736C147.312 54.4587 146.864 54.32 146.299 54.32C145.776 54.32 145.36 54.432 145.051 54.656C144.742 54.88 144.587 55.1733 144.587 55.536C144.587 55.824 144.678 56.064 144.859 56.256C145.051 56.4373 145.286 56.5867 145.563 56.704C145.851 56.8107 146.246 56.9333 146.747 57.072C147.376 57.2427 147.888 57.4133 148.283 57.584C148.678 57.744 149.014 57.9893 149.291 58.32C149.579 58.6507 149.728 59.0827 149.739 59.616C149.739 60.096 149.606 60.528 149.339 60.912C149.072 61.296 148.694 61.6 148.203 61.824C147.723 62.0373 147.168 62.144 146.539 62.144ZM153.571 54.432V59.6C153.571 60.0267 153.661 60.3307 153.843 60.512C154.024 60.6827 154.339 60.768 154.786 60.768H155.859V62H154.547C153.736 62 153.128 61.8133 152.723 61.44C152.317 61.0667 152.115 60.4533 152.115 59.6V54.432H150.979V53.232H152.115V51.024H153.571V53.232H155.859V54.432H153.571ZM165.623 57.28C165.623 57.5573 165.607 57.8507 165.575 58.16H158.567C158.62 59.024 158.913 59.7013 159.447 60.192C159.991 60.672 160.647 60.912 161.415 60.912C162.044 60.912 162.567 60.768 162.983 60.48C163.409 60.1813 163.708 59.7867 163.879 59.296H165.447C165.212 60.1387 164.743 60.8267 164.039 61.36C163.335 61.8827 162.46 62.144 161.415 62.144C160.583 62.144 159.836 61.9573 159.175 61.584C158.524 61.2107 158.012 60.6827 157.639 60C157.265 59.3067 157.079 58.5067 157.079 57.6C157.079 56.6933 157.26 55.8987 157.623 55.216C157.985 54.5333 158.492 54.0107 159.143 53.648C159.804 53.2747 160.561 53.088 161.415 53.088C162.247 53.088 162.983 53.2693 163.623 53.632C164.263 53.9947 164.753 54.496 165.095 55.136C165.447 55.7653 165.623 56.48 165.623 57.28ZM164.119 56.976C164.119 56.4213 163.996 55.9467 163.751 55.552C163.505 55.1467 163.169 54.8427 162.743 54.64C162.327 54.4267 161.863 54.32 161.351 54.32C160.615 54.32 159.985 54.5547 159.463 55.024C158.951 55.4933 158.657 56.144 158.583 56.976H164.119ZM178.089 53.072C178.771 53.072 179.379 53.216 179.913 53.504C180.446 53.7813 180.867 54.2027 181.177 54.768C181.486 55.3333 181.641 56.0213 181.641 56.832V62H180.201V57.04C180.201 56.1653 179.982 55.4987 179.545 55.04C179.118 54.5707 178.537 54.336 177.801 54.336C177.043 54.336 176.441 54.5813 175.993 55.072C175.545 55.552 175.321 56.2507 175.321 57.168V62H173.881V57.04C173.881 56.1653 173.662 55.4987 173.225 55.04C172.798 54.5707 172.217 54.336 171.481 54.336C170.723 54.336 170.121 54.5813 169.673 55.072C169.225 55.552 169.001 56.2507 169.001 57.168V62H167.545V53.232H169.001V54.496C169.289 54.0373 169.673 53.6853 170.153 53.44C170.643 53.1947 171.182 53.072 171.769 53.072C172.505 53.072 173.155 53.2373 173.721 53.568C174.286 53.8987 174.707 54.384 174.985 55.024C175.23 54.4053 175.635 53.9253 176.201 53.584C176.766 53.2427 177.395 53.072 178.089 53.072ZM60.688 72.032V75.76H64.752V76.96H60.688V80.8H65.232V82H59.232V70.832H65.232V72.032H60.688ZM66.8911 77.584C66.8911 76.688 67.0725 75.904 67.4351 75.232C67.7978 74.5493 68.2938 74.0213 68.9231 73.648C69.5631 73.2747 70.2725 73.088 71.0511 73.088C71.8191 73.088 72.4858 73.2533 73.0511 73.584C73.6165 73.9147 74.0378 74.3307 74.3151 74.832V73.232H75.7871V82H74.3151V80.368C74.0271 80.88 73.5951 81.3067 73.0191 81.648C72.4538 81.9787 71.7925 82.144 71.0351 82.144C70.2565 82.144 69.5525 81.952 68.9231 81.568C68.2938 81.184 67.7978 80.6453 67.4351 79.952C67.0725 79.2587 66.8911 78.4693 66.8911 77.584ZM74.3151 77.6C74.3151 76.9387 74.1818 76.3627 73.9151 75.872C73.6485 75.3813 73.2858 75.008 72.8271 74.752C72.3791 74.4853 71.8831 74.352 71.3391 74.352C70.7951 74.352 70.2991 74.48 69.8511 74.736C69.4031 74.992 69.0458 75.3653 68.7791 75.856C68.5125 76.3467 68.3791 76.9227 68.3791 77.584C68.3791 78.256 68.5125 78.8427 68.7791 79.344C69.0458 79.8347 69.4031 80.2133 69.8511 80.48C70.2991 80.736 70.7951 80.864 71.3391 80.864C71.8831 80.864 72.3791 80.736 72.8271 80.48C73.2858 80.2133 73.6485 79.8347 73.9151 79.344C74.1818 78.8427 74.3151 78.2613 74.3151 77.6ZM79.7036 74.656C79.9596 74.1547 80.3223 73.7653 80.7916 73.488C81.2716 73.2107 81.853 73.072 82.5356 73.072V74.576H82.1516C80.5196 74.576 79.7036 75.4613 79.7036 77.232V82H78.2476V73.232H79.7036V74.656ZM88.4884 73.072C89.555 73.072 90.419 73.3973 91.0804 74.048C91.7417 74.688 92.0724 75.616 92.0724 76.832V82H90.6324V77.04C90.6324 76.1653 90.4137 75.4987 89.9764 75.04C89.539 74.5707 88.9417 74.336 88.1844 74.336C87.4164 74.336 86.803 74.576 86.3444 75.056C85.8964 75.536 85.6724 76.2347 85.6724 77.152V82H84.2164V73.232H85.6724V74.48C85.9604 74.032 86.3497 73.6853 86.8404 73.44C87.3417 73.1947 87.891 73.072 88.4884 73.072ZM105.58 70.848V72.032H102.54V82H101.084V72.032H98.0284V70.848H105.58ZM106.829 77.584C106.829 76.688 107.01 75.904 107.373 75.232C107.735 74.5493 108.231 74.0213 108.861 73.648C109.501 73.2747 110.21 73.088 110.989 73.088C111.757 73.088 112.423 73.2533 112.989 73.584C113.554 73.9147 113.975 74.3307 114.253 74.832V73.232H115.725V82H114.253V80.368C113.965 80.88 113.533 81.3067 112.957 81.648C112.391 81.9787 111.73 82.144 110.973 82.144C110.194 82.144 109.49 81.952 108.861 81.568C108.231 81.184 107.735 80.6453 107.373 79.952C107.01 79.2587 106.829 78.4693 106.829 77.584ZM114.253 77.6C114.253 76.9387 114.119 76.3627 113.853 75.872C113.586 75.3813 113.223 75.008 112.765 74.752C112.317 74.4853 111.821 74.352 111.277 74.352C110.733 74.352 110.237 74.48 109.789 74.736C109.341 74.992 108.983 75.3653 108.717 75.856C108.45 76.3467 108.317 76.9227 108.317 77.584C108.317 78.256 108.45 78.8427 108.717 79.344C108.983 79.8347 109.341 80.2133 109.789 80.48C110.237 80.736 110.733 80.864 111.277 80.864C111.821 80.864 112.317 80.736 112.765 80.48C113.223 80.2133 113.586 79.8347 113.853 79.344C114.119 78.8427 114.253 78.2613 114.253 77.6ZM121.289 82.144C120.617 82.144 120.014 82.032 119.481 81.808C118.948 81.5733 118.526 81.2533 118.217 80.848C117.908 80.432 117.737 79.9573 117.705 79.424H119.209C119.252 79.8613 119.454 80.2187 119.817 80.496C120.19 80.7733 120.676 80.912 121.273 80.912C121.828 80.912 122.265 80.7893 122.585 80.544C122.905 80.2987 123.065 79.9893 123.065 79.616C123.065 79.232 122.894 78.9493 122.553 78.768C122.212 78.576 121.684 78.3893 120.969 78.208C120.318 78.0373 119.785 77.8667 119.369 77.696C118.964 77.5147 118.612 77.2533 118.313 76.912C118.025 76.56 117.881 76.1013 117.881 75.536C117.881 75.088 118.014 74.6773 118.281 74.304C118.548 73.9307 118.926 73.6373 119.417 73.424C119.908 73.2 120.468 73.088 121.097 73.088C122.068 73.088 122.852 73.3333 123.449 73.824C124.046 74.3147 124.366 74.9867 124.409 75.84H122.953C122.921 75.3813 122.734 75.0133 122.393 74.736C122.062 74.4587 121.614 74.32 121.049 74.32C120.526 74.32 120.11 74.432 119.801 74.656C119.492 74.88 119.337 75.1733 119.337 75.536C119.337 75.824 119.428 76.064 119.609 76.256C119.801 76.4373 120.036 76.5867 120.313 76.704C120.601 76.8107 120.996 76.9333 121.497 77.072C122.126 77.2427 122.638 77.4133 123.033 77.584C123.428 77.744 123.764 77.9893 124.041 78.32C124.329 78.6507 124.478 79.0827 124.489 79.616C124.489 80.096 124.356 80.528 124.089 80.912C123.822 81.296 123.444 81.6 122.953 81.824C122.473 82.0373 121.918 82.144 121.289 82.144ZM131.441 82L128.001 78.128V82H126.545V70.16H128.001V77.12L131.377 73.232H133.409L129.281 77.6L133.425 82H131.441ZM73.248 90.848L70.016 102H68.384L65.792 93.024L63.104 102L61.488 102.016L58.368 90.848H59.92L62.352 100.304L65.04 90.848H66.672L69.232 100.272L71.68 90.848H73.248ZM74.2974 97.584C74.2974 96.688 74.4787 95.904 74.8414 95.232C75.204 94.5493 75.7 94.0213 76.3294 93.648C76.9694 93.2747 77.6787 93.088 78.4574 93.088C79.2254 93.088 79.892 93.2533 80.4574 93.584C81.0227 93.9147 81.444 94.3307 81.7214 94.832V93.232H83.1934V102H81.7214V100.368C81.4334 100.88 81.0014 101.307 80.4254 101.648C79.86 101.979 79.1987 102.144 78.4414 102.144C77.6627 102.144 76.9587 101.952 76.3294 101.568C75.7 101.184 75.204 100.645 74.8414 99.952C74.4787 99.2587 74.2974 98.4693 74.2974 97.584ZM81.7214 97.6C81.7214 96.9387 81.588 96.3627 81.3214 95.872C81.0547 95.3813 80.692 95.008 80.2334 94.752C79.7854 94.4853 79.2894 94.352 78.7454 94.352C78.2014 94.352 77.7054 94.48 77.2574 94.736C76.8094 94.992 76.452 95.3653 76.1854 95.856C75.9187 96.3467 75.7854 96.9227 75.7854 97.584C75.7854 98.256 75.9187 98.8427 76.1854 99.344C76.452 99.8347 76.8094 100.213 77.2574 100.48C77.7054 100.736 78.2014 100.864 78.7454 100.864C79.2894 100.864 79.7854 100.736 80.2334 100.48C80.692 100.213 81.0547 99.8347 81.3214 99.344C81.588 98.8427 81.7214 98.2613 81.7214 97.6ZM87.1099 90.16V102H85.6539V90.16H87.1099ZM91.0474 90.16V102H89.5914V90.16H91.0474ZM101.529 97.28C101.529 97.5573 101.513 97.8507 101.481 98.16H94.4729C94.5262 99.024 94.8195 99.7013 95.3529 100.192C95.8969 100.672 96.5529 100.912 97.3209 100.912C97.9502 100.912 98.4729 100.768 98.8889 100.48C99.3155 100.181 99.6142 99.7867 99.7849 99.296H101.353C101.118 100.139 100.649 100.827 99.9449 101.36C99.2409 101.883 98.3662 102.144 97.3209 102.144C96.4889 102.144 95.7422 101.957 95.0809 101.584C94.4302 101.211 93.9182 100.683 93.5449 100C93.1715 99.3067 92.9849 98.5067 92.9849 97.6C92.9849 96.6933 93.1662 95.8987 93.5289 95.216C93.8915 94.5333 94.3982 94.0107 95.0489 93.648C95.7102 93.2747 96.4675 93.088 97.3209 93.088C98.1529 93.088 98.8889 93.2693 99.5289 93.632C100.169 93.9947 100.66 94.496 101.001 95.136C101.353 95.7653 101.529 96.48 101.529 97.28ZM100.025 96.976C100.025 96.4213 99.9022 95.9467 99.6569 95.552C99.4115 95.1467 99.0755 94.8427 98.6489 94.64C98.2329 94.4267 97.7689 94.32 97.2569 94.32C96.5209 94.32 95.8915 94.5547 95.3689 95.024C94.8569 95.4933 94.5635 96.144 94.4889 96.976H100.025ZM105.227 94.432V99.6C105.227 100.027 105.317 100.331 105.499 100.512C105.68 100.683 105.995 100.768 106.443 100.768H107.515V102H106.203C105.392 102 104.784 101.813 104.379 101.44C103.973 101.067 103.771 100.453 103.771 99.6V94.432H102.635V93.232H103.771V91.024H105.227V93.232H107.515V94.432H105.227ZM114.297 91.808C114.019 91.808 113.785 91.712 113.593 91.52C113.401 91.328 113.305 91.0933 113.305 90.816C113.305 90.5387 113.401 90.304 113.593 90.112C113.785 89.92 114.019 89.824 114.297 89.824C114.563 89.824 114.787 89.92 114.969 90.112C115.161 90.304 115.257 90.5387 115.257 90.816C115.257 91.0933 115.161 91.328 114.969 91.52C114.787 91.712 114.563 91.808 114.297 91.808ZM115.001 93.232V102H113.545V93.232H115.001ZM121.754 93.072C122.821 93.072 123.685 93.3973 124.346 94.048C125.007 94.688 125.338 95.616 125.338 96.832V102H123.898V97.04C123.898 96.1653 123.679 95.4987 123.242 95.04C122.805 94.5707 122.207 94.336 121.45 94.336C120.682 94.336 120.069 94.576 119.61 95.056C119.162 95.536 118.938 96.2347 118.938 97.152V102H117.482V93.232H118.938V94.48C119.226 94.032 119.615 93.6853 120.106 93.44C120.607 93.1947 121.157 93.072 121.754 93.072ZM129.492 94.432V99.6C129.492 100.027 129.583 100.331 129.764 100.512C129.946 100.683 130.26 100.768 130.708 100.768H131.78V102H130.468C129.658 102 129.05 101.813 128.644 101.44C128.239 101.067 128.036 100.453 128.036 99.6V94.432H126.9V93.232H128.036V91.024H129.492V93.232H131.78V94.432H129.492ZM141.545 97.28C141.545 97.5573 141.529 97.8507 141.497 98.16H134.489C134.542 99.024 134.835 99.7013 135.369 100.192C135.913 100.672 136.569 100.912 137.337 100.912C137.966 100.912 138.489 100.768 138.905 100.48C139.331 100.181 139.63 99.7867 139.801 99.296H141.369C141.134 100.139 140.665 100.827 139.961 101.36C139.257 101.883 138.382 102.144 137.337 102.144C136.505 102.144 135.758 101.957 135.097 101.584C134.446 101.211 133.934 100.683 133.561 100C133.187 99.3067 133.001 98.5067 133.001 97.6C133.001 96.6933 133.182 95.8987 133.545 95.216C133.907 94.5333 134.414 94.0107 135.065 93.648C135.726 93.2747 136.483 93.088 137.337 93.088C138.169 93.088 138.905 93.2693 139.545 93.632C140.185 93.9947 140.675 94.496 141.017 95.136C141.369 95.7653 141.545 96.48 141.545 97.28ZM140.041 96.976C140.041 96.4213 139.918 95.9467 139.673 95.552C139.427 95.1467 139.091 94.8427 138.665 94.64C138.249 94.4267 137.785 94.32 137.273 94.32C136.537 94.32 135.907 94.5547 135.385 95.024C134.873 95.4933 134.579 96.144 134.505 96.976H140.041ZM147.082 93.088C147.84 93.088 148.501 93.2533 149.066 93.584C149.642 93.9147 150.069 94.3307 150.346 94.832V93.232H151.818V102.192C151.818 102.992 151.648 103.701 151.306 104.32C150.965 104.949 150.474 105.44 149.834 105.792C149.205 106.144 148.469 106.32 147.626 106.32C146.474 106.32 145.514 106.048 144.746 105.504C143.978 104.96 143.525 104.219 143.386 103.28H144.826C144.986 103.813 145.317 104.24 145.818 104.56C146.32 104.891 146.922 105.056 147.626 105.056C148.426 105.056 149.077 104.805 149.578 104.304C150.09 103.803 150.346 103.099 150.346 102.192V100.352C150.058 100.864 149.632 101.291 149.066 101.632C148.501 101.973 147.84 102.144 147.082 102.144C146.304 102.144 145.594 101.952 144.954 101.568C144.325 101.184 143.829 100.645 143.466 99.952C143.104 99.2587 142.922 98.4693 142.922 97.584C142.922 96.688 143.104 95.904 143.466 95.232C143.829 94.5493 144.325 94.0213 144.954 93.648C145.594 93.2747 146.304 93.088 147.082 93.088ZM150.346 97.6C150.346 96.9387 150.213 96.3627 149.946 95.872C149.68 95.3813 149.317 95.008 148.858 94.752C148.41 94.4853 147.914 94.352 147.37 94.352C146.826 94.352 146.33 94.48 145.882 94.736C145.434 94.992 145.077 95.3653 144.81 95.856C144.544 96.3467 144.41 96.9227 144.41 97.584C144.41 98.256 144.544 98.8427 144.81 99.344C145.077 99.8347 145.434 100.213 145.882 100.48C146.33 100.736 146.826 100.864 147.37 100.864C147.914 100.864 148.41 100.736 148.858 100.48C149.317 100.213 149.68 99.8347 149.946 99.344C150.213 98.8427 150.346 98.2613 150.346 97.6ZM155.735 94.656C155.991 94.1547 156.354 93.7653 156.823 93.488C157.303 93.2107 157.884 93.072 158.567 93.072V94.576H158.183C156.551 94.576 155.735 95.4613 155.735 97.232V102H154.279V93.232H155.735V94.656ZM159.704 97.584C159.704 96.688 159.885 95.904 160.248 95.232C160.61 94.5493 161.106 94.0213 161.736 93.648C162.376 93.2747 163.085 93.088 163.864 93.088C164.632 93.088 165.298 93.2533 165.864 93.584C166.429 93.9147 166.85 94.3307 167.128 94.832V93.232H168.6V102H167.128V100.368C166.84 100.88 166.408 101.307 165.832 101.648C165.266 101.979 164.605 102.144 163.848 102.144C163.069 102.144 162.365 101.952 161.736 101.568C161.106 101.184 160.61 100.645 160.248 99.952C159.885 99.2587 159.704 98.4693 159.704 97.584ZM167.128 97.6C167.128 96.9387 166.994 96.3627 166.728 95.872C166.461 95.3813 166.098 95.008 165.64 94.752C165.192 94.4853 164.696 94.352 164.152 94.352C163.608 94.352 163.112 94.48 162.664 94.736C162.216 94.992 161.858 95.3653 161.592 95.856C161.325 96.3467 161.192 96.9227 161.192 97.584C161.192 98.256 161.325 98.8427 161.592 99.344C161.858 99.8347 162.216 100.213 162.664 100.48C163.112 100.736 163.608 100.864 164.152 100.864C164.696 100.864 165.192 100.736 165.64 100.48C166.098 100.213 166.461 99.8347 166.728 99.344C166.994 98.8427 167.128 98.2613 167.128 97.6ZM172.836 94.432V99.6C172.836 100.027 172.927 100.331 173.108 100.512C173.289 100.683 173.604 100.768 174.052 100.768H175.124V102H173.812C173.001 102 172.393 101.813 171.988 101.44C171.583 101.067 171.38 100.453 171.38 99.6V94.432H170.244V93.232H171.38V91.024H172.836V93.232H175.124V94.432H172.836ZM177.64 91.808C177.363 91.808 177.128 91.712 176.936 91.52C176.744 91.328 176.648 91.0933 176.648 90.816C176.648 90.5387 176.744 90.304 176.936 90.112C177.128 89.92 177.363 89.824 177.64 89.824C177.907 89.824 178.131 89.92 178.312 90.112C178.504 90.304 178.6 90.5387 178.6 90.816C178.6 91.0933 178.504 91.328 178.312 91.52C178.131 91.712 177.907 91.808 177.64 91.808ZM178.344 93.232V102H176.888V93.232H178.344ZM184.65 102.144C183.828 102.144 183.082 101.957 182.41 101.584C181.748 101.211 181.226 100.683 180.842 100C180.468 99.3067 180.282 98.5067 180.282 97.6C180.282 96.704 180.474 95.9147 180.858 95.232C181.252 94.5387 181.786 94.0107 182.458 93.648C183.13 93.2747 183.882 93.088 184.714 93.088C185.546 93.088 186.298 93.2747 186.97 93.648C187.642 94.0107 188.17 94.5333 188.554 95.216C188.948 95.8987 189.146 96.6933 189.146 97.6C189.146 98.5067 188.943 99.3067 188.538 100C188.143 100.683 187.604 101.211 186.922 101.584C186.239 101.957 185.482 102.144 184.65 102.144ZM184.65 100.864C185.172 100.864 185.663 100.741 186.122 100.496C186.58 100.251 186.948 99.8827 187.226 99.392C187.514 98.9013 187.658 98.304 187.658 97.6C187.658 96.896 187.519 96.2987 187.242 95.808C186.964 95.3173 186.602 94.9547 186.154 94.72C185.706 94.4747 185.22 94.352 184.698 94.352C184.164 94.352 183.674 94.4747 183.226 94.72C182.788 94.9547 182.436 95.3173 182.17 95.808C181.903 96.2987 181.77 96.896 181.77 97.6C181.77 98.3147 181.898 98.9173 182.154 99.408C182.42 99.8987 182.772 100.267 183.21 100.512C183.647 100.747 184.127 100.864 184.65 100.864ZM195.332 93.072C196.399 93.072 197.263 93.3973 197.924 94.048C198.585 94.688 198.916 95.616 198.916 96.832V102H197.476V97.04C197.476 96.1653 197.257 95.4987 196.82 95.04C196.383 94.5707 195.785 94.336 195.028 94.336C194.26 94.336 193.647 94.576 193.188 95.056C192.74 95.536 192.516 96.2347 192.516 97.152V102H191.06V93.232H192.516V94.48C192.804 94.032 193.193 93.6853 193.684 93.44C194.185 93.1947 194.735 93.072 195.332 93.072Z" fill="white"/>
</g>
<g filter="url(#filter1_d_180_3501)">
<mask id="path-4-outside-1_180_3501" maskUnits="userSpaceOnUse" x="-1" y="5" width="21" height="125" fill="black">
<rect fill="white" x="-1" y="5" width="21" height="125"/>
<path d="M18.168 121.704C18.168 123.784 17.752 125.448 16.92 126.696C16.088 127.928 14.872 128.544 13.272 128.544C13.112 128.544 12.872 128.528 12.552 128.496V122.832C13.048 122.88 13.416 122.808 13.656 122.616C13.896 122.408 14.016 122.072 14.016 121.608C14.016 121.32 13.944 121.08 13.8 120.888C13.656 120.696 13.448 120.6 13.176 120.6C12.792 120.6 12.472 120.792 12.216 121.176C11.96 121.544 11.656 122.144 11.304 122.976C10.92 123.888 10.552 124.64 10.2 125.232C9.848 125.808 9.368 126.312 8.76 126.744C8.152 127.176 7.392 127.392 6.48 127.392C5.28 127.392 4.248 127.096 3.384 126.504C2.504 125.896 1.84 125.056 1.392 123.984C0.943999 122.912 0.719999 121.688 0.719999 120.312C0.719999 119.08 0.911999 117.984 1.296 117.024C1.68 116.048 2.24 115.288 2.976 114.744C3.696 114.184 4.552 113.904 5.544 113.904C5.672 113.904 5.896 113.92 6.216 113.952L6.216 119.688C6.024 119.656 5.896 119.64 5.832 119.64C5.528 119.64 5.296 119.728 5.136 119.904C4.96 120.08 4.872 120.32 4.872 120.624C4.872 120.896 4.952 121.12 5.112 121.296C5.272 121.472 5.48 121.56 5.736 121.56C6.088 121.56 6.4 121.376 6.672 121.008C6.928 120.64 7.248 120.056 7.632 119.256C8.064 118.344 8.472 117.592 8.856 117C9.24 116.392 9.752 115.872 10.392 115.44C11.016 115.008 11.784 114.792 12.696 114.792C13.736 114.792 14.672 115.072 15.504 115.632C16.336 116.176 16.992 116.968 17.472 118.008C17.936 119.048 18.168 120.28 18.168 121.704ZM5.232 106.018L7.344 106.378V101.098L11.352 101.818L11.352 107.098L13.752 107.53L13.752 101.53L18 102.274L18 113.602L1.008 110.602L1.008 99.2736L5.232 100.018L5.232 106.018ZM6.84 84.4016C7.912 84.5936 8.888 85.0096 9.768 85.6496C10.632 86.2896 11.32 87.1456 11.832 88.2176C12.344 89.2736 12.6 90.4896 12.6 91.8656V93.9776L18 94.9376V100.266L1.008 97.2656L1.008 89.8256C1.008 88.0176 1.416 86.6416 2.232 85.6976C3.048 84.7536 4.168 84.2816 5.592 84.2816C5.944 84.2816 6.36 84.3216 6.84 84.4016ZM8.4 91.7216C8.4 90.6336 7.88 89.9936 6.84 89.8016C6.648 89.7696 6.512 89.7536 6.432 89.7536C5.664 89.7536 5.28 90.2256 5.28 91.1696V92.6816L8.4 93.2336V91.7216ZM1.008 68.3357L5.232 69.0797V73.5917L18 75.8477L18 81.1757L5.232 78.9197V83.3837L1.008 82.6397L1.008 68.3357ZM13.752 65.5965C12.168 63.2125 10.76 61.3005 9.528 59.8605C8.296 58.4205 7.192 57.6125 6.216 57.4365C5.992 57.4045 5.848 57.3885 5.784 57.3885C5.272 57.3885 5.016 57.6125 5.016 58.0605C5.016 58.3805 5.16 58.6365 5.448 58.8285C5.72 59.0045 6.24 59.1645 7.008 59.3085L7.008 64.4685C4.816 64.0045 3.192 63.0765 2.136 61.6845C1.08 60.2765 0.551999 58.6685 0.551999 56.8605C0.551999 55.1005 0.935999 53.8205 1.704 53.0205C2.456 52.2205 3.432 51.8205 4.632 51.8205C4.856 51.8205 5.208 51.8525 5.688 51.9165C7.208 52.1885 8.64 52.9485 9.984 54.1965C11.328 55.4285 12.488 56.9005 13.464 58.6125L13.464 53.1165L17.76 53.8845V66.2925L13.752 65.5965ZM9.288 51.1147C6.664 50.6507 4.576 49.6907 3.024 48.2347C1.472 46.7787 0.696 44.8347 0.696 42.4027C0.696 40.3867 1.24 38.8987 2.328 37.9387C3.4 36.9627 4.888 36.4747 6.792 36.4747C7.608 36.4747 8.44 36.5547 9.288 36.7147C11.912 37.1787 14.008 38.1387 15.576 39.5947C17.128 41.0507 17.904 42.9947 17.904 45.4267C17.904 47.4427 17.368 48.9387 16.296 49.9147C15.208 50.8747 13.704 51.3547 11.784 51.3547C11.112 51.3547 10.28 51.2747 9.288 51.1147ZM9.288 41.9707C8.648 41.8427 8.072 41.7787 7.56 41.7787C6.344 41.7787 5.736 42.2827 5.736 43.2907C5.736 44.0907 6.048 44.6747 6.672 45.0427C7.28 45.3947 8.152 45.6747 9.288 45.8828C9.96 46.0107 10.536 46.0747 11.016 46.0747C11.608 46.0747 12.064 45.9627 12.384 45.7387C12.704 45.4987 12.864 45.0987 12.864 44.5387C12.864 43.7547 12.552 43.1867 11.928 42.8347C11.304 42.4667 10.424 42.1787 9.288 41.9707ZM13.752 36.1121C12.168 33.7281 10.76 31.8161 9.528 30.3761C8.296 28.9361 7.192 28.1281 6.216 27.9521C5.992 27.9201 5.848 27.9041 5.784 27.9041C5.272 27.9041 5.016 28.1281 5.016 28.5761C5.016 28.8961 5.16 29.1521 5.448 29.3441C5.72 29.5201 6.24 29.6801 7.008 29.8241V34.9841C4.816 34.5201 3.192 33.5921 2.136 32.2001C1.08 30.7921 0.551999 29.1841 0.551999 27.3761C0.551999 25.6161 0.935999 24.3361 1.704 23.5361C2.456 22.7361 3.432 22.3361 4.632 22.3361C4.856 22.3361 5.208 22.3681 5.688 22.4321C7.208 22.7041 8.64 23.4641 9.984 24.7121C11.328 25.9441 12.488 27.4161 13.464 29.1281L13.464 23.6321L17.76 24.4001V36.8081L13.752 36.1121ZM15.36 22.2064L10.92 21.4384L0.719999 12.4864L0.719999 6.75037L10.752 8.50237V6.77437L15.36 7.59037L15.36 9.31837L18 9.79837V15.1744L15.36 14.6944V22.2064ZM6.792 12.7504L10.752 16.0384V13.4464L6.792 12.7504Z"/>
</mask>
<path d="M16.92 126.696L17.7487 127.256L17.7521 127.251L16.92 126.696ZM12.552 128.496H11.552V129.401L12.4525 129.491L12.552 128.496ZM12.552 122.832L12.6483 121.837L11.552 121.731V122.832H12.552ZM13.656 122.616L14.2807 123.397L14.2961 123.385L14.3109 123.372L13.656 122.616ZM13.8 120.888L14.6 120.288L14.6 120.288L13.8 120.888ZM12.216 121.176L13.0369 121.747L13.0426 121.739L13.048 121.731L12.216 121.176ZM11.304 122.976L10.383 122.586L10.3824 122.588L11.304 122.976ZM10.2 125.232L11.0533 125.753L11.0595 125.743L10.2 125.232ZM8.76 126.744L8.18079 125.929L8.18079 125.929L8.76 126.744ZM3.384 126.504L2.81556 127.327L2.81877 127.329L3.384 126.504ZM1.392 123.984L0.46933 124.37H0.46933L1.392 123.984ZM1.296 117.024L2.22449 117.395L2.22657 117.39L1.296 117.024ZM2.976 114.744L3.57039 115.548L3.58026 115.541L3.58994 115.533L2.976 114.744ZM6.216 113.952H7.216V113.047L6.3155 112.957L6.216 113.952ZM6.216 119.688L6.0516 120.674L7.216 120.868V119.688H6.216ZM5.136 119.904L5.8431 120.611L5.85993 120.594L5.87594 120.577L5.136 119.904ZM5.112 121.296L5.85194 120.623L5.85194 120.623L5.112 121.296ZM6.672 121.008L7.47618 121.602L7.48471 121.591L7.4929 121.579L6.672 121.008ZM7.632 119.256L8.53354 119.689L8.53574 119.684L7.632 119.256ZM8.856 117L9.69502 117.544L9.70149 117.534L8.856 117ZM10.392 115.44L10.9515 116.269L10.9612 116.262L10.392 115.44ZM15.504 115.632L14.9456 116.462L14.9567 116.469L15.504 115.632ZM17.472 118.008L18.3853 117.601L18.38 117.589L17.472 118.008ZM17.168 121.704C17.168 123.66 16.7756 125.11 16.0879 126.141L17.7521 127.251C18.7284 125.786 19.168 123.908 19.168 121.704H17.168ZM16.0913 126.136C15.4614 127.069 14.5698 127.544 13.272 127.544V129.544C15.1742 129.544 16.7146 128.787 17.7487 127.256L16.0913 126.136ZM13.272 127.544C13.1638 127.544 12.9644 127.532 12.6515 127.501L12.4525 129.491C12.7796 129.524 13.0602 129.544 13.272 129.544V127.544ZM13.552 128.496V122.832H11.552V128.496H13.552ZM12.4557 123.827C13.0574 123.886 13.7425 123.827 14.2807 123.397L13.0313 121.835C13.062 121.811 13.0681 121.821 13.008 121.833C12.9442 121.845 12.8296 121.854 12.6483 121.837L12.4557 123.827ZM14.3109 123.372C14.8557 122.9 15.016 122.225 15.016 121.608H13.016C13.016 121.758 12.9961 121.839 12.9843 121.872C12.9749 121.898 12.9755 121.882 13.0011 121.86L14.3109 123.372ZM15.016 121.608C15.016 121.148 14.8982 120.686 14.6 120.288L13 121.488C13 121.488 13 121.488 13 121.488C13 121.488 13 121.488 13 121.488C13 121.488 13 121.488 13 121.488C13 121.488 13 121.488 13 121.488C13 121.488 12.9999 121.488 12.9999 121.488C12.9999 121.488 12.9999 121.488 12.9998 121.488C12.9998 121.488 12.9998 121.488 13.0001 121.488C13.0004 121.489 13.0021 121.492 13.0042 121.499C13.0084 121.513 13.016 121.547 13.016 121.608H15.016ZM14.6 120.288C14.2401 119.808 13.7147 119.6 13.176 119.6L13.176 121.6C13.1941 121.6 13.1666 121.603 13.1169 121.58C13.0631 121.555 13.0226 121.518 13 121.488L14.6 120.288ZM13.176 119.6C12.3869 119.6 11.7824 120.024 11.3839 120.621L13.048 121.731C13.1129 121.633 13.1559 121.605 13.1625 121.601C13.1658 121.6 13.1654 121.6 13.1631 121.601C13.161 121.601 13.1642 121.6 13.176 121.6L13.176 119.6ZM11.3951 120.605C11.0772 121.062 10.7406 121.741 10.383 122.586L12.225 123.366C12.5714 122.547 12.8428 122.026 13.0369 121.747L11.3951 120.605ZM10.3824 122.588C10.0092 123.474 9.66126 124.181 9.34046 124.721L11.0595 125.743C11.4427 125.099 11.8308 124.302 12.2256 123.364L10.3824 122.588ZM9.34672 124.711C9.07234 125.16 8.69012 125.567 8.18079 125.929L9.33921 127.559C10.0459 127.057 10.6237 126.456 11.0533 125.753L9.34672 124.711ZM8.18079 125.929C7.77664 126.216 7.2314 126.392 6.48 126.392V128.392C7.55259 128.392 8.52736 128.136 9.33921 127.559L8.18079 125.929ZM6.48 126.392C5.4514 126.392 4.6234 126.141 3.94923 125.679L2.81877 127.329C3.8726 128.051 5.1086 128.392 6.48 128.392V126.392ZM3.95243 125.681C3.24348 125.191 2.69549 124.51 2.31467 123.598L0.46933 124.37C0.984512 125.602 1.76452 126.601 2.81557 127.327L3.95243 125.681ZM2.31467 123.598C1.92621 122.669 1.72 121.58 1.72 120.312H-0.280001C-0.280001 121.796 -0.0382138 123.155 0.46933 124.37L2.31467 123.598ZM1.72 120.312C1.72 119.183 1.89584 118.217 2.22448 117.395L0.367522 116.653C-0.0718417 117.751 -0.280001 118.977 -0.280001 120.312H1.72ZM2.22657 117.39C2.5521 116.563 3.00639 115.965 3.57039 115.548L2.38161 113.94C1.4736 114.611 0.807897 115.533 0.365433 116.658L2.22657 117.39ZM3.58994 115.533C4.11873 115.122 4.75367 114.904 5.544 114.904V112.904C4.35033 112.904 3.27327 113.246 2.36206 113.955L3.58994 115.533ZM5.544 114.904C5.61628 114.904 5.7949 114.915 6.1165 114.947L6.3155 112.957C5.9971 112.925 5.72772 112.904 5.544 112.904V114.904ZM5.216 113.952L5.216 119.688H7.216L7.216 113.952H5.216ZM6.3804 118.702C6.2031 118.672 5.99286 118.64 5.832 118.64V120.64C5.81022 120.64 5.8003 120.639 5.80895 120.64C5.81558 120.64 5.82936 120.641 5.85196 120.644C5.89755 120.65 5.96302 120.66 6.0516 120.674L6.3804 118.702ZM5.832 118.64C5.32966 118.64 4.79524 118.792 4.39606 119.231L5.87594 120.577C5.86236 120.592 5.84605 120.606 5.8281 120.618C5.8103 120.63 5.79488 120.637 5.78465 120.641C5.76504 120.648 5.77477 120.64 5.832 120.64V118.64ZM4.42889 119.197C4.02536 119.6 3.872 120.117 3.872 120.624H5.872C5.872 120.568 5.88015 120.551 5.87687 120.56C5.87522 120.565 5.87151 120.573 5.86483 120.584C5.8581 120.594 5.85045 120.604 5.8431 120.611L4.42889 119.197ZM3.872 120.624C3.872 121.107 4.02067 121.582 4.37206 121.969L5.85194 120.623C5.85536 120.627 5.85994 120.633 5.86449 120.641C5.86904 120.648 5.87203 120.655 5.87374 120.66C5.8754 120.664 5.87506 120.665 5.87424 120.66C5.8734 120.655 5.872 120.643 5.872 120.624H3.872ZM4.37206 121.969C4.73722 122.37 5.22238 122.56 5.736 122.56V120.56C5.72405 120.56 5.74296 120.558 5.77764 120.573C5.81407 120.588 5.83982 120.61 5.85194 120.623L4.37206 121.969ZM5.736 122.56C6.49687 122.56 7.07769 122.142 7.47618 121.602L5.86782 120.414C5.79137 120.517 5.74024 120.552 5.72601 120.561C5.71962 120.564 5.71977 120.563 5.72545 120.562C5.72793 120.561 5.73049 120.561 5.73282 120.56C5.73513 120.56 5.73631 120.56 5.736 120.56V122.56ZM7.4929 121.579C7.79628 121.143 8.14418 120.5 8.53352 119.689L6.73048 118.823C6.35182 119.612 6.05972 120.137 5.85109 120.437L7.4929 121.579ZM8.53574 119.684C8.95609 118.797 9.34292 118.087 9.69496 117.544L8.01704 116.456C7.60108 117.097 7.17191 117.891 6.72826 118.828L8.53574 119.684ZM9.70149 117.534C10.0062 117.051 10.4176 116.629 10.9515 116.269L9.83253 114.611C9.08639 115.115 8.47375 115.733 8.01051 116.466L9.70149 117.534ZM10.9612 116.262C11.3866 115.968 11.9456 115.792 12.696 115.792V113.792C11.6224 113.792 10.6454 114.048 9.82279 114.618L10.9612 116.262ZM12.696 115.792C13.5449 115.792 14.285 116.017 14.9456 116.462L16.0624 114.802C15.059 114.127 13.9271 113.792 12.696 113.792V115.792ZM14.9567 116.469C15.6089 116.895 16.1505 117.531 16.564 118.427L18.38 117.589C17.8335 116.405 17.0631 115.457 16.0513 114.795L14.9567 116.469ZM16.5588 118.415C16.9531 119.299 17.168 120.386 17.168 121.704H19.168C19.168 120.174 18.9189 118.797 18.3852 117.601L16.5588 118.415ZM5.232 106.018H4.232V106.862L5.06397 107.003L5.232 106.018ZM7.344 106.378L7.17597 107.363L8.344 107.562V106.378H7.344ZM7.344 101.098L7.52081 100.113L6.344 99.9019L6.344 101.098H7.344ZM11.352 101.818H12.352V100.981L11.5288 100.833L11.352 101.818ZM11.352 107.098H10.352V107.934L11.1748 108.082L11.352 107.098ZM13.752 107.53L13.5748 108.514L14.752 108.726V107.53H13.752ZM13.752 101.53L13.9245 100.545L12.752 100.339V101.53H13.752ZM18 102.274H19V101.433L18.1725 101.289L18 102.274ZM18 113.602L17.8261 114.586L19 114.794V113.602H18ZM1.008 110.602H0.0079999L0.0079999 111.44L0.834135 111.586L1.008 110.602ZM1.008 99.2736L1.18147 98.2887L0.0079999 98.082L0.0079999 99.2736H1.008ZM5.232 100.018H6.232V99.1783L5.40547 99.0327L5.232 100.018ZM5.06397 107.003L7.17597 107.363L7.51203 105.392L5.40003 105.032L5.06397 107.003ZM8.344 106.378L8.344 101.098H6.344V106.378H8.344ZM7.16719 102.082L11.1752 102.802L11.5288 100.833L7.52081 100.113L7.16719 102.082ZM10.352 101.818L10.352 107.098H12.352L12.352 101.818H10.352ZM11.1748 108.082L13.5748 108.514L13.9292 106.545L11.5292 106.113L11.1748 108.082ZM14.752 107.53L14.752 101.53H12.752L12.752 107.53H14.752ZM13.5795 102.515L17.8275 103.259L18.1725 101.289L13.9245 100.545L13.5795 102.515ZM17 102.274L17 113.602H19L19 102.274H17ZM18.1739 112.617L1.18186 109.617L0.834135 111.586L17.8261 114.586L18.1739 112.617ZM2.008 110.602L2.008 99.2736H0.0079999L0.0079999 110.602H2.008ZM0.834534 100.258L5.05853 101.002L5.40547 99.0327L1.18147 98.2887L0.834534 100.258ZM4.232 100.018L4.232 106.018H6.232L6.232 100.018H4.232ZM6.84 84.4016L7.01631 83.4172L7.0044 83.4152L6.84 84.4016ZM9.768 85.6496L10.3632 84.846L10.3562 84.8409L9.768 85.6496ZM11.832 88.2176L10.9296 88.6486L10.9322 88.6539L11.832 88.2176ZM12.6 93.9776H11.6V94.8155L12.425 94.9622L12.6 93.9776ZM18 94.9376H19V94.0997L18.175 93.9531L18 94.9376ZM18 100.266L17.8261 101.25L19 101.458V100.266H18ZM1.008 97.2656H0.0079999L0.0079999 98.1045L0.834135 98.2504L1.008 97.2656ZM2.232 85.6976L1.47547 85.0437H1.47547L2.232 85.6976ZM6.84 89.8016L7.02155 88.8182L7.01299 88.8167L7.0044 88.8152L6.84 89.8016ZM5.28 92.6816H4.28L4.28 93.5202L5.10578 93.6663L5.28 92.6816ZM8.4 93.2336L8.22578 94.2183L9.4 94.4261V93.2336H8.4ZM6.6637 85.386C7.58704 85.5513 8.42219 85.9074 9.17983 86.4584L10.3562 84.8409C9.35381 84.1119 8.23696 83.6359 7.0163 83.4173L6.6637 85.386ZM9.17277 86.4532C9.89215 86.9861 10.4805 87.7083 10.9296 88.6486L12.7344 87.7866C12.1595 86.583 11.3718 85.5932 10.3632 84.8461L9.17277 86.4532ZM10.9322 88.6539C11.3678 89.5524 11.6 90.6148 11.6 91.8656H13.6C13.6 90.3644 13.3202 88.9949 12.7318 87.7813L10.9322 88.6539ZM11.6 91.8656V93.9776H13.6V91.8656H11.6ZM12.425 94.9622L17.825 95.9222L18.175 93.9531L12.775 92.9931L12.425 94.9622ZM17 94.9376V100.266H19V94.9376H17ZM18.1739 99.2809L1.18186 96.2809L0.834135 98.2504L17.8261 101.25L18.1739 99.2809ZM2.008 97.2656L2.008 89.8256H0.0079999L0.0079999 97.2656H2.008ZM2.008 89.8256C2.008 88.152 2.38713 87.0473 2.98853 86.3516L1.47547 85.0437C0.444866 86.2359 0.0079999 87.8832 0.0079999 89.8256H2.008ZM2.98853 86.3516C3.58662 85.6597 4.4128 85.2816 5.592 85.2816L5.592 83.2816C3.9232 83.2816 2.50938 83.8476 1.47547 85.0437L2.98853 86.3516ZM5.592 85.2816C5.87257 85.2816 6.23099 85.3139 6.6756 85.388L7.0044 83.4152C6.48901 83.3293 6.01543 83.2816 5.592 83.2816L5.592 85.2816ZM9.4 91.7216C9.4 91.0218 9.23151 90.3432 8.78611 89.795C8.33788 89.2434 7.7078 88.9449 7.02155 88.8182L6.65845 90.785C7.0122 90.8503 7.16212 90.9679 7.23389 91.0562C7.30849 91.148 7.4 91.3335 7.4 91.7216H9.4ZM7.0044 88.8152C6.81314 88.7834 6.60364 88.7536 6.432 88.7536V90.7536C6.4151 90.7536 6.42485 90.7526 6.47716 90.7588C6.5242 90.7643 6.58942 90.7737 6.6756 90.788L7.0044 88.8152ZM6.432 88.7536C5.83305 88.7536 5.22249 88.9477 4.79229 89.4765C4.3942 89.9659 4.28 90.5878 4.28 91.1696H6.28C6.28 90.8074 6.3578 90.7214 6.34371 90.7387C6.33169 90.7535 6.31414 90.7646 6.30713 90.7675C6.30626 90.7678 6.34056 90.7536 6.432 90.7536V88.7536ZM4.28 91.1696V92.6816H6.28V91.1696H4.28ZM5.10578 93.6663L8.22578 94.2183L8.57422 92.2489L5.45422 91.6969L5.10578 93.6663ZM9.4 93.2336V91.7216H7.4L7.4 93.2336H9.4ZM1.008 68.3357L1.18147 67.3508L0.0079999 67.1442L0.0079999 68.3357H1.008ZM5.232 69.0797H6.232L6.232 68.2404L5.40547 68.0948L5.232 69.0797ZM5.232 73.5917H4.232V74.4305L5.058 74.5764L5.232 73.5917ZM18 75.8477H19V75.0089L18.174 74.8629L18 75.8477ZM18 81.1757L17.826 82.1604L19 82.3679V81.1757H18ZM5.232 78.9197L5.406 77.9349L4.232 77.7275V78.9197H5.232ZM5.232 83.3837L5.05853 84.3685L6.232 84.5752V83.3837H5.232ZM1.008 82.6397H0.0079999L0.0079999 83.4789L0.834534 83.6245L1.008 82.6397ZM0.834534 69.3205L5.05853 70.0645L5.40547 68.0948L1.18147 67.3508L0.834534 69.3205ZM4.232 69.0797V73.5917H6.232V69.0797H4.232ZM5.058 74.5764L17.826 76.8324L18.174 74.8629L5.406 72.6069L5.058 74.5764ZM17 75.8477L17 81.1757H19L19 75.8477H17ZM18.174 80.1909L5.406 77.9349L5.058 79.9044L17.826 82.1604L18.174 80.1909ZM4.232 78.9197V83.3837H6.232V78.9197H4.232ZM5.40547 82.3988L1.18147 81.6548L0.834534 83.6245L5.05853 84.3685L5.40547 82.3988ZM2.008 82.6397L2.008 68.3357H0.0079999L0.0079999 82.6397H2.008ZM13.752 65.5965L12.9191 66.1499L13.1571 66.5082L13.5809 66.5818L13.752 65.5965ZM9.528 59.8605L8.76815 60.5106L9.528 59.8605ZM6.216 57.4365L6.39346 56.4524L6.3755 56.4491L6.35742 56.4465L6.216 57.4365ZM5.448 58.8285L4.89325 59.6606L4.90475 59.6681L5.448 58.8285ZM7.008 59.3085H8.008V58.4786L7.19229 58.3256L7.008 59.3085ZM7.008 64.4685L6.80091 65.4468L8.008 65.7023V64.4685H7.008ZM2.136 61.6845L1.33599 62.2845L1.33931 62.2889L2.136 61.6845ZM1.704 53.0205L2.42543 53.7131L2.43263 53.7054L1.704 53.0205ZM5.688 51.9165L5.86415 50.9321L5.84223 50.9282L5.82016 50.9253L5.688 51.9165ZM9.984 54.1965L9.30353 54.9293L9.30828 54.9337L9.984 54.1965ZM13.464 58.6125L12.5953 59.1078L14.464 62.3857V58.6125H13.464ZM13.464 53.1165L13.64 52.1321L12.464 51.9219V53.1165H13.464ZM17.76 53.8845H18.76V53.0474L17.936 52.9001L17.76 53.8845ZM17.76 66.2925L17.5889 67.2778L18.76 67.4811V66.2925H17.76ZM14.5849 65.0431C12.9886 62.6405 11.5558 60.6924 10.2879 59.2104L8.76815 60.5106C9.96424 61.9086 11.3474 63.7845 12.9191 66.1499L14.5849 65.0431ZM10.2879 59.2104C9.02391 57.7331 7.72659 56.6928 6.39346 56.4524L6.03853 58.4206C6.65741 58.5322 7.56809 59.1079 8.76815 60.5106L10.2879 59.2104ZM6.35742 56.4465C6.15379 56.4175 5.93356 56.3885 5.784 56.3885V58.3885C5.7636 58.3885 5.75612 58.3875 5.7703 58.3886C5.78167 58.3894 5.80084 58.3912 5.82957 58.3944C5.88718 58.4008 5.96787 58.4112 6.07458 58.4265L6.35742 56.4465ZM5.784 56.3885C5.40422 56.3885 4.93262 56.4687 4.5495 56.8039C4.14087 57.1615 4.016 57.6451 4.016 58.0605H6.016C6.016 58.0413 6.01899 58.0687 5.99849 58.1225C5.97571 58.1823 5.93257 58.2513 5.8665 58.3091C5.73938 58.4203 5.65178 58.3885 5.784 58.3885V56.3885ZM4.016 58.0605C4.016 58.746 4.35403 59.301 4.8933 59.6606L6.0027 57.9965C5.98396 57.984 5.9777 57.9772 5.97884 57.9784C5.98039 57.98 5.98747 57.9878 5.99558 58.0022C6.00381 58.0169 6.00973 58.0323 6.01314 58.046C6.01645 58.0592 6.016 58.0651 6.016 58.0605H4.016ZM4.90475 59.6681C5.35949 59.9623 6.0588 60.1479 6.82371 60.2914L7.19229 58.3256C6.4212 58.181 6.08051 58.0467 5.99125 57.9889L4.90475 59.6681ZM6.008 59.3085L6.008 64.4685H8.008V59.3085H6.008ZM7.21509 63.4902C5.19012 63.0615 3.80632 62.2317 2.93269 61.0801L1.33931 62.2889C2.57768 63.9213 4.44188 64.9475 6.80091 65.4468L7.21509 63.4902ZM2.936 61.0845C2.01358 59.8546 1.552 58.4585 1.552 56.8605H-0.448001C-0.448001 58.8785 0.146421 60.6984 1.336 62.2845L2.936 61.0845ZM1.552 56.8605C1.552 55.2132 1.91641 54.2432 2.42539 53.713L0.982612 52.328C-0.0444086 53.3978 -0.448001 54.9878 -0.448001 56.8605H1.552ZM2.43263 53.7054C2.97695 53.1263 3.67944 52.8205 4.632 52.8205V50.8205C3.18456 50.8205 1.93505 51.3147 0.975372 52.3356L2.43263 53.7054ZM4.632 52.8205C4.7852 52.8205 5.08142 52.8445 5.55584 52.9077L5.82016 50.9253C5.33458 50.8605 4.92679 50.8205 4.632 50.8205V52.8205ZM5.51185 52.9009C6.81012 53.1332 8.07329 53.7869 9.30355 54.9293L10.6645 53.4637C9.2067 52.1101 7.60588 51.2438 5.86415 50.9321L5.51185 52.9009ZM9.30828 54.9337C10.5698 56.0901 11.6665 57.4786 12.5953 59.1078L14.3327 58.1172C13.3095 56.3223 12.0862 54.7669 10.6597 53.4593L9.30828 54.9337ZM14.464 58.6125L14.464 53.1165H12.464L12.464 58.6125H14.464ZM13.288 54.1009L17.584 54.8689L17.936 52.9001L13.64 52.1321L13.288 54.1009ZM16.76 53.8845V66.2925H18.76V53.8845H16.76ZM17.9311 65.3072L13.9231 64.6112L13.5809 66.5818L17.5889 67.2778L17.9311 65.3072ZM9.288 51.1147L9.11387 52.0995L9.12131 52.1008L9.12877 52.102L9.288 51.1147ZM3.024 48.2347L3.70819 47.5054L3.024 48.2347ZM2.328 37.9388L2.98962 38.6886L2.99546 38.6834L3.00122 38.6782L2.328 37.9388ZM9.288 36.7148L9.10258 37.6975L9.11387 37.6995L9.288 36.7148ZM15.576 39.5947L16.2602 38.8654L16.2565 38.862L15.576 39.5947ZM16.296 49.9147L16.9576 50.6646L16.9635 50.6594L16.9692 50.6542L16.296 49.9147ZM9.288 41.9707L9.09188 42.9513L9.09988 42.9529L9.1079 42.9544L9.288 41.9707ZM6.672 45.0427L6.164 45.9041L6.17096 45.9082L6.672 45.0427ZM9.288 45.8828L9.47512 44.9004L9.4681 44.8991L9.288 45.8828ZM12.384 45.7387L12.9575 46.558L12.9709 46.5486L12.984 46.5387L12.384 45.7387ZM11.928 42.8347L11.42 43.6961L11.4283 43.701L11.4367 43.7057L11.928 42.8347ZM9.46213 50.13C6.98117 49.6913 5.08668 48.7987 3.70819 47.5054L2.33981 48.9641C4.06532 50.5828 6.34683 51.6102 9.11387 52.0995L9.46213 50.13ZM3.70819 47.5054C2.38724 46.2662 1.696 44.6018 1.696 42.4027H-0.304C-0.304 45.0677 0.556757 47.2913 2.33981 48.9641L3.70819 47.5054ZM1.696 42.4027C1.696 40.5576 2.19067 39.3935 2.98962 38.6886L1.66638 37.1889C0.289334 38.404 -0.304 40.2159 -0.304 42.4027H1.696ZM3.00122 38.6782C3.83748 37.9168 5.05711 37.4747 6.792 37.4747L6.792 35.4747C4.71889 35.4747 2.96251 36.0087 1.65478 37.1993L3.00122 38.6782ZM6.792 37.4747C7.54234 37.4747 8.31223 37.5483 9.10259 37.6974L9.47341 35.7321C8.56777 35.5612 7.67366 35.4747 6.792 35.4747L6.792 37.4747ZM9.11387 37.6995C11.5948 38.1382 13.4996 39.0313 14.8955 40.3275L16.2565 38.862C14.5164 37.2462 12.2292 36.2193 9.46213 35.73L9.11387 37.6995ZM14.8918 40.3241C16.2128 41.5633 16.904 43.2277 16.904 45.4268H18.904C18.904 42.7618 18.0432 40.5382 16.2602 38.8654L14.8918 40.3241ZM16.904 45.4268C16.904 47.2748 16.4153 48.4537 15.6228 49.1753L16.9692 50.6542C18.3207 49.4238 18.904 47.6107 18.904 45.4268H16.904ZM15.6344 49.1649C14.7813 49.9176 13.5404 50.3548 11.784 50.3548V52.3548C13.8676 52.3548 15.6347 51.8319 16.9576 50.6646L15.6344 49.1649ZM11.784 50.3548C11.1845 50.3548 10.4097 50.2827 9.44723 50.1275L9.12877 52.102C10.1503 52.2668 11.0395 52.3548 11.784 52.3548V50.3548ZM9.48412 40.9902C8.7962 40.8526 8.15291 40.7787 7.56 40.7787V42.7787C7.99109 42.7787 8.49979 42.8329 9.09188 42.9513L9.48412 40.9902ZM7.56 40.7787C6.83874 40.7787 6.11176 40.9244 5.55381 41.3869C4.95993 41.8792 4.736 42.5781 4.736 43.2907H6.736C6.736 42.9954 6.81606 42.9383 6.83019 42.9266C6.88024 42.8851 7.06525 42.7787 7.56 42.7787V40.7787ZM4.736 43.2907C4.736 44.4002 5.19861 45.3348 6.16401 45.9041L7.17998 44.1814C6.89739 44.0147 6.736 43.7813 6.736 43.2907H4.736ZM6.17096 45.9082C6.9218 46.3429 7.92198 46.6493 9.10789 46.8664L9.4681 44.8991C8.38202 44.7002 7.6382 44.4466 7.17304 44.1773L6.17096 45.9082ZM9.10089 46.8651C9.81089 47.0003 10.453 47.0748 11.016 47.0748V45.0748C10.619 45.0748 10.1091 45.0212 9.47511 44.9004L9.10089 46.8651ZM11.016 47.0748C11.7138 47.0748 12.4031 46.946 12.9575 46.558L11.8105 44.9195C11.7249 44.9795 11.5022 45.0748 11.016 45.0748V47.0748ZM12.984 46.5387C13.6466 46.0418 13.864 45.2794 13.864 44.5387H11.864C11.864 44.7278 11.8364 44.8351 11.8155 44.8874C11.7982 44.9307 11.786 44.9373 11.784 44.9388L12.984 46.5387ZM13.864 44.5387C13.864 43.4354 13.3922 42.5126 12.4193 41.9638L11.4367 43.7057C11.7118 43.8609 11.864 44.0741 11.864 44.5387H13.864ZM12.436 41.9734C11.6687 41.5209 10.6594 41.2052 9.4681 40.9871L9.1079 42.9544C10.1886 43.1523 10.9393 43.4126 11.42 43.6961L12.436 41.9734ZM13.752 36.1121L12.9191 36.6655L13.1571 37.0238L13.5809 37.0974L13.752 36.1121ZM9.528 30.3761L8.76815 31.0262L9.528 30.3761ZM6.216 27.9521L6.39346 26.968L6.3755 26.9648L6.35742 26.9622L6.216 27.9521ZM5.448 29.3441L4.89325 30.1763L4.90475 30.1837L5.448 29.3441ZM7.008 29.8241H8.008V28.9942L7.19229 28.8413L7.008 29.8241ZM7.008 34.9841L6.80091 35.9624L8.008 36.218V34.9841H7.008ZM2.136 32.2001L1.33599 32.8001L1.33931 32.8045L2.136 32.2001ZM1.704 23.5361L2.42543 24.2287L2.43263 24.221L1.704 23.5361ZM5.688 22.4321L5.86415 21.4478L5.84223 21.4438L5.82016 21.4409L5.688 22.4321ZM9.984 24.7121L9.30353 25.4449L9.30828 25.4493L9.984 24.7121ZM13.464 29.1281L12.5953 29.6234L14.464 32.9013V29.1281H13.464ZM13.464 23.6321L13.64 22.6477L12.464 22.4375V23.6321H13.464ZM17.76 24.4001H18.76V23.563L17.936 23.4157L17.76 24.4001ZM17.76 36.8081L17.5889 37.7934L18.76 37.9967V36.8081H17.76ZM14.5849 35.5587C12.9886 33.1562 11.5558 31.208 10.2879 29.726L8.76815 31.0262C9.96424 32.4242 11.3474 34.3001 12.9191 36.6655L14.5849 35.5587ZM10.2879 29.726C9.02391 28.2487 7.72659 27.2084 6.39346 26.968L6.03853 28.9362C6.65741 29.0479 7.56809 29.6236 8.76815 31.0262L10.2879 29.726ZM6.35742 26.9622C6.15379 26.9331 5.93356 26.9041 5.784 26.9041V28.9041C5.7636 28.9041 5.75612 28.9031 5.7703 28.9042C5.78167 28.9051 5.80084 28.9068 5.82957 28.91C5.88718 28.9164 5.96787 28.9268 6.07458 28.9421L6.35742 26.9622ZM5.784 26.9041C5.40422 26.9041 4.93262 26.9843 4.5495 27.3195C4.14087 27.6771 4.016 28.1607 4.016 28.5761H6.016C6.016 28.557 6.01899 28.5843 5.99849 28.6381C5.97571 28.6979 5.93257 28.7669 5.8665 28.8247C5.73938 28.9359 5.65178 28.9041 5.784 28.9041V26.9041ZM4.016 28.5761C4.016 29.2616 4.35403 29.8167 4.8933 30.1762L6.0027 28.5121C5.98396 28.4996 5.9777 28.4928 5.97884 28.494C5.98039 28.4956 5.98747 28.5035 5.99558 28.5179C6.00381 28.5325 6.00973 28.5479 6.01314 28.5616C6.01645 28.5748 6.016 28.5807 6.016 28.5761H4.016ZM4.90475 30.1837C5.35949 30.4779 6.0588 30.6636 6.82371 30.807L7.19229 28.8413C6.4212 28.6967 6.08051 28.5623 5.99125 28.5046L4.90475 30.1837ZM6.008 29.8241V34.9841H8.008V29.8241H6.008ZM7.21509 34.0058C5.19012 33.5772 3.80632 32.7473 2.93269 31.5957L1.33931 32.8045C2.57768 34.4369 4.44188 35.4631 6.80091 35.9624L7.21509 34.0058ZM2.936 31.6001C2.01358 30.3702 1.552 28.9741 1.552 27.3761H-0.448001C-0.448001 29.3941 0.146421 31.214 1.336 32.8001L2.936 31.6001ZM1.552 27.3761C1.552 25.7288 1.91641 24.7588 2.42539 24.2287L0.982612 22.8436C-0.0444086 23.9134 -0.448001 25.5034 -0.448001 27.3761H1.552ZM2.43263 24.221C2.97695 23.642 3.67944 23.3361 4.632 23.3361V21.3361C3.18456 21.3361 1.93505 21.8303 0.975372 22.8512L2.43263 24.221ZM4.632 23.3361C4.7852 23.3361 5.08142 23.3601 5.55584 23.4234L5.82016 21.4409C5.33458 21.3762 4.92679 21.3361 4.632 21.3361V23.3361ZM5.51185 23.4165C6.81012 23.6488 8.07329 24.3025 9.30355 25.4449L10.6645 23.9793C9.2067 22.6257 7.60588 21.7594 5.86415 21.4478L5.51185 23.4165ZM9.30828 25.4493C10.5698 26.6057 11.6665 27.9943 12.5953 29.6234L14.3327 28.6329C13.3095 26.838 12.0862 25.2825 10.6597 23.975L9.30828 25.4493ZM14.464 29.1281L14.464 23.6321H12.464L12.464 29.1281H14.464ZM13.288 24.6165L17.584 25.3845L17.936 23.4157L13.64 22.6477L13.288 24.6165ZM16.76 24.4001V36.8081H18.76V24.4001H16.76ZM17.9311 35.8229L13.9231 35.1269L13.5809 37.0974L17.5889 37.7934L17.9311 35.8229ZM15.36 22.2064L15.1896 23.1917L16.36 23.3942V22.2064H15.36ZM10.92 21.4384L10.2604 22.19L10.472 22.3757L10.7496 22.4237L10.92 21.4384ZM0.719999 12.4864H-0.280001L-0.280001 12.9392L0.0603686 13.238L0.719999 12.4864ZM0.719999 6.75037L0.892037 5.76528L-0.280001 5.5606L-0.280001 6.75037H0.719999ZM10.752 8.50237L10.58 9.48746L11.752 9.69215L11.752 8.50237H10.752ZM10.752 6.77438L10.9264 5.7897L9.752 5.58173V6.77438H10.752ZM15.36 7.59038H16.36V6.7519L15.5344 6.6057L15.36 7.59038ZM15.36 9.31837H14.36V10.153L15.1811 10.3022L15.36 9.31837ZM18 9.79837H19V8.9638L18.1789 8.81451L18 9.79837ZM18 15.1744L17.8211 16.1582L19 16.3726V15.1744H18ZM15.36 14.6944L15.5389 13.7105L14.36 13.4962V14.6944H15.36ZM6.792 12.7504L6.9651 11.7655L3.25504 11.1134L6.15319 13.5197L6.792 12.7504ZM10.752 16.0384L10.1132 16.8077L11.752 18.1684V16.0384H10.752ZM10.752 13.4464H11.752V12.6068L10.9251 12.4615L10.752 13.4464ZM15.5304 21.221L11.0904 20.453L10.7496 22.4237L15.1896 23.1917L15.5304 21.221ZM11.5796 20.6868L1.37963 11.7348L0.0603686 13.238L10.2604 22.19L11.5796 20.6868ZM1.72 12.4864L1.72 6.75037H-0.280001L-0.280001 12.4864H1.72ZM0.547962 7.73547L10.58 9.48746L10.924 7.51728L0.892037 5.76528L0.547962 7.73547ZM11.752 8.50237V6.77438H9.752V8.50237H11.752ZM10.5776 7.75906L15.1856 8.57505L15.5344 6.6057L10.9264 5.7897L10.5776 7.75906ZM14.36 7.59038L14.36 9.31837H16.36V7.59038H14.36ZM15.1811 10.3022L17.8211 10.7822L18.1789 8.81451L15.5389 8.3345L15.1811 10.3022ZM17 9.79837V15.1744H19V9.79837H17ZM18.1789 14.1905L15.5389 13.7105L15.1811 15.6782L17.8211 16.1582L18.1789 14.1905ZM14.36 14.6944V22.2064H16.36L16.36 14.6944H14.36ZM6.15319 13.5197L10.1132 16.8077L11.3908 15.269L7.43081 11.981L6.15319 13.5197ZM11.752 16.0384V13.4464H9.752V16.0384H11.752ZM10.9251 12.4615L6.9651 11.7655L6.6189 13.7353L10.5789 14.4313L10.9251 12.4615Z" fill="#CEFF67" mask="url(#path-4-outside-1_180_3501)"/>
</g>
<defs>
<filter id="filter0_d_180_3501" x="28" y="1" width="205" height="134" filterUnits="userSpaceOnUse" color-interpolation-filters="sRGB">
<feFlood flood-opacity="0" result="BackgroundImageFix"/>
<feColorMatrix in="SourceAlpha" type="matrix" values="0 0 0 0 0 0 0 0 0 0 0 0 0 0 0 0 0 0 127 0" result="hardAlpha"/>
<feOffset dx="2" dy="2"/>
<feComposite in2="hardAlpha" operator="out"/>
<feColorMatrix type="matrix" values="0 0 0 0 0.807843 0 0 0 0 1 0 0 0 0 0.403922 0 0 0 1 0"/>
<feBlend mode="normal" in2="BackgroundImageFix" result="effect1_dropShadow_180_3501"/>
<feBlend mode="normal" in="SourceGraphic" in2="effect1_dropShadow_180_3501" result="shape"/>
</filter>
<filter id="filter1_d_180_3501" x="0.552002" y="6.75038" width="19.616" height="123.794" filterUnits="userSpaceOnUse" color-interpolation-filters="sRGB">
<feFlood flood-opacity="0" result="BackgroundImageFix"/>
<feColorMatrix in="SourceAlpha" type="matrix" values="0 0 0 0 0 0 0 0 0 0 0 0 0 0 0 0 0 0 127 0" result="hardAlpha"/>
<feOffset dx="2" dy="2"/>
<feComposite in2="hardAlpha" operator="out"/>
<feColorMatrix type="matrix" values="0 0 0 0 0.807843 0 0 0 0 1 0 0 0 0 0.403922 0 0 0 1 0"/>
<feBlend mode="normal" in2="BackgroundImageFix" result="effect1_dropShadow_180_3501"/>
<feBlend mode="normal" in="SourceGraphic" in2="effect1_dropShadow_180_3501" result="shape"/>
</filter>
<linearGradient id="paint0_linear_180_3501" x1="231" y1="1.00001" x2="73.864" y2="33.9303" gradientUnits="userSpaceOnUse">
<stop offset="0.51262" stop-color="#C0FF3D"/>
<stop offset="1" stop-color="#CEFF67"/>
</linearGradient>
</defs>
</svg>
