<svg width="24" height="24" viewBox="0 0 24 24" fill="none" xmlns="http://www.w3.org/2000/svg">
<path d="M21.8381 15.2869L19.155 13.9453C18.4683 13.6046 17.8907 13.0783 17.4877 12.4261C17.0848 11.774 16.8725 11.022 16.875 10.2553V7.50003C16.875 7.20166 16.7565 6.91551 16.5455 6.70453C16.3345 6.49356 16.0484 6.37503 15.75 6.37503C14.6564 6.37379 13.6079 5.93879 12.8346 5.16548C12.0612 4.39216 11.6262 3.34367 11.625 2.25003C11.625 2.04062 11.5665 1.83538 11.4561 1.65741C11.3458 1.47944 11.1879 1.3358 11.0004 1.24266C10.8128 1.14951 10.603 1.11057 10.3945 1.1302C10.186 1.14983 9.98718 1.22726 9.82031 1.35378L2.60156 6.82972L2.57344 6.85128C2.36913 7.01661 2.20187 7.22305 2.0825 7.4572C1.96312 7.69135 1.89431 7.94797 1.88052 8.21043C1.86673 8.47289 1.90827 8.73532 2.00245 8.98069C2.09662 9.22606 2.24133 9.44888 2.42719 9.63472L13.0847 20.296C13.1892 20.4004 13.3133 20.4832 13.4499 20.5397C13.5865 20.5961 13.7328 20.6251 13.8806 20.625H21C21.4973 20.625 21.9742 20.4275 22.3258 20.0759C22.6775 19.7242 22.875 19.2473 22.875 18.75V16.9632C22.8761 16.6148 22.7796 16.273 22.5963 15.9767C22.413 15.6805 22.1504 15.4415 21.8381 15.2869ZM20.625 18.375H14.3438L4.32 8.34847L5.52562 7.43347L9.38812 11.296C9.59947 11.5073 9.88611 11.626 10.185 11.626C10.4839 11.626 10.7705 11.5073 10.9819 11.296C11.1932 11.0846 11.312 10.798 11.312 10.4991C11.312 10.2002 11.1932 9.91356 10.9819 9.70222L7.33594 6.06097L9.70219 4.26659C10.0665 5.35208 10.7155 6.31989 11.5814 7.06905C12.4473 7.8182 13.4984 8.32123 14.625 8.52566V10.2553C14.6209 11.4401 14.9489 12.6023 15.5718 13.6101C16.1947 14.618 17.0875 15.4311 18.1491 15.9572L20.625 17.1957V18.375ZM5.20219 17.25H3C2.70163 17.25 2.41548 17.1315 2.2045 16.9205C1.99353 16.7095 1.875 16.4234 1.875 16.125C1.875 15.8267 1.99353 15.5405 2.2045 15.3295C2.41548 15.1186 2.70163 15 3 15H5.20219C5.50056 15 5.7867 15.1186 5.99768 15.3295C6.20866 15.5405 6.32719 15.8267 6.32719 16.125C6.32719 16.4234 6.20866 16.7095 5.99768 16.9205C5.7867 17.1315 5.50056 17.25 5.20219 17.25ZM9.70219 19.5C9.70219 19.7984 9.58366 20.0845 9.37268 20.2955C9.1617 20.5065 8.87556 20.625 8.57719 20.625H4.5C4.20163 20.625 3.91548 20.5065 3.7045 20.2955C3.49353 20.0845 3.375 19.7984 3.375 19.5C3.375 19.2017 3.49353 18.9155 3.7045 18.7045C3.91548 18.4936 4.20163 18.375 4.5 18.375H8.57719C8.87556 18.375 9.1617 18.4936 9.37268 18.7045C9.58366 18.9155 9.70219 19.2017 9.70219 19.5Z" fill="#9855FF"/>
</svg>
