<svg width="30" height="30" viewBox="0 0 30 30" fill="none" xmlns="http://www.w3.org/2000/svg">
<g filter="url(#filter0_d_325_27)">
<rect x="-10.5" y="-5.5" width="50.67" height="42" stroke="#CEFF67" shape-rendering="crispEdges"/>
</g>
<path d="M27.45 11.6667H25.8333V7.50001C25.8333 7.279 25.7455 7.06704 25.5893 6.91076C25.433 6.75448 25.221 6.66668 25 6.66668H5C4.77899 6.66668 4.56702 6.57888 4.41074 6.4226C4.25446 6.26632 4.16667 6.05436 4.16667 5.83335C4.16667 5.61233 4.25446 5.40037 4.41074 5.24409C4.56702 5.08781 4.77899 5.00001 5 5.00001H24.6667C24.8877 5.00001 25.0996 4.91221 25.2559 4.75593C25.4122 4.59965 25.5 4.38769 25.5 4.16668C25.5 3.94566 25.4122 3.7337 25.2559 3.57742C25.0996 3.42114 24.8877 3.33335 24.6667 3.33335H5C4.67824 3.32671 4.35833 3.38353 4.05854 3.50057C3.75875 3.6176 3.48496 3.79255 3.2528 4.01543C3.02064 4.2383 2.83466 4.50473 2.70549 4.79949C2.57633 5.09426 2.5065 5.41159 2.5 5.73335V23.2333C2.50109 23.686 2.59147 24.134 2.76596 24.5517C2.94045 24.9694 3.19563 25.3486 3.51688 25.6675C3.83812 25.9864 4.21913 26.2388 4.63807 26.4103C5.05701 26.5817 5.50567 26.6689 5.95833 26.6667H25C25.221 26.6667 25.433 26.5789 25.5893 26.4226C25.7455 26.2663 25.8333 26.0544 25.8333 25.8333V21.6667H27.45C27.5552 21.6746 27.6609 21.661 27.7606 21.6267C27.8604 21.5924 27.9521 21.5381 28.0301 21.4671C28.1081 21.3961 28.1708 21.3099 28.2143 21.2138C28.2579 21.1178 28.2814 21.0138 28.2833 20.9083V12.575C28.2861 12.346 28.2014 12.1246 28.0466 11.9558C27.8918 11.787 27.6784 11.6836 27.45 11.6667ZM26.6667 20H19.5167C18.6626 19.9696 17.8556 19.6015 17.2728 18.9765C16.69 18.3515 16.3791 17.5207 16.4083 16.6667C16.3791 15.8126 16.69 14.9819 17.2728 14.3569C17.8556 13.7319 18.6626 13.3638 19.5167 13.3333H26.6667V20Z" fill="white"/>
<defs>
<filter id="filter0_d_325_27" x="-11" y="-6" width="53.67" height="45" filterUnits="userSpaceOnUse" color-interpolation-filters="sRGB">
<feFlood flood-opacity="0" result="BackgroundImageFix"/>
<feColorMatrix in="SourceAlpha" type="matrix" values="0 0 0 0 0 0 0 0 0 0 0 0 0 0 0 0 0 0 127 0" result="hardAlpha"/>
<feOffset dx="2" dy="2"/>
<feComposite in2="hardAlpha" operator="out"/>
<feColorMatrix type="matrix" values="0 0 0 0 0.807843 0 0 0 0 1 0 0 0 0 0.403922 0 0 0 1 0"/>
<feBlend mode="normal" in2="BackgroundImageFix" result="effect1_dropShadow_325_27"/>
<feBlend mode="normal" in="SourceGraphic" in2="effect1_dropShadow_325_27" result="shape"/>
</filter>
</defs>
</svg>
