<svg width="26" height="26" viewBox="0 0 26 26" fill="none" xmlns="http://www.w3.org/2000/svg">
<path d="M13.0829 3.24838H13.2275C14.5633 3.25326 21.3314 3.30201 23.1562 3.79276C23.7079 3.94253 24.2106 4.23447 24.6141 4.6394C25.0176 5.04432 25.3078 5.54806 25.4556 6.10026C25.6197 6.71776 25.7351 7.53513 25.8131 8.37851L25.8294 8.54751L25.8651 8.97001L25.8781 9.13901C25.9837 10.6243 25.9967 12.0153 25.9984 12.3191V12.441C25.9967 12.7563 25.9821 14.2415 25.8651 15.7885L25.8521 15.9591L25.8375 16.1281C25.7562 17.0576 25.636 17.9806 25.4556 18.6599C25.3078 19.2121 25.0176 19.7158 24.6141 20.1207C24.2106 20.5257 23.7079 20.8176 23.1562 20.9674C21.2712 21.4744 14.1066 21.5101 13.1137 21.5118H12.883C12.3809 21.5118 10.3041 21.502 8.12663 21.4273L7.85037 21.4175L7.709 21.411L7.43112 21.3996L7.15325 21.3883C5.3495 21.3086 3.63188 21.1803 2.8405 20.9658C2.28902 20.8161 1.78644 20.5244 1.38296 20.1198C0.979473 19.7152 0.6892 19.2118 0.541125 18.6599C0.36075 17.9823 0.2405 17.0576 0.15925 16.1281L0.14625 15.9575L0.13325 15.7885C0.0525906 14.6874 0.00814989 13.584 0 12.48L0 12.2801C0.00325 11.9308 0.01625 10.7234 0.104 9.39088L0.115375 9.22351L0.12025 9.13901L0.13325 8.97001L0.169 8.54751L0.18525 8.37851C0.26325 7.53513 0.378625 6.71613 0.54275 6.10026C0.690577 5.54806 0.98074 5.04432 1.38424 4.6394C1.78774 4.23447 2.29045 3.94253 2.84212 3.79276C3.6335 3.58151 5.35112 3.45151 7.15487 3.37026L7.43112 3.35888L7.71062 3.34913L7.85037 3.34426L8.12825 3.33288C9.67478 3.28316 11.2219 3.25554 12.7692 3.25001L13.0829 3.24838ZM10.4 8.46463V16.2939L17.1551 12.3809L10.4 8.46463Z" fill="white"/>
</svg>
